<svg width="20" height="20" fill="none" xmlns="http://www.w3.org/2000/svg"><path d="M9.96 0A9.955 9.955 0 000 9.96C0 15.427 4.415 20 9.96 20 15.456 20 20 15.472 20 9.96 20 4.41 15.42 0 9.96 0zm0 18.836c-4.845 0-8.796-3.986-8.796-8.875 0-4.846 3.95-8.797 8.797-8.797 4.89 0 8.875 3.95 8.875 8.797 0 4.89-3.986 8.875-8.875 8.875z" fill="#1040E2"/><path d="M9.96 3.516A6.453 6.453 0 003.517 9.96c0 3.567 2.885 6.523 6.445 6.523 1.44 0 2.897-.484 3.998-1.328a.586.586 0 00-.714-.93c-.9.69-2.096 1.094-3.284 1.094-2.908 0-5.274-2.408-5.274-5.36 0-2.907 2.366-5.28 5.274-5.28 2.95 0 5.351 2.373 5.351 5.28v.587c0 .646-.525 1.172-1.171 1.172a1.173 1.173 0 01-1.172-1.172v-2.93a.586.586 0 00-1.172 0v.037a3.02 3.02 0 00-1.836-.623 2.933 2.933 0 00-2.93 2.93 2.933 2.933 0 002.93 2.93c.876 0 1.682-.376 2.255-1.009a2.342 2.342 0 004.268-1.335V9.96c0-3.565-2.96-6.445-6.523-6.445zm0 8.21a1.767 1.767 0 010-3.53c.996 0 1.837.812 1.837 1.765 0 .953-.84 1.766-1.836 1.766z" fill="#1040E2"/></svg>