<svg width="20" height="20" fill="none" xmlns="http://www.w3.org/2000/svg"><path d="M15.457 14.291l-1.232-.556a6.433 6.433 0 002.225-4.868V6.445A6.453 6.453 0 0010.005 0C6.45 0 3.567 2.891 3.567 6.445v2.422c0 .97.78 1.758 1.75 1.758H6.3c.197.412.468.787.784 1.11v1.414l-2.54 1.142a1.935 1.935 0 00-1.232 2.267l.579 2.968a.586.586 0 00.575.474h11.07c.28 0 .522-.199.575-.474l.58-2.968a1.935 1.935 0 00-1.233-2.267zm-2.438-1.1l-.085-.038v-1.418a4.12 4.12 0 00.776-1.11h.982c.1 0 .198-.009.293-.025a5.298 5.298 0 01-1.966 2.591zm2.267-6.746v2.422c0 .323-.27.586-.594.586h-.586V5.86h.586c.323 0 .594.263.594.586zM5.91 9.453h-.594a.587.587 0 01-.586-.586V6.445c0-.323.263-.593.586-.593h.594c-.015 1.121 0 2.078 0 3.601zm.388-4.758c-1.073 0-1.084-.015-1.275.017a5.282 5.282 0 014.98-3.54 5.282 5.282 0 014.981 3.54c-.191-.032-.203-.017-1.275-.017a4.114 4.114 0 00-3.705-2.351 4.114 4.114 0 00-3.706 2.351zm6.048-.007a2.942 2.942 0 01-2.342 1.171h-2.87a2.927 2.927 0 015.214-1.171zm-5.272 4.18V7.03h2.93a4.115 4.115 0 002.87-1.173c.039.19.067.386.067.587v2.422a2.933 2.933 0 01-5.867 0zm8.473 7.422a.5.5 0 00-.006.03l-.49 2.508H4.949l-.49-2.508a.757.757 0 01.486-.927c.042-.014-.145.068 2.958-1.331a.586.586 0 00.345-.534v-.956a4.112 4.112 0 003.523 0v.96c0 .1.018.197.065.281a5.248 5.248 0 01-1.83.328.586.586 0 000 1.171c1.123 0 2.18-.289 3.1-.796 2.053.926 1.91.863 1.95.877a.757.757 0 01.493.897z" fill="#1040E2"/></svg>