<svg width="20" height="20" fill="none" xmlns="http://www.w3.org/2000/svg"><path d="M9.96 0A9.955 9.955 0 000 9.96C0 15.427 4.415 20 9.96 20 15.448 20 20 15.48 20 9.96 20 4.41 15.42 0 9.96 0zm0 18.836c-4.845 0-8.796-3.986-8.796-8.875 0-4.846 3.95-8.797 8.797-8.797 4.89 0 8.875 3.95 8.875 8.797 0 4.89-3.986 8.875-8.875 8.875z" fill="#1040E2"/><path d="M10.868 9.96l1.93-1.929a.586.586 0 00-.83-.829L9.626 9.546a.586.586 0 000 .829l2.344 2.344a.586.586 0 00.828-.83l-1.93-1.929z" fill="#1040E2"/><path d="M9.96 2.344c-4.195 0-7.616 3.414-7.616 7.617 0 4.217 3.432 7.695 7.617 7.695 4.199 0 7.695-3.482 7.695-7.695 0-4.183-3.476-7.617-7.695-7.617zm4.985 11.772l-.348-.348a.586.586 0 00-.83.829l.35.348a6.504 6.504 0 01-3.57 1.511v-.558a.586.586 0 10-1.172 0v.56a6.376 6.376 0 01-3.526-1.478l.383-.383a.586.586 0 10-.829-.829l-.38.38a6.536 6.536 0 01-1.481-3.601h.56a.586.586 0 000-1.172h-.56A6.417 6.417 0 015.01 5.839l.393.393a.586.586 0 00.83-.829l-.394-.393a6.417 6.417 0 013.536-1.467v.559a.586.586 0 001.172 0v-.56a6.536 6.536 0 013.601 1.481l-.38.38a.587.587 0 00.829.83l.383-.384a6.376 6.376 0 011.477 3.526h-.559a.586.586 0 000 1.172h.558a6.505 6.505 0 01-1.511 3.57z" fill="#1040E2"/></svg>