<svg width="110" height="110" fill="none" xmlns="http://www.w3.org/2000/svg"><rect width="110" height="110" rx="55" fill="#fff" fill-opacity=".15"/><g clip-path="url(#clip0)" fill="#fff"><path d="M52.5 55.823V28.75c0-.69-.56-1.25-1.25-1.25C36.775 27.5 25 40.398 25 56.25S37.898 85 53.75 85c7.093 0 10.93-1.285 15.795-5.285a1.25 1.25 0 00.192-1.733L52.5 55.823zM53.75 82.5c-14.475 0-26.25-11.775-26.25-26.25 0-14.01 9.983-25.492 22.5-26.215V56.25c0 .278.092.548.265.767l16.74 21.523c-3.947 3.015-7.24 3.96-13.255 3.96z"/><path d="M56.25 55h27.5c.69 0 1.25-.56 1.25-1.25C85 37.898 72.103 25 56.25 25c-.69 0-1.25.56-1.25 1.25v27.5c0 .69.56 1.25 1.25 1.25zm1.25-27.47c13.483.635 24.335 11.487 24.97 24.97H57.5V27.53zM83.75 57.5h-25a1.247 1.247 0 00-.973 2.035l16.25 20.117a1.242 1.242 0 00.973.465c.315 0 .62-.12.853-.335A28.862 28.862 0 0085 58.75c0-.69-.56-1.25-1.25-1.25zm-8.642 19.51L61.368 60H82.47a26.376 26.376 0 01-7.362 17.01z"/></g><defs><clipPath id="clip0"><path fill="#fff" transform="translate(25 25)" d="M0 0h60v60H0z"/></clipPath></defs></svg>