<svg width="110" height="110" fill="none" xmlns="http://www.w3.org/2000/svg"><rect width="110" height="110" rx="55" fill="#fff" fill-opacity=".15"/><g clip-path="url(#clip0)"><path d="M84.9 61.586l.01-.003-9.852-21.494 2.39-1.189-.895-1.79-2.328 1.16-.316-.687a1 1 0 00-1.818 0l-.28.614A12.862 12.862 0 0066.4 37H58v-2h2v-2h-1.72l.72-2.877a4.123 4.123 0 10-8 0L51.72 33H50v2h2v2h-8.394a12.84 12.84 0 00-5.415 1.2l-.281-.614a1 1 0 00-1.818 0l-.315.687-2.33-1.165-.893 1.792 2.389 1.194-9.851 21.489A.975.975 0 0025 62a7.008 7.008 0 007 7h10a7.008 7.008 0 007-7 .979.979 0 00-.1-.414L39.023 40.01c1.436-.667 3-1.012 4.583-1.011H52v36.586L48.587 79H45a5.006 5.006 0 00-5 5 1 1 0 001 1h28a1 1 0 001-1 5.006 5.006 0 00-5-5h-3.586L58 75.586V39h8.4c1.583 0 3.147.344 4.583 1.011l-9.892 21.572A.975.975 0 0061 62a7.008 7.008 0 007 7h10a7.008 7.008 0 007-7 .974.974 0 00-.1-.414zM42 67H32a5.008 5.008 0 01-4.9-4h19.8a5.008 5.008 0 01-4.9 4zm4.443-6H27.559l9.186-20.041a.988.988 0 00.512 0l9.186 20.04zm6.885-33.184a2.188 2.188 0 013.346 0 2.11 2.11 0 01.387 1.822L56.22 33h-2.438l-.841-3.362a2.112 2.112 0 01.387-1.822zM54 37v-2h2v2h-2zm2 2v36h-2V39h2zm9 42a3.006 3.006 0 012.828 2H42.172A3.006 3.006 0 0145 81h20zm-6.414-2h-7.172l2-2h3.172l2 2zm14.156-38.038c.165.058.346.05.506-.021L82.442 61H63.56l9.184-20.038zM78 67H68a5.008 5.008 0 01-4.9-4h19.8a5.008 5.008 0 01-4.9 4z" fill="#fff"/></g><defs><clipPath id="clip0"><path fill="#fff" transform="translate(25 25)" d="M0 0h60v60H0z"/></clipPath></defs></svg>