<svg width="110" height="110" fill="none" xmlns="http://www.w3.org/2000/svg"><rect width="110" height="110" rx="55" fill="#fff" fill-opacity=".15"/><path d="M84.657 36.006L73.993 25.343a1.172 1.172 0 00-.829-.343H38.36a3.52 3.52 0 00-3.515 3.516v2.234C29.087 33.008 25 38.619 25 45.167c0 .647.525 1.172 1.172 1.172h14.307c.648 0 1.172-.525 1.172-1.172V30.859c0-.647-.525-1.172-1.172-1.172-1.129 0-2.23.123-3.291.354v-1.525c0-.646.525-1.172 1.171-1.172h33.633v7.148a3.52 3.52 0 003.516 3.516h7.148v43.476c0 .647-.526 1.172-1.172 1.172H38.36a1.173 1.173 0 01-1.172-1.172V61.172a1.172 1.172 0 00-2.343 0v20.312A3.52 3.52 0 0038.359 85h43.125A3.52 3.52 0 0085 81.484v-44.65c0-.31-.124-.609-.343-.828zm-45.35-3.923v11.912H27.395c.56-6.31 5.602-11.352 11.912-11.912zm36.2 3.581a1.173 1.173 0 01-1.171-1.172v-5.491L81 35.664h-5.492z" fill="#fff"/><path d="M44.677 33.885c-.647 0-1.172.525-1.172 1.172v13.136H30.369c-.647 0-1.172.524-1.172 1.172 0 8.535 6.944 15.479 15.48 15.479 8.535 0 15.48-6.944 15.48-15.48 0-8.535-6.945-15.479-15.48-15.479zm1.172 2.396a13.076 13.076 0 017.246 3.008l-7.246 7.246V36.281zM44.677 62.5c-6.848 0-12.49-5.268-13.084-11.965h13.084c.323 0 .616-.13.828-.343l9.248-9.247a13.077 13.077 0 013.06 8.419c0 7.243-5.893 13.135-13.136 13.135zm31.66-.515a3.52 3.52 0 00-3.238 4.886l-6.751 6.751a3.494 3.494 0 00-1.535-.353c-.537 0-1.046.121-1.501.337l-4.483-4.483a3.52 3.52 0 00-3.274-4.794 3.52 3.52 0 00-3.516 3.515c0 .525.117 1.024.324 1.472l-4.3 4.3a3.494 3.494 0 00-1.512-.342 3.52 3.52 0 00-3.515 3.515 3.52 3.52 0 003.515 3.516 3.52 3.52 0 003.171-5.034l4.276-4.276a3.492 3.492 0 003.292-.096l4.357 4.358c-.224.462-.35.98-.35 1.528a3.52 3.52 0 003.516 3.515 3.52 3.52 0 003.516-3.515 3.48 3.48 0 00-.335-1.495l6.689-6.688a3.492 3.492 0 001.654.414 3.52 3.52 0 003.515-3.516 3.52 3.52 0 00-3.515-3.515zM46.55 77.96a1.173 1.173 0 01-1.172-1.171 1.173 1.173 0 011.982-.845l.015.015.017.016a1.173 1.173 0 01-.842 1.985zm9.003-8.945a1.173 1.173 0 01-1.171-1.172c0-.646.525-1.172 1.171-1.172a1.173 1.173 0 010 2.344zm9.259 8.94a1.173 1.173 0 01-1.172-1.171c0-.647.526-1.172 1.172-1.172a1.173 1.173 0 010 2.344zm11.523-11.284a1.173 1.173 0 01-1.171-1.172 1.172 1.172 0 111.171 1.172zM70.48 52.54h-6.186a1.172 1.172 0 000 2.343h6.185a1.172 1.172 0 000-2.344zm6.163.342a1.18 1.18 0 00-.828-.343c-.308 0-.61.125-.829.343a1.18 1.18 0 00-.343.829c0 .308.125.61.343.828.218.218.52.344.829.344.308 0 .61-.126.828-.344a1.18 1.18 0 00.344-.828c0-.308-.126-.61-.344-.829zM78.61 41.29H64.293a1.172 1.172 0 000 2.343H78.61a1.172 1.172 0 000-2.344zm0 5.624H64.293a1.172 1.172 0 000 2.344H78.61a1.172 1.172 0 000-2.344z" fill="#fff"/></svg>