<svg width="110" height="110" fill="none" xmlns="http://www.w3.org/2000/svg"><rect width="110" height="110" rx="55" fill="#1040E2" fill-opacity=".1"/><path d="M79.203 82.187c.105-.294.172-.607.172-.937 0-.33-.067-.643-.172-.938h2.047v-1.875h-1.875V73.75a.937.937 0 00-.938-.938h-2.812v-4.687a.937.937 0 00-.938-.938h-.937V55a.937.937 0 00-.938-.938H37.188a.937.937 0 00-.938.938v27.187H32.5V47.775L55 33.608l22.5 14.167v23.162h1.875V48.956l.438.275a.939.939 0 001.25-.231l2.812-3.75a.936.936 0 00-.248-1.354L55.504 26.083a.937.937 0 00-1.004 0L26.374 43.897a.938.938 0 00-.249 1.354L28.938 49a.938.938 0 001.25.231l.437-.275v33.231h-4.688v1.875h58.126v-1.875h-4.86zM29.919 47.184l-1.686-2.247L55 27.985l26.767 16.952-1.686 2.247L55.5 31.706a.941.941 0 00-1 0L29.92 47.184zM77.5 81.25a.938.938 0 11-1.876 0 .938.938 0 011.876 0zm-11.25 0a.938.938 0 111.876 0 .938.938 0 01-1.876 0zm-1.875-6.563h1.875v1.875h1.875v-1.875H70v3.75h-5.625v-3.75zm5.453 5.625h4.095a2.76 2.76 0 00-.173.938c0 .33.067.643.172.937h-4.095A2.76 2.76 0 0070 81.25c0-.33-.067-.643-.172-.938zm7.672-1.875h-5.625v-3.75h1.875v1.875h1.875v-1.875H77.5v3.75zm-9.375-5.625v-3.75H70v1.875h1.875v-1.875h1.875v3.75h-5.625zm-.938-5.625a.937.937 0 00-.937.938v4.687h-1.875V66.25a.937.937 0 00-.938-.938h-3.75v1.875H62.5v12.188c0 .518.42.937.938.937h1.11a2.781 2.781 0 00-.173.938c0 .33.067.643.172.937h-3.922V77.5a.937.937 0 00-.938-.938h-6.562v-4.687a.937.937 0 00-.938-.938h-6.562V66.25a.937.937 0 00-.938-.938h-6.562v-1.875h33.75v3.75h-4.688zm-29.062 9.375v-3.75H40v1.875h1.875v-1.875h1.875v3.75h-5.625zm3.75-7.5v-1.875h1.875v3.75h-5.625v-3.75H40v1.875h1.875zm7.5 5.625v-1.875h1.875v3.75h-5.625v-3.75H47.5v1.875h1.875zm-3.75 3.75H47.5v1.875h1.875v-1.875h1.875v3.75h-5.625v-3.75zm7.5 0H55v1.875h1.875v-1.875h1.875v3.75h-5.625v-3.75zm18.75-16.875h-33.75v-1.875h33.75v1.875zm0-5.625v1.875h-33.75v-1.875h33.75zm-33.75 22.5H40v1.875h1.875v-1.875h1.875v3.75h-5.625v-3.75z" fill="#1040E2"/><path d="M43.75 44.688a.937.937 0 00-.938.937v5.625c0 .518.42.938.938.938h22.5c.518 0 .938-.42.938-.938v-5.625a.937.937 0 00-.938-.938h-22.5zm21.563 5.624H44.686v-3.75h20.626v3.75z" fill="#1040E2"/></svg>