<svg width="510" height="457" fill="none" xmlns="http://www.w3.org/2000/svg"><path d="M421.27 103.258c-21.001-11.5-42.88-16.116-66.756-13.16-29.41 3.63-52.638 7.91-80.779-3.05-23.66-9.205-45.269-22.945-67.836-34.337-46.16-23.417-91.982-30.665-126.588 15.522-18.41 24.578-32.393 52.8-42.043 82.574-15.602 48.036-28.424 101.227-21.392 151.395 8.894 63.598 63.435 93.453 128.679 70.414 26.387-9.313 51.856-22.945 79.997-26.845 58.887-8.18 107.422 45.889 178.038 32.743 121.716-22.621 112.727-223.766 18.68-275.256z" fill="#1040E2"/><path opacity=".7" d="M421.27 103.258c-21.001-11.5-42.88-16.116-66.756-13.16-29.41 3.63-52.638 7.91-80.779-3.05-23.66-9.205-45.269-22.945-67.836-34.337-46.16-23.417-91.982-30.665-126.588 15.522-18.41 24.578-32.393 52.8-42.043 82.574-15.602 48.036-28.424 101.227-21.392 151.395 8.894 63.598 63.435 93.453 128.679 70.414 26.387-9.313 51.856-22.945 79.997-26.845 58.887-8.18 107.422 45.889 178.038 32.743 121.716-22.621 112.727-223.766 18.68-275.256z" fill="#fff"/><path d="M439.693 51.443c-8.571-4.683-12.458-.783-15.575-4.683-3.118-3.9 8.57-14.023-14.847-24.146 0 0-1.552-21.811-33.499-22.594-31.948-.783-23.337 21.81-31.907 27.264-8.571 5.453-10.906-3.064-19.476 2.335-8.571 5.398-4.67 16.358-11.675 17.91-7.005 1.552-16.372-7.005-24.943-1.552-8.57 5.453-8.57 10.123-12.457 10.123-3.887 0-11.689-3.118-16.359 0-4.67 3.117-10.136 7.018-10.136 7.018h197.056s2.389-7.005-6.182-11.675z" fill="#1040E2"/><path opacity=".5" d="M439.693 51.443c-8.571-4.683-12.458-.783-15.575-4.683-3.118-3.9 8.57-14.023-14.847-24.146 0 0-1.552-21.811-33.499-22.594-31.948-.783-23.337 21.81-31.907 27.264-8.571 5.453-10.906-3.064-19.476 2.335-8.571 5.398-4.67 16.358-11.675 17.91-7.005 1.552-16.372-7.005-24.943-1.552-8.57 5.453-8.57 10.123-12.457 10.123-3.887 0-11.689-3.118-16.359 0-4.67 3.117-10.136 7.018-10.136 7.018h197.056s2.389-7.005-6.182-11.675z" fill="#fff"/><path d="M216.224 226.539c-6.02-3.28-8.759-.553-10.946-3.28-2.186-2.726 6.02-9.853-10.393-16.965 0 0-1.093-15.32-23.538-15.873-22.446-.553-16.413 15.319-22.432 19.152-6.02 3.833-7.653-2.186-13.673 1.647-6.019 3.833-3.293 11.486-8.206 12.579-4.913 1.093-11.499-4.926-17.546-1.093-6.046 3.833-6.019 7.113-8.746 7.113-2.726 0-8.22-2.187-11.5 0-3.279 2.186-7.112 4.926-7.112 4.926h138.465s1.647-4.926-4.373-8.206z" fill="#fff"/><path opacity=".5" d="M216.224 226.539c-6.02-3.28-8.759-.553-10.946-3.28-2.186-2.726 6.02-9.853-10.393-16.965 0 0-1.093-15.32-23.538-15.873-22.446-.553-16.413 15.319-22.432 19.152-6.02 3.833-7.653-2.186-13.673 1.647-6.019 3.833-3.293 11.486-8.206 12.579-4.913 1.093-11.499-4.926-17.546-1.093-6.046 3.833-6.019 7.113-8.746 7.113-2.726 0-8.22-2.187-11.5 0-3.279 2.186-7.112 4.926-7.112 4.926h138.465s1.647-4.926-4.373-8.206z" fill="#fff"/><path d="M387.352 454.596h85.301c-1.633-10.433-8.341-8.597-9.232-24.767-.446-8.098 7.099-18.22 6.438-28.91-.54-8.813-9.219-17.843-9.893-27.925-.608-9.097 6.748-19.193 6.087-28.992-.689-9.259-9.448-18.153-10.271-27.79-.756-9.448 6.505-19.584 5.641-29.086-.864-9.502-9.812-18.234-10.797-27.601-.986-9.623 6.046-19.989 4.967-29.194-1.134-9.785-10.366-18.234-11.621-27.25-1.35-10.028 5.142-20.745 3.617-29.41-1.876-10.609-11.756-18.288-13.834-26.117-3.874-14.59-3.388-28.64-7.964-29.558-4.872-.972-5.992 12.809-9.69 28.209-1.863 7.733-11.513 15.575-13.106 26.197-1.282 8.598 5.547 19.058 4.427 29.046-.999 8.948-10.001 17.546-10.879 27.277-.823 9.151 6.479 19.233 5.764 28.802-.702 9.3-9.448 18.167-10.029 27.615-.58 9.448 6.924 19.328 6.411 28.654-.526 9.556-9.096 18.586-9.542 27.777-.459 9.731 7.221 19.544 6.843 28.56-.418 10.001-8.867 19.152-9.178 27.898-.378 10.608 7.41 20.394 7.167 28.478-.513 17.546-8.544 13.889-8.827 28.006l2.2.081z" fill="#1040E2"/><path d="M423.969 146.029v304.626m13.322-272.692l-13.889 11.999-11.364-15.158m25.253 56.188l-13.889 11.985-11.364-15.143m25.253 53.016l-13.889 11.999-11.364-15.157m25.253 62.504l-13.889 11.986-11.364-15.144m25.253 63.125l-13.889 11.985-11.364-15.143" stroke="#000" stroke-miterlimit="10"/><path d="M329.248 454.596h65.851c-1.269-8.098-6.438-6.641-7.126-19.112-.351-6.289 5.466-14.064 4.967-22.324-.419-6.748-7.113-13.78-7.64-21.595-.472-7.018 5.251-14.846 4.697-22.378-.526-7.153-7.315-14.01-7.922-21.446-.608-7.437 5.021-15.13 4.359-22.459-.661-7.329-7.585-14.078-8.314-21.299-.756-7.436 4.67-15.426 3.833-22.553-.877-7.545-8.004-14.064-8.962-21.015-1.08-7.747 3.968-16.021 2.781-22.702-1.445-8.192-9.07-14.131-10.663-20.164-2.996-11.256-2.618-22.121-6.155-22.823-3.765-.756-4.629 9.879-7.477 21.784-1.431 5.965-8.894 12.026-10.123 20.245-.985 6.641 4.279 14.712 3.415 22.419-.769 6.91-7.707 13.497-8.395 21.055-.634 7.059 5.007 14.847 4.454 22.229-.54 7.181-7.275 14.024-7.747 21.312-.473 7.288 5.398 14.928 4.953 22.121-.445 7.194-7.018 14.348-7.356 21.447-.364 7.504 5.561 15.076 5.278 22.041-.324 7.72-6.843 14.846-7.086 21.595-.297 8.179 5.722 15.751 5.533 21.973-.404 13.497-6.6 10.73-6.816 21.595l1.661.054z" fill="#1040E2"/><path d="M357.524 216.415v235.144m10.271-210.497l-10.717 9.258-8.773-11.701m19.49 43.364l-10.717 9.259-8.773-11.688m19.49 40.923l-10.717 9.259-8.773-11.688m19.49 48.238l-10.717 9.259-8.773-11.702m19.49 48.738l-10.717 9.245-8.773-11.688" stroke="#000" stroke-miterlimit="10"/><path d="M270.549 453.963V181.082h14.402v272.881" fill="#2E353A"/><path d="M270.549 453.963V181.082h14.402v272.881" stroke="#2E353A" stroke-linecap="round" stroke-linejoin="round"/><path d="M263.356 453.963V181.082h14.401v272.881" fill="#1040E2"/><path d="M263.356 453.963V181.082h14.401v272.881" stroke="#2E353A" stroke-linecap="round" stroke-linejoin="round"/><path d="M277.757 181.082h-14.401v32.392h14.401v-32.392z" fill="#2E353A" opacity=".3"/><path d="M324.807 74.55H218.1l46.511 114.237h106.72V121.06a46.515 46.515 0 00-13.627-32.893 46.512 46.512 0 00-32.897-13.618z" fill="#1040E2" stroke="#2E353A" stroke-linecap="round" stroke-linejoin="round"/><path d="M256.472 168.785l8.098 20.003h106.761V121.06c0-1.026 0-2.052-.108-3.064H256.499l-.027 50.789z" fill="#000" opacity=".3"/><path d="M324.024 117.996h-11.229m58.428 0h-33.985" stroke="#2E353A" stroke-linecap="round" stroke-linejoin="round"/><path d="M218.1 74.55a46.525 46.525 0 0146.524 46.523v67.728h-93.048V121.06A46.524 46.524 0 01218.1 74.55z" fill="#2E353A" stroke="#2E353A" stroke-linecap="round" stroke-linejoin="round"/><path d="M264.611 181.082h-80.172v7.706h80.172v-7.706z" fill="#1040E2" stroke="#2E353A" stroke-linecap="round" stroke-linejoin="round"/><path d="M264.611 181.082H98.693v7.706H264.61v-7.706z" fill="#1040E2" stroke="#2E353A" stroke-linecap="round" stroke-linejoin="round"/><path opacity=".3" d="M264.611 181.082h-80.172v7.706h80.172v-7.706z" fill="#000"/><path d="M331.745 47.016h-33.297v23.39h33.297v-23.39z" fill="#2E353A" stroke="#2E353A" stroke-linecap="round" stroke-linejoin="round"/><path d="M301.147 47.016h-7.194v72.883h7.194V47.016z" fill="#fff" stroke="#2E353A" stroke-linecap="round" stroke-linejoin="round"/><path d="M297.543 129.793a8.098 8.098 0 008.098-8.098 8.098 8.098 0 10-16.196 0 8.099 8.099 0 008.098 8.098z" fill="#2E353A" stroke="#2E353A" stroke-linecap="round" stroke-linejoin="round"/><path d="M178.784 93.256c18.788 9.543 51.45 24.835 81.575 32.528" stroke="#fff" stroke-linecap="round" stroke-linejoin="round" stroke-dasharray="2 4"/><path d="M163.019 84.956s6.02 3.401 15.765 8.354" stroke="#2E353A" stroke-linecap="round" stroke-linejoin="round" stroke-dasharray="2 4"/><path d="M156.257 84.457l13.511-32.096-97.975-23.903 84.464 55.999z" fill="#fff" stroke="#2E353A" stroke-width="1.263" stroke-linecap="round" stroke-linejoin="round"/><path d="M162.844 56.248l-6.587 28.209-84.464-55.999 91.051 27.79z" fill="#1040E2" stroke="#2E353A" stroke-width="1.263" stroke-linecap="round" stroke-linejoin="round"/><path d="M162.844 56.248l-15.373 13.173-75.678-40.963 91.051 27.79zm6.924-3.887l13.686-5.56-111.66-18.343 97.974 23.903z" fill="#fff" stroke="#2E353A" stroke-width="1.263" stroke-linecap="round" stroke-linejoin="round"/><path d="M137.227 79.464l3.171 1.943m-20.474-12.553l10.622 6.506" stroke="#2E353A" stroke-linecap="round" stroke-linejoin="round"/><path d="M107.992 145.895v-34.809l99.581 16.008-99.581 18.801z" fill="#fff" stroke="#2E353A" stroke-width="1.263" stroke-linecap="round" stroke-linejoin="round"/><path d="M112.865 117.349l-4.873 28.546 99.581-18.801-94.708-9.745z" fill="#1040E2" stroke="#2E353A" stroke-width="1.263" stroke-linecap="round" stroke-linejoin="round"/><path d="M112.865 117.349l9.056 18.1 85.652-8.355-94.708-9.745zm-4.873-6.263l-10.446-10.447 110.027 26.454-99.581-16.007z" fill="#fff" stroke="#2E353A" stroke-width="1.263" stroke-linecap="round" stroke-linejoin="round"/><path d="M143.651 145.247l8.638-1.755m-38.979 7.923l21.717-4.413" stroke="#2E353A" stroke-linecap="round" stroke-linejoin="round"/><path d="M95.993 143.749S17.712 157.246 2.865 227.43c-14.847 70.184 63.435 74.233 76.932 40.491 13.497-33.742-45.89-47.239-59.386-14.847-13.497 32.393 26.993 87.73 82.331 90.43 45.984 2.24 174.907-51.437 255.092-65.001 0 0 59.387-16.44 151.166-12.836" stroke="#2E353A" stroke-linecap="round" stroke-linejoin="round" stroke-dasharray="2 4"/><path d="M482.451 363.749h22.5m-22.5 33.284h22.5" stroke="#2E353A" stroke-linecap="round" stroke-linejoin="round"/><path d="M8.709 396.142h471.043V364.64H8.709" fill="#fff"/><path d="M8.709 396.142h471.043V364.64H8.709" stroke="#2E353A" stroke-linecap="round" stroke-linejoin="round"/><path d="M41.452 454.179V295.698a2.873 2.873 0 01.891-2.078l12.31-11.594a2.878 2.878 0 014.05.121l10.796 11.486a2.93 2.93 0 01.77 1.957v158.589" fill="#2E353A"/><path d="M41.452 454.179V295.698a2.873 2.873 0 01.891-2.078l12.31-11.594a2.878 2.878 0 014.05.121l10.796 11.486a2.93 2.93 0 01.77 1.957v158.589" stroke="#2E353A" stroke-linecap="round" stroke-linejoin="round"/><path d="M37.957 455.528V295.697a2.833 2.833 0 01.904-2.078l12.31-11.594a2.872 2.872 0 012.049-.779 2.866 2.866 0 012 .901l10.797 11.485a2.87 2.87 0 01.77 1.957v159.939" fill="#fff"/><path d="M37.957 455.528V295.697a2.833 2.833 0 01.904-2.078l12.31-11.594a2.872 2.872 0 012.049-.779 2.866 2.866 0 012 .901l10.797 11.485a2.87 2.87 0 01.77 1.957v159.939" stroke="#2E353A" stroke-linecap="round" stroke-linejoin="round"/><path d="M145.244 454.179V295.697a2.87 2.87 0 01.89-2.078l12.323-11.594c.274-.258.596-.46.947-.594a2.864 2.864 0 013.102.716l10.798 11.485c.495.531.77 1.231.769 1.957v158.59" fill="#2E353A"/><path d="M145.244 454.179V295.697a2.87 2.87 0 01.89-2.078l12.323-11.594c.274-.258.596-.46.947-.594a2.864 2.864 0 013.102.716l10.798 11.485c.495.531.77 1.231.769 1.957v158.59" stroke="#2E353A" stroke-linecap="round" stroke-linejoin="round"/><path d="M142.328 455.529V295.698a2.83 2.83 0 01.905-2.078l12.309-11.594a2.877 2.877 0 014.049.121l10.798 11.486c.499.53.779 1.229.782 1.957v159.939" fill="#fff"/><path d="M142.328 455.529V295.698a2.83 2.83 0 01.905-2.078l12.309-11.594a2.877 2.877 0 014.049.121l10.798 11.486c.499.53.779 1.229.782 1.957v159.939" stroke="#2E353A" stroke-linecap="round" stroke-linejoin="round"/><path d="M249.616 454.179V295.698a2.826 2.826 0 01.904-2.078l12.309-11.594a2.877 2.877 0 014.049.121l10.798 11.486c.499.53.779 1.229.783 1.957v159.939" fill="#2E353A"/><path d="M249.616 454.179V295.698a2.826 2.826 0 01.904-2.078l12.309-11.594a2.877 2.877 0 014.049.121l10.798 11.486c.499.53.779 1.229.783 1.957v159.939" stroke="#2E353A" stroke-linecap="round" stroke-linejoin="round"/><path d="M246.714 455.528V295.697a2.87 2.87 0 01.891-2.078l12.322-11.594a2.875 2.875 0 012.05-.779 2.864 2.864 0 011.999.901l10.798 11.485c.495.531.77 1.231.769 1.957v159.939" fill="#fff"/><path d="M246.714 455.528V295.697a2.87 2.87 0 01.891-2.078l12.322-11.594a2.875 2.875 0 012.05-.779 2.864 2.864 0 011.999.901l10.798 11.485c.495.531.77 1.231.769 1.957v159.939" stroke="#2E353A" stroke-linecap="round" stroke-linejoin="round"/><path d="M354.001 454.179V295.698a2.87 2.87 0 01.891-2.078l12.309-11.594a2.877 2.877 0 014.049.121l10.798 11.486c.489.535.764 1.232.769 1.957v158.589" fill="#2E353A"/><path d="M354.001 454.179V295.698a2.87 2.87 0 01.891-2.078l12.309-11.594a2.877 2.877 0 014.049.121l10.798 11.486c.489.535.764 1.232.769 1.957v158.589" stroke="#2E353A" stroke-linecap="round" stroke-linejoin="round"/><path d="M351.086 455.528V295.697a2.836 2.836 0 01.904-2.078l12.309-11.594a2.875 2.875 0 012.05-.779 2.864 2.864 0 011.999.901l10.798 11.485c.495.531.77 1.231.769 1.957v159.939" fill="#fff"/><path d="M351.086 455.528V295.697a2.836 2.836 0 01.904-2.078l12.309-11.594a2.875 2.875 0 012.05-.779 2.864 2.864 0 011.999.901l10.798 11.485c.495.531.77 1.231.769 1.957v159.939" stroke="#2E353A" stroke-linecap="round" stroke-linejoin="round"/><path d="M458.373 454.179V295.697a2.87 2.87 0 01.891-2.078l12.322-11.594a2.875 2.875 0 012.05-.779 2.87 2.87 0 012 .901l10.797 11.485c.496.531.771 1.231.769 1.957v158.59" fill="#2E353A"/><path d="M458.373 454.179V295.697a2.87 2.87 0 01.891-2.078l12.322-11.594a2.875 2.875 0 012.05-.779 2.87 2.87 0 012 .901l10.797 11.485c.496.531.771 1.231.769 1.957v158.59" stroke="#2E353A" stroke-linecap="round" stroke-linejoin="round"/><path d="M455.458 455.529V295.698a2.826 2.826 0 01.904-2.078l12.309-11.594a2.877 2.877 0 014.049.121l10.798 11.486c.499.53.779 1.229.783 1.957v159.939" fill="#fff"/><path d="M455.458 455.529V295.698a2.826 2.826 0 01.904-2.078l12.309-11.594a2.877 2.877 0 014.049.121l10.798 11.486c.499.53.779 1.229.783 1.957v159.939M55.206 282.147V293.7m4.629-5.588v27.345m88.176-25.105v34.593m4.467-39.06v15.062m107.449-18.922v33.998m6.411-31.258v50.236m89.85-44.649v37.94m14.509-42.407v9.488m94.317-10.055v20.097m12.282-17.856v58.036m-22.324 26.792h-12.283m12.283 9.489h-42.975m-117.207 0h-19.53m-83.155 0h-19.53m-135.064-5.021h-19.53m19.53 8.921h-7.815m255.052-8.921h-9.488m-94.317 10.594h-9.488m-30.139 0h-9.488m361.084-5.573h-8.368m19.53 0h-5.021M66.3 323.852s-3.374 29.005-7.423 58.685c-4.05 29.679 3.374 60.047 5.398 62.747m-11.323-62.72c.648-5.79 1.187-9.448 1.187-9.448" stroke="#2E353A" stroke-linecap="round" stroke-linejoin="round"/><path d="M62.912 441.91s-12.147-2.699-12.147-24.294c0-8.868.567-17.951 1.242-25.645m112.821-102.537s2.699 2.025-2.025 24.97c-4.724 22.944-4.049 56.687 2.025 75.583m6.748-58.036s-6.748 20.245-2.024 48.589m78.957-35.781s3.374 19.57 6.748 39.802c3.375 20.232.675 48.589-2.024 55.999-2.7 7.41-5.399 13.497-5.399 13.497m13.389-9.92c-3.01 9.232-6.748-1.553-6.748-1.553m6.627-67.444s6.357 32.811 2.766 57.511m-16.709-46.712s6.749 14.172.675 27.668m125.252-25.671a92.133 92.133 0 003.549 12.147m2.025-82.305a187.346 187.346 0 00-8.098 41.841 96.512 96.512 0 001.201 21.5m-5.925-1.281s6.074 22.945 9.448 31.043c3.374 8.098 2.024 27.655-2.025 37.103m83.654-120.083s13.497 24.295.675 64.097m11.729-22.607c.081 7.585-.594 17.195-3.631 25.293-6.073 16.196-8.773 21.595-8.773 21.595m11.473-60.034s.445 2.902.715 7.369" stroke="#2E353A" stroke-linecap="round" stroke-linejoin="round"/></svg>