<svg width="521" height="462" fill="none" xmlns="http://www.w3.org/2000/svg"><g clip-path="url(#clip0)"><path d="M355.402 42.024c-7.198-3.092-14.504-5.995-21.85-8.857-31.276-12.096-63.438-22.714-96.81-27.175C172.551-2.516 108.011 14.7 69.913 70.355a156.2 156.2 0 00-23.875 57.33 156.257 156.257 0 00.347 62.11c16.236 75.72 87.007 117.249 155.227 139.948 42.839 14.247 86.631 26.88 131.806 15.806 52.897-12.983 97.952-54.055 118.606-104.24 19.526-47.456 16.611-103.486-16.33-144.115-19.311-23.761-52.441-43.195-80.292-55.17z" fill="#7292FF"/><path d="M260.606 461.911c143.802 0 260.376-6.812 260.376-15.214 0-8.402-116.574-15.214-260.376-15.214C116.804 431.483.23 438.295.23 446.697c0 8.402 116.574 15.214 260.376 15.214z" fill="#1040E2" fill-opacity=".15"/><path d="M337.474 37.052H182.932c-10.843 0-19.633 8.797-19.633 19.649v370.334c0 10.852 8.79 19.649 19.633 19.649h154.542c10.843 0 19.633-8.797 19.633-19.649V56.701c0-10.852-8.79-19.65-19.633-19.65z" fill="#1040E2"/><path opacity=".7" d="M337.474 37.052H182.932c-10.843 0-19.633 8.797-19.633 19.649v370.334c0 10.852 8.79 19.649 19.633 19.649h154.542c10.843 0 19.633-8.797 19.633-19.649V56.701c0-10.852-8.79-19.65-19.633-19.65z" fill="#fff"/><path d="M342.657 36.352H188.116c-10.843 0-19.634 8.798-19.634 19.65v370.334c0 10.852 8.791 19.649 19.634 19.649h154.541c10.844 0 19.634-8.797 19.634-19.649V56.002c0-10.852-8.79-19.65-19.634-19.65z" fill="#1040E2"/><path opacity=".2" d="M342.657 36.352H188.116c-10.843 0-19.634 8.798-19.634 19.65v370.334c0 10.852 8.791 19.649 19.634 19.649h154.541c10.844 0 19.634-8.797 19.634-19.649V56.002c0-10.852-8.79-19.65-19.634-19.65z" fill="#000"/><path d="M272.947 427.935a8.748 8.748 0 01-10.444 8.595 8.738 8.738 0 01-6.873-6.878 8.75 8.75 0 018.588-10.453 8.729 8.729 0 018.729 8.736z" fill="#1040E2"/><path opacity=".4" d="M272.947 427.935a8.748 8.748 0 01-10.444 8.595 8.738 8.738 0 01-6.873-6.878 8.75 8.75 0 018.588-10.453 8.729 8.729 0 018.729 8.736z" fill="#000"/><path d="M360.733 415.127H167.892V63.112h194.184l-1.343 352.015z" fill="#1040E2"/><path opacity=".8" d="M362.438 414.939l-194.654.228V63.137l194.48-.2.174 352.002z" fill="#fff"/><path opacity=".33" d="M153.214 69.011h-1.343V86.78h1.343V69.01zm0 22.7h-1.343v5.564h1.343v-5.564z" fill="#1040E2"/><path d="M320.365 77.68H186.598c-7.372 0-13.348 5.981-13.348 13.36v79.913c0 7.378 5.976 13.359 13.348 13.359h133.767c7.372 0 13.349-5.981 13.349-13.359V91.039c0-7.378-5.977-13.359-13.349-13.359z" fill="#fff"/><path opacity=".27" d="M204.684 118.722c9.053-3.788 13.323-14.204 9.538-23.264-3.785-9.06-14.192-13.334-23.245-9.546-9.053 3.788-13.323 14.204-9.538 23.264 3.785 9.06 14.192 13.334 23.245 9.546z" fill="#1040E2"/><path d="M212.503 102.315a14.4 14.4 0 01-1.773 6.989 14.652 14.652 0 01-18.231 6.674 14.668 14.668 0 01-7.703-6.96 14.685 14.685 0 014.776-18.831 14.655 14.655 0 0119.263 2.413 14.686 14.686 0 013.668 9.715z" fill="#fff"/><path opacity=".27" d="M210.73 109.291a14.668 14.668 0 01-12.892 7.681 14.65 14.65 0 01-7.502-2.066 14.676 14.676 0 01-5.39-5.615 23.207 23.207 0 0125.784 0zm-12.892-5.484a6.529 6.529 0 006.527-6.532 6.53 6.53 0 00-6.527-6.531 6.529 6.529 0 00-6.526 6.531 6.529 6.529 0 006.526 6.532z" fill="#1040E2"/><path d="M323.87 194.163H183.093c-5.436 0-9.843 4.411-9.843 9.851v17.62c0 5.441 4.407 9.851 9.843 9.851H323.87c5.437 0 9.844-4.41 9.844-9.851v-17.62c0-5.44-4.407-9.851-9.844-9.851z" fill="#fff"/><path opacity=".6" d="M360.988 235.101l18.975 52.334a5.512 5.512 0 01-3.29 7.029l-99.549 36.14a5.503 5.503 0 01-7.024-3.279l-18.975-52.348a5.488 5.488 0 013.29-7.016l99.55-36.153a5.502 5.502 0 017.023 3.293z" fill="#1040E2"/><path d="M357.98 231.929l-28.456 46.865a22.267 22.267 0 01-26.254 9.529l-51.863-17.714a5.482 5.482 0 013.008-2.688l99.55-36.153a5.499 5.499 0 014.015.161z" fill="#1040E2"/><path opacity=".5" d="M357.98 231.929l-28.456 46.865a22.267 22.267 0 01-26.254 9.529l-51.863-17.714a5.482 5.482 0 013.008-2.688l99.55-36.153a5.499 5.499 0 014.015.161z" fill="#fff"/><path opacity=".6" d="M329.766 325.053l-.913 47.147a4.666 4.666 0 01-4.728 4.556l-89.692-1.747a4.61 4.61 0 01-1.766-.389 4.62 4.62 0 01-2.457-2.56 4.637 4.637 0 01-.316-1.782l.899-47.147a4.726 4.726 0 011.545-3.373 4.648 4.648 0 013.183-1.183l89.692 1.734a4.66 4.66 0 014.553 4.744z" fill="#1040E2"/><path d="M328.355 321.626l-36.742 28.385a18.896 18.896 0 01-23.662-.457l-35.546-29.796a4.64 4.64 0 013.182-1.182l89.693 1.733a4.644 4.644 0 013.075 1.317z" fill="#1040E2"/><path opacity=".5" d="M328.355 321.626l-36.742 28.385a18.896 18.896 0 01-23.662-.457l-35.546-29.796a4.64 4.64 0 013.182-1.182l89.693 1.733a4.644 4.644 0 013.075 1.317z" fill="#fff"/><path d="M239.294 47.44a3.096 3.096 0 011.916-2.846 3.086 3.086 0 014.203 2.262 3.096 3.096 0 01-1.316 3.17 3.085 3.085 0 01-4.572-1.398 3.097 3.097 0 01-.231-1.188zm13.765-3.09h25.663a3.102 3.102 0 013.088 3.09 3.106 3.106 0 01-3.088 3.105h-25.663a3.1 3.1 0 01-3.089-3.105 3.106 3.106 0 013.089-3.09z" fill="#1040E2"/><path opacity=".4" d="M239.294 47.44a3.096 3.096 0 011.916-2.846 3.086 3.086 0 014.203 2.262 3.096 3.096 0 01-1.316 3.17 3.085 3.085 0 01-4.572-1.398 3.097 3.097 0 01-.231-1.188zm13.765-3.09h25.663a3.102 3.102 0 013.088 3.09 3.106 3.106 0 01-3.088 3.105h-25.663a3.1 3.1 0 01-3.089-3.105 3.106 3.106 0 013.089-3.09z" fill="#000"/><path d="M362.559 106.629h-12.798a5.387 5.387 0 00-5.385 5.39v39.016a5.387 5.387 0 005.385 5.389h12.798a5.387 5.387 0 005.385-5.389v-39.016a5.387 5.387 0 00-5.385-5.39z" fill="#1040E2"/><path opacity=".8" d="M362.559 106.629h-12.798a5.387 5.387 0 00-5.385 5.39v39.016a5.387 5.387 0 005.385 5.389h12.798a5.387 5.387 0 005.385-5.389v-39.016a5.387 5.387 0 00-5.385-5.39z" fill="#fff"/><path d="M363.902 170.791h-15.483a4.044 4.044 0 00-4.043 4.045v19.999a4.044 4.044 0 004.043 4.045h15.483a4.043 4.043 0 004.042-4.045v-19.999a4.043 4.043 0 00-4.042-4.045z" fill="#1040E2"/><path opacity=".8" d="M363.902 170.791h-15.483a4.044 4.044 0 00-4.043 4.045v19.999a4.044 4.044 0 004.043 4.045h15.483a4.043 4.043 0 004.042-4.045v-19.999a4.043 4.043 0 00-4.042-4.045z" fill="#fff"/><path d="M192.091 405.289l9.87.954 10.273-23.506-9.87-.967-10.273 23.519zM91.897 333.292l5.626 8.534 21.567-10.308-5.64-8.548-21.553 10.322z" fill="#E4897B"/><path d="M212.234 382.737l-5.291 12.123h-10.3l5.708-13.09 9.883.967zm-98.784-59.754l5.627 8.535-11.106 5.308-5.64-8.534 11.119-5.309z" fill="#CE6F64"/><path d="M303.082 164.703l.322.725.416.847c.269.565.578 1.142.887 1.72.631 1.143 1.343 2.299 2.014 3.401a62.704 62.704 0 004.66 6.478 70.222 70.222 0 005.493 5.806c1.007.887 1.987 1.801 3.035 2.688l1.571 1.236.362.296a2.745 2.745 0 00-.523-.108 2.29 2.29 0 00-1.142.175c-.219.064-.415.19-.564.363-.094.134.148-.081.349-.43.532-.98.951-2.017 1.249-3.091a67.16 67.16 0 001.732-7.943c.457-2.769.833-5.605 1.129-8.441.295-2.835.604-5.725.872-8.547l5.184-.081c.322 2.997.457 5.914.577 8.897.121 2.984.068 5.941 0 8.965a61.44 61.44 0 01-1.06 9.26 22.995 22.995 0 01-1.625 5.107 10.748 10.748 0 01-2.176 3.104 7.37 7.37 0 01-2.417 1.519 7.047 7.047 0 01-3.277.403 7.88 7.88 0 01-2.578-.806 9.92 9.92 0 01-.94-.538l-.51-.336-1.961-1.344c-1.343-.887-2.525-1.868-3.747-2.849a65.022 65.022 0 01-6.781-6.559 67.932 67.932 0 01-5.735-7.512 92.358 92.358 0 01-2.417-4.032 54.065 54.065 0 01-1.088-2.151l-.51-1.142a32.894 32.894 0 01-.524-1.277l9.723-3.803z" fill="#E4897B"/><path d="M307.621 171.651l-9.024 12.459 3.733 3.669 9.602-11.558-4.311-4.57z" fill="#F5F5F5"/><path d="M293.467 155.214c10.165 2.688 17.175 16.962 17.175 16.962l-11.737 16.463s-14.127-17.781-13.764-23.398c.349-5.887 2.202-11.68 8.326-10.027z" fill="#1040E2"/><path opacity=".7" d="M293.467 155.214c10.165 2.688 17.175 16.962 17.175 16.962l-11.737 16.463s-14.127-17.781-13.764-23.398c.349-5.887 2.202-11.68 8.326-10.027z" fill="#fff"/><path d="M302.236 160.469s3.344 3.952-35.359 50.83l-35.815-20.993c9.132-14.233 14.409-23.224 24.951-57.254a122.06 122.06 0 0116.41 6.895 150.626 150.626 0 0116.276 9.528c6.608 4.731 13.537 10.994 13.537 10.994z" fill="#1040E2"/><path opacity=".7" d="M302.236 160.469s3.344 3.952-35.359 50.83l-35.815-20.993c9.132-14.233 14.409-23.224 24.951-57.254a122.06 122.06 0 0116.41 6.895 150.626 150.626 0 0116.276 9.528c6.608 4.731 13.537 10.994 13.537 10.994z" fill="#fff"/><path d="M297.59 156.424c-2.525-2.097-5.762-4.691-8.891-6.948a132.784 132.784 0 00-16.276-9.529 101.987 101.987 0 00-9.185-4.207c-.443.739-.081 2.997 1.276 6.303 5.156 6.653 17.135 16.451 27.126 18.399 4.647-.672 6.097-2.15 5.95-4.018z" fill="#F5F5F5"/><path d="M264.514 142.043a72.887 72.887 0 0011.885 18.439 76.55 76.55 0 0015.241 0c-9.991-1.989-21.969-11.786-27.126-18.439z" fill="#F5F5F5"/><path d="M266.918 211.299s.577 92.089-15.739 118.673c-16.975 27.646-39.106 61.367-39.106 61.367l-19.163-.928s22.346-49.888 30.779-73.045c11.616-31.92 16.988-121.442 16.988-121.442l26.241 15.375z" fill="#1040E2"/><path opacity=".4" d="M266.918 211.299s.577 92.089-15.739 118.673c-16.975 27.646-39.106 61.367-39.106 61.367l-19.163-.928s22.346-49.888 30.779-73.045c11.616-31.92 16.988-121.442 16.988-121.442l26.241 15.375z" fill="#000"/><path opacity=".2" d="M246.532 213.865a38.796 38.796 0 00-7.909 9.207 1393.547 1393.547 0 01-2.189 22.619c5.841-7.943 10.461-21.88 10.098-31.826z" fill="#000"/><path d="M257.45 205.802s-40.542 57.603-65.802 88.703c-20.413 25.065-79.501 43.007-79.501 43.007l-7.211-12.096s47.002-26.261 61.022-43.222c44.88-54.297 44.316-82.453 65.158-91.74l26.334 15.348z" fill="#1040E2"/><path opacity=".4" d="M257.45 205.802s-40.542 57.603-65.802 88.703c-20.413 25.065-79.501 43.007-79.501 43.007l-7.211-12.096s47.002-26.261 61.022-43.222c44.88-54.297 44.316-82.453 65.158-91.74l26.334 15.348z" fill="#000"/><path d="M325.065 161.141l-2.686-10.752 10.247 2.984s-.282 7.23-3.827 9.582l-3.734-1.814z" fill="#E4897B"/><path d="M325.643 141.761l7.198 3.642-.175 8.024-10.246-2.984 3.223-8.682zm-128.718 3.951l-9.4-5.779 9.4-5.027s4.821 5.376 3.935 9.543l-3.935 1.263z" fill="#E4897B"/><path d="M183.805 131.453l7.695-2.42 5.479 5.874-9.441 5.026-3.733-8.48z" fill="#E4897B"/><path d="M99.887 340.926l-3.344-10.994a.822.822 0 00-.913-.564l-9.065 1.344a1.623 1.623 0 00-1.1.765 1.642 1.642 0 00-.162 1.331c1.235 3.804 2.014 5.591 3.491 10.416.9 2.984 2.471 9.69 3.72 13.803 1.25 4.112 5.372 3.091 5.224 1.263-.685-8.171.658-12.351 2.041-15.59a2.69 2.69 0 00.108-1.774zm103.39 62.266h-12.086a.997.997 0 00-.953.74l-2.686 9.609a1.49 1.49 0 001.477 1.909c4.243-.068 6.312-.31 11.643-.31 3.277 0 11.764.336 16.289.336 4.526 0 5.372-4.488 3.532-4.892-8.232-1.814-12.959-4.327-15.497-6.72a2.512 2.512 0 00-1.719-.672zm28.497-215.306l-3.492 2.272c-.268.174-.121.604.296.846l37.601 22.001c.322.188.685.188.819 0l2.203-3.024c.147-.215 0-.564-.376-.766l-36.259-21.248a.75.75 0 00-.792-.081z" fill="#263238"/><path d="M253.072 148.467c-2.538 2.03-4.955 3.669-7.52 5.376-2.565 1.707-5.17 3.172-7.856 4.624a91.375 91.375 0 01-16.934 7.163c-.725.255-1.504.43-2.243.632-.738.201-1.45.403-2.337.591a17.33 17.33 0 01-5.868.296 14.405 14.405 0 01-5.855-2.043 16.21 16.21 0 01-4.284-3.951 26.062 26.062 0 01-4.19-9.234 32.95 32.95 0 01-.859-4.663 33.725 33.725 0 01-.309-4.731l5.157-.444a48.457 48.457 0 002.511 7.675 19.924 19.924 0 003.908 6.155 6.62 6.62 0 004.754 2.231 9.49 9.49 0 002.793-.443c1.168-.377 2.538-.807 3.787-1.264a100.194 100.194 0 0014.946-7.083c2.444-1.344 4.781-2.889 7.145-4.381 2.363-1.492 4.686-3.172 6.714-4.704l6.54 8.198z" fill="#E4897B"/><path d="M236.46 144.946l4.647 14.058 4.364-2.62-4.082-13.937-4.929 2.499z" fill="#F5F5F5"/><path d="M100.921 346.691a1.341 1.341 0 01-.645-.175c-1.114-.672-1.423-3.05-1.517-4.408a.256.256 0 01.134-.228.274.274 0 01.134-.034c.047 0 .093.011.135.034.322.269 3.142 2.688 2.967 3.951a.815.815 0 01-.51.659 1.532 1.532 0 01-.698.201zm-1.625-4.032c.174 1.815.618 3.078 1.222 3.441a.966.966 0 00.9 0c.188-.094.228-.202.228-.296.094-.685-1.249-2.15-2.35-3.145z" fill="#1040E2"/><path d="M102.613 343.775a7.01 7.01 0 01-3.774-1.505.214.214 0 010-.229.24.24 0 01.161-.174c.121 0 2.941-.887 4.204-.108a1.274 1.274 0 01.604.887.848.848 0 01-.403.981c-.248.114-.52.164-.792.148zm-3.089-1.572c1.034.712 2.955 1.344 3.586.994.094 0 .215-.161.161-.47a.772.772 0 00-.39-.551 5.512 5.512 0 00-3.357.027zm109.125 62.992a15.77 15.77 0 01-3.317-.417.255.255 0 01-.188-.215.264.264 0 01.147-.242c.806-.389 4.942-2.258 6.044-1.518a.715.715 0 01.295.672 1.479 1.479 0 01-.604 1.156 4.03 4.03 0 01-2.377.564zm-2.471-.739c1.343.242 3.599.511 4.552-.215a.982.982 0 00.417-.807.245.245 0 00-.081-.228c-.604-.403-3.089.457-4.888 1.25z" fill="#1040E2"/><path d="M205.385 404.778a.197.197 0 01-.147 0 .206.206 0 01-.08-.108.212.212 0 01-.001-.134c0-.188 1.048-4.583 3.465-4.274.631.068.792.39.832.632.162 1.156-2.605 3.36-4.028 3.924l-.041-.04zm3.022-4.099c-1.45 0-2.323 2.352-2.686 3.414 1.343-.766 3.304-2.513 3.21-3.185 0-.108-.148-.189-.403-.216l-.121-.013zm25.864-205.871l-.967-.565c-.188-.12-.282-.309-.201-.416l2.901-3.911c.08-.108.309-.108.497 0l.98.578c.188.107.282.295.201.403l-2.9 3.911c-.081.107-.309.107-.511 0zm28.94 16.948l-.967-.578c-.188-.108-.282-.296-.201-.403l2.9-3.911c.081-.108.309-.108.497 0l.981.564c.188.121.282.309.188.417l-2.888 3.911c-.08.107-.309.107-.51 0zm-14.463-8.481l-.98-.564c-.188-.108-.282-.296-.188-.417l2.887-3.898c.094-.121.309-.121.51 0l.967.565c.202.107.282.296.202.416l-2.901 3.898c-.081.121-.309.121-.497 0z" fill="#1040E2"/><path opacity=".4" d="M234.271 194.808l-.967-.565c-.188-.12-.282-.309-.201-.416l2.901-3.911c.08-.108.309-.108.497 0l.98.578c.188.107.282.295.201.403l-2.9 3.911c-.081.107-.309.107-.511 0zm28.94 16.948l-.967-.578c-.188-.108-.282-.296-.201-.403l2.9-3.911c.081-.108.309-.108.497 0l.981.564c.188.121.282.309.188.417l-2.888 3.911c-.08.107-.309.107-.51 0zm-14.463-8.481l-.98-.564c-.188-.108-.282-.296-.188-.417l2.887-3.898c.094-.121.309-.121.51 0l.967.565c.202.107.282.296.202.416l-2.901 3.898c-.081.121-.309.121-.497 0z" fill="#000"/><path d="M275.62 142.634c0-8.064-2.686-39.795 10.528-42.483 4.176-4.408 24.871-4.865 28.04 6.344 4.19 14.716-2.014 50.627-2.014 50.627l-36.554-14.488z" fill="#263238"/><path d="M314.926 157.203a.34.34 0 01-.286-.244.346.346 0 01-.009-.132c0-.363 4.364-36.288-.457-50.507-1.343-3.898-5.076-6.626-10.609-7.701-7.198-1.411-14.986.35-17.149 2.849a.336.336 0 01-.47 0 .35.35 0 010-.484c2.525-2.93 10.999-4.394 17.794-3.064 5.774 1.116 9.723 4.032 11.119 8.145 4.862 14.394.524 50.439.484 50.802a.349.349 0 01-.417.336z" fill="#263238"/><path d="M284.778 122.569c-2.028 5.832-6.62 16.033-12.328 17.377 0 0-1.678 6.156 8.058 11.854 10.743 6.263 8.218-2.325 8.218-2.325-5.022-4.811-2.35-9.058 1.048-12.526l-4.996-14.38z" fill="#E4897B"/><path d="M286.793 128.429l2.954 8.507a20.776 20.776 0 00-2.189 2.594c-2.041-1.626-4.23-5.591-3.102-8.064a10.745 10.745 0 012.337-3.037z" fill="#CE6F64"/><path d="M284.859 110.943c-2.78 9.771-4.163 13.843-1.061 20.442 4.66 9.946 17.243 11.223 22.829 2.487 5.076-7.863 8.756-22.512.752-29.568a13.826 13.826 0 00-22.52 6.639z" fill="#E4897B"/><path d="M281.998 117.099c6.943 2.594 23.26-6.021 27.705-11.303.59-8.144-18.492-4.932-18.492-4.932s-10.179-3.132-9.213 16.235z" fill="#263238"/><path d="M280.347 119.048a7.407 7.407 0 00.899 5.591c1.343 2.204 3.814 1.343 4.888-.834.967-1.989 1.411-5.55-.671-6.988a3.324 3.324 0 00-3.162-.273 3.322 3.322 0 00-1.954 2.504z" fill="#E4897B"/><path d="M298.409 118.725c-.282.78-.094 1.559.416 1.734.51.175 1.141-.309 1.423-1.089.282-.779.081-1.545-.429-1.733-.511-.189-1.142.309-1.41 1.088zm8.782 3.105c-.268.779-.08 1.545.43 1.733.51.188 1.141-.309 1.41-1.088.269-.78.081-1.559-.416-1.734-.497-.175-1.142.309-1.424 1.089z" fill="#263238"/><path d="M308.373 120.701l2.055.121s-1.478 1.129-2.055-.121z" fill="#263238"/><path d="M304.398 122.341a22.407 22.407 0 001.021 5.94 3.51 3.51 0 01-2.955-.457l1.934-5.483z" fill="#DE5753"/><path d="M298.731 129.947h-.081a6.966 6.966 0 01-4.485-4.529.257.257 0 01.188-.296.234.234 0 01.183.032.225.225 0 01.099.157 6.632 6.632 0 004.177 4.179.243.243 0 01-.081.471v-.014zm-.712-14.3a.485.485 0 01-.476-.366.487.487 0 01.248-.548 4.817 4.817 0 014.405-.174.48.48 0 01.242.677.482.482 0 01-.699.169 3.854 3.854 0 00-3.492.189.472.472 0 01-.228.053zm14.745 3.562a.469.469 0 01-.456-.363 3.865 3.865 0 00-2.229-2.688.497.497 0 01-.309-.618.467.467 0 01.617-.296 4.781 4.781 0 012.847 3.373.478.478 0 01-.349.592h-.121zm-13.214-1.599l2.055.121s-1.437 1.115-2.055-.121z" fill="#263238"/><path d="M256.04 133.052c-4.23-1.008-17.243 8.911-17.243 8.911l5.519 17.619s13.604-7.54 14.866-13.09c1.249-5.753 1.679-12.284-3.142-13.44z" fill="#1040E2"/><path opacity=".7" d="M256.04 133.052c-4.23-1.008-17.243 8.911-17.243 8.911l5.519 17.619s13.604-7.54 14.866-13.09c1.249-5.753 1.679-12.284-3.142-13.44z" fill="#fff"/><path d="M411.012 20.923h-99.644a16.11 16.11 0 00-11.395 4.724 16.135 16.135 0 00-4.72 11.404v30.912c0 4.277 1.698 8.38 4.72 11.404a16.108 16.108 0 0011.395 4.724h8.326V99.95l15.846-15.86h75.472c4.273 0 8.372-1.699 11.395-4.723a16.134 16.134 0 004.719-11.404V37.05c0-4.277-1.697-8.38-4.719-11.404a16.111 16.111 0 00-11.395-4.724z" fill="#1040E2"/><path opacity=".3" d="M411.012 20.923h-99.644a16.11 16.11 0 00-11.395 4.724 16.135 16.135 0 00-4.72 11.404v30.912c0 4.277 1.698 8.38 4.72 11.404a16.108 16.108 0 0011.395 4.724h8.326V99.95l15.846-15.86h75.472c4.273 0 8.372-1.699 11.395-4.723a16.134 16.134 0 004.719-11.404V37.05c0-4.277-1.697-8.38-4.719-11.404a16.111 16.111 0 00-11.395-4.724z" fill="#000"/><path opacity=".54" d="M408.675 33.772h-94.998a3.695 3.695 0 00-3.693 3.696 3.695 3.695 0 003.693 3.696h94.998a3.695 3.695 0 003.693-3.696 3.695 3.695 0 00-3.693-3.696zm-.014 22.082h-60.887a3.718 3.718 0 01-3.707-3.71 3.712 3.712 0 013.707-3.695h60.887a3.693 3.693 0 013.693 3.695 3.708 3.708 0 01-3.693 3.71zm-78.963 0h-16.021a3.705 3.705 0 01-3.693-3.71 3.696 3.696 0 013.693-3.695h16.021a3.693 3.693 0 013.693 3.695 3.708 3.708 0 01-3.693 3.71zm55.247 14.676h-71.268a3.692 3.692 0 01-3.693-3.696 3.712 3.712 0 013.693-3.71h71.268a3.707 3.707 0 012.612 6.323 3.693 3.693 0 01-2.612 1.083z" fill="#F5F5F5"/></g><defs><clipPath id="clip0"><path fill="#fff" d="M0 0h521v462H0z"/></clipPath></defs></svg>