<svg width="521" height="491" fill="none" xmlns="http://www.w3.org/2000/svg"><path d="M280.221 12.214c-21.582-14.38-54.28-15.175-76.888-7.001-40.468 14.622-35.073 47.212-70.145 70.144C98.116 98.29 64.393 90.195 30.67 119.953-3.053 149.71-6.102 206.028 7.738 232.372c13.84 26.345 29.676 45.675 16.187 91.012-13.489 45.338-12.14 98 41.817 125.72 53.957 27.721 95.774-31.376 130.846-19.222s101.169 65.963 174.011 49.91c72.843-16.052 40.468-71.277 87.681-86.992 47.212-15.715 74.191-69.969 58.004-127.258-16.188-57.288-56.655-68.309-47.213-104.339 7.123-27.208 16.673-53.391-1.484-79.587-23.431-33.804-63.534-48.305-102.383-44.879-14.474 1.35-31.026 1.794-46.147-1.713-17.185-4.02-25.131-13.664-38.836-22.81z" fill="#1040E2"/><path opacity=".7" d="M280.221 12.214c-21.582-14.38-54.28-15.175-76.888-7.001-40.468 14.622-35.073 47.212-70.145 70.144C98.116 98.29 64.393 90.195 30.67 119.953-3.053 149.71-6.102 206.028 7.738 232.372c13.84 26.345 29.676 45.675 16.187 91.012-13.489 45.338-12.14 98 41.817 125.72 53.957 27.721 95.774-31.376 130.846-19.222s101.169 65.963 174.011 49.91c72.843-16.052 40.468-71.277 87.681-86.992 47.212-15.715 74.191-69.969 58.004-127.258-16.188-57.288-56.655-68.309-47.213-104.339 7.123-27.208 16.673-53.391-1.484-79.587-23.431-33.804-63.534-48.305-102.383-44.879-14.474 1.35-31.026 1.794-46.147-1.713-17.185-4.02-25.131-13.664-38.836-22.81z" fill="#fff"/><path d="M488.887 213.029l-226.849 53.727-.216-.148L468.545 163.55c.162-.782.31-1.565.526-2.374 3.305-12.64 7.136-25.063 8.471-37.365L261.943 265.569h-.242L452.533 64.417a104.915 104.915 0 00-28.408-18.358L261.458 264.49h-.256l98.862-227.388a160.711 160.711 0 01-31.457-.459L260.635 263.64l-.243.122L275.945 9.61A80.936 80.936 0 00244.299.438l15.257 262.69-.175.189-73.692-248.783c-10.414 7.783-16.282 17.536-22.554 27.6l95.247 220.886-.108.229L123.382 80.996a145.86 145.86 0 01-28.328 10.44L257.29 263.303v.27L34.905 116.418c-1.348 1.12-2.819 2.28-4.235 3.521a82.467 82.467 0 00-17.428 21.947L256.25 263.978l.081.242L.279 202.75c.795 11.506 3.412 21.852 7.46 29.609.674 1.349 1.348 2.563 2.036 3.817l245.788 28.759.148.216-226.62 25.819a106.211 106.211 0 01-4.356 29.676l230.558-54.605.216.149-237.56 118.449a84.984 84.984 0 0011.048 31.511l226.337-148.881h.242L78.328 454.109c14.15 4.047 27.437 2.698 39.968-1.093l137.523-184.668h.257l-69.524 159.848a30.822 30.822 0 0110.036 1.673 112.766 112.766 0 0110.616 4.397l49.438-165.068.243-.121-11.318 184.991c7.433 3.791 15.297 7.608 23.512 11.17l-11.358-195.527.176-.189 62.617 211.377a141.202 141.202 0 0030.094 1.578l-91.727-212.686.108-.229 144.929 195.864c9.132-7.095 14.245-15.566 18.035-24.28L259.987 269.535v-.27l191.09 126.476a53.055 53.055 0 017.135-2.968 86.013 86.013 0 0024.281-12.639L261.026 268.861l-.081-.243 255.649 61.363a110.796 110.796 0 004.384-31.741l-259.264-30.337-.148-.216 244.628-27.869a180.036 180.036 0 00-17.307-26.789zm-233.472 53.012l.782-.188-.58.296-.202-.108zm.296 1.161h-.242l.688-.459-.446.459zm.432.944h-.216l.486-.648-.27.648zm-.202-3.076l-.149-.162.81.095-.661.067zm.998 3.777l-.189.122.229-.783-.04.661zm-.391-4.64l-.081-.202.728.364-.647-.162zm3.075-.958v.81l-.189-.621.189-.189zm-1.119-.135l.323.756-.391-.526.068-.23zm-1.093.27l.553.594-.539-.365-.014-.229zm.351 6.097v-.809l.189.62-.189.189zm1.119.135l-.323-.755.391.526-.068.229zm-.121-2.118h-.391l-.351-.175-.27-.283-.148-.365v-.391l.108-.377.243-.311.323-.216.378-.094h.391l.351.175.27.284.148.364v.391l-.108.378-.243.31-.323.216-.378.094zm.661 1.255l.54.364v.229l-.54-.593zm2.199-3.17h.243l-.688.458.445-.458zm-.432-.944h.216l-.486.647.27-.647zm-.742-.756l.189-.121-.229.769.04-.648zm-.256 4.479l.647.161.081.203-.728-.364zm.593-.634l.553.04.149.162-.702-.202zm.351-.796l.58-.297.202.108-.782.189z" fill="#F2F7FF"/><path d="M255.941 490.503c116.591 0 211.107-4.868 211.107-10.872 0-6.005-94.516-10.873-211.107-10.873-116.592 0-211.107 4.868-211.107 10.873 0 6.004 94.515 10.872 211.107 10.872z" fill="#D0DCFB"/><path d="M131.624 286.855h260.761a5.79 5.79 0 015.787 5.787v167.402H125.823V292.642a5.778 5.778 0 011.7-4.096 5.78 5.78 0 014.101-1.691z" fill="#1040E2" stroke="#263238" stroke-linecap="round" stroke-linejoin="round"/><path d="M145.612 299.994h232.784a5.786 5.786 0 015.787 5.787v156.597H139.812V305.795a5.776 5.776 0 011.695-4.106 5.781 5.781 0 014.105-1.695z" fill="#879FF0"/><path d="M395.838 474.033H116.044c-12.883 0-23.323-7.797-23.323-17.415h326.44c0 9.618-10.441 17.415-23.323 17.415z" fill="#1040E2" stroke="#263238" stroke-linecap="round" stroke-linejoin="round"/><g clip-path="url(#clip0)"><path d="M211.222 377.7v-3.815l-19.23-10.918-19.23 10.918v22.23l19.23 10.918 19.23-10.918 3.978-2.236v4.604l-23.208 13.154-23.209-13.154v-26.966l23.209-13.153 23.208 13.153v8.55l-3.978 2.237-19.23 10.917v-4.604l19.23-10.917z" fill="#fff"/><path d="M191.992 397.825l-8.621-4.867v4.604l8.621 4.867 27.85-15.785v-4.603l-27.85 15.784z" fill="#6BBF59"/><path d="M232.773 380.396h-3.117v-3.749h3.117v-.92c0-1.184.199-2.368.597-3.486a9.406 9.406 0 011.724-2.96c.796-.855 1.724-1.512 2.851-2.039 1.127-.526 2.387-.789 3.912-.789 1.658 0 3.183.263 4.51.789a18.72 18.72 0 013.448 1.776l-1.99 3.617c-.663-.591-1.525-1.052-2.519-1.446a8.206 8.206 0 00-3.117-.592c-.796 0-1.459.131-1.989.394-.531.263-.995.658-1.393 1.118a5.924 5.924 0 00-.796 1.579 5.524 5.524 0 00-.265 1.776v1.052h12.201v22.493h-4.907v-18.613h-7.294v18.744h-4.907v-18.744h-.066zm43.036 18.744h-4.907v-12.89c0-2.171-.332-3.749-1.061-4.736-.663-.986-1.724-1.447-3.117-1.447-.729 0-1.392.132-2.122.395a7.385 7.385 0 00-1.989 1.118 8.147 8.147 0 00-1.658 1.71 8.454 8.454 0 00-1.127 2.17v13.68h-4.907v-23.019h4.443v4.604c.862-1.578 2.188-2.762 3.846-3.683 1.658-.921 3.581-1.315 5.57-1.315 1.392 0 2.52.263 3.448.723.928.46 1.591 1.184 2.122 2.039.53.855.862 1.841 1.061 3.025.199 1.118.331 2.302.331 3.618v14.008h.067zm14.305.388c-1.857 0-3.714-.329-5.57-.921-1.857-.592-3.448-1.447-4.775-2.565l1.923-3.091c1.393.987 2.785 1.776 4.112 2.302 1.392.526 2.785.789 4.177.789 1.459 0 2.586-.263 3.448-.855.862-.592 1.26-1.381 1.26-2.367 0-.987-.464-1.645-1.392-2.105-.929-.46-2.454-.921-4.443-1.447-1.459-.395-2.719-.723-3.714-1.118a8.93 8.93 0 01-2.519-1.25c-.663-.46-1.128-.986-1.393-1.644a5.59 5.59 0 01-.464-2.236c0-1.184.199-2.236.663-3.157a6.526 6.526 0 011.923-2.302c.796-.658 1.79-1.118 2.851-1.447 1.128-.329 2.255-.46 3.581-.46 1.724 0 3.382.263 4.907.789s2.852 1.315 4.045 2.302l-2.055 2.894c-2.189-1.71-4.443-2.565-6.897-2.565-1.26 0-2.254.263-3.116.789-.862.526-1.26 1.315-1.26 2.434 0 .46.066.855.265 1.183.199.329.464.592.862.855.398.263.928.461 1.525.658.663.197 1.459.395 2.387.658 1.592.394 2.918.789 4.045 1.118 1.128.394 2.056.855 2.852 1.315a5.962 5.962 0 011.657 1.776c.332.658.531 1.513.531 2.499 0 2.236-.862 3.946-2.52 5.196-1.724 1.315-4.045 1.973-6.896 1.973zm32.709-.388h-4.907v-12.89c0-2.105-.398-3.683-1.127-4.67-.73-.987-1.857-1.513-3.249-1.513-.663 0-1.393.132-2.056.395a8.142 8.142 0 00-1.923 1.118c-.597.46-1.127 1.052-1.591 1.71-.465.658-.863 1.381-1.061 2.17v13.68h-4.907v-32.161h4.907v13.746a9.323 9.323 0 013.647-3.683 10.03 10.03 0 014.973-1.315c1.459 0 2.652.263 3.581.789a6.685 6.685 0 012.254 2.039c.531.855.929 1.841 1.194 2.959.199 1.118.331 2.302.331 3.618v14.008h-.066zm4.973-26.833v-5.328h4.907v5.328h-4.907zm0 26.833v-23.019h4.907v23.019h-4.907zm23.076.461c-1.856 0-3.514-.461-4.907-1.316-1.392-.855-2.52-2.038-3.382-3.42v13.68h-4.907v-32.424h4.311v4.144a9.662 9.662 0 013.448-3.289c1.392-.855 2.984-1.249 4.774-1.249 1.592 0 3.05.328 4.377.986 1.326.658 2.52 1.513 3.448 2.631.995 1.118 1.724 2.368 2.321 3.814.53 1.447.795 2.96.795 4.539 0 1.644-.265 3.222-.729 4.669-.464 1.447-1.194 2.697-2.122 3.815a11.188 11.188 0 01-3.249 2.565c-1.26.657-2.653.855-4.178.855zm-1.591-4.144c1.061 0 1.989-.197 2.851-.657a7.203 7.203 0 002.188-1.776c.597-.724 1.061-1.579 1.393-2.499.332-.921.464-1.908.464-2.894 0-1.053-.199-2.039-.53-3.026-.398-.92-.862-1.775-1.525-2.499a6.495 6.495 0 00-2.321-1.644c-.862-.395-1.857-.592-2.918-.592-.597 0-1.26.132-1.923.329-.663.263-1.326.526-1.923.986a6.39 6.39 0 00-1.525 1.447c-.464.526-.73 1.118-.929 1.776v6.051a7.312 7.312 0 001.128 1.973 8.968 8.968 0 001.591 1.578c.597.461 1.194.79 1.857 1.053.729.263 1.392.394 2.122.394z" fill="#fff"/></g><path d="M260.837 127.385c-17.967 17.091-63.925 34.357-117.518 70.981 0 0 3.345 123.75 117.518 191.399v-262.38zm0 0c17.955 17.091 63.926 34.357 117.519 70.981 0 0-3.345 123.75-117.519 191.399v-262.38z" fill="#1040E2"/><path d="M260.837 137.92c-21.677 15.365-59.245 30.014-108.899 63.94 0 0 3.103 114.658 108.899 177.37 105.797-62.685 108.899-177.37 108.899-177.37-49.667-33.912-87.06-48.575-108.899-63.94z" fill="#D0DCFB"/><path d="M351.175 189.679c-75.756 22.931-133.544 89.501-159.821 124.614a217.04 217.04 0 0069.483 64.937c105.797-62.685 108.899-177.37 108.899-177.37a626.968 626.968 0 00-18.561-12.181z" fill="#1040E2"/><path d="M293.628 251h-65.213a5.473 5.473 0 01-3.829-1.554 5.253 5.253 0 01-1.586-3.753v-30.079c.168-9.767 4.246-19.078 11.354-25.927C241.462 182.838 251.031 179 261 179c9.968 0 19.538 3.838 26.646 10.687 7.108 6.849 11.186 16.16 11.354 25.927v30.079c0 1.4-.565 2.744-1.571 3.738a5.468 5.468 0 01-3.801 1.569zm-59.754-10.614h54.338v-24.772c-.142-6.969-3.066-13.606-8.146-18.485-5.08-4.879-11.91-7.613-19.023-7.613-7.113 0-13.943 2.734-19.022 7.613-5.08 4.879-8.005 11.516-8.147 18.485v24.772z" fill="#fff"/><path d="M302 236h-82a3 3 0 00-3 3v64a3 3 0 003 3h82a3 3 0 003-3v-64a3 3 0 00-3-3z" fill="#fff"/><path d="M270 264.059a9.11 9.11 0 00-1.222-4.558 9.037 9.037 0 00-3.334-3.32 8.957 8.957 0 00-9.056.099 9.025 9.025 0 00-3.262 3.392 9.104 9.104 0 00.196 9.113 9.015 9.015 0 003.404 3.247L255.216 288h11.568l-1.511-15.968a9.007 9.007 0 003.459-3.329 9.089 9.089 0 001.268-4.644z" fill="#1040E2"/><path d="M464.417 254.4l-.162-2.023" stroke="#263238" stroke-linecap="round" stroke-linejoin="round"/><path d="M463.864 248.344A209.079 209.079 0 00260.623 61.279 209.086 209.086 0 0049.204 239.05a177.456 177.456 0 00-1.349 11.533" stroke="#263238" stroke-linecap="round" stroke-linejoin="round" stroke-dasharray="3.01 3.01"/><path d="M47.612 252.579l-.162 2.01" stroke="#263238" stroke-linecap="round" stroke-linejoin="round"/><path d="M94.056 219.247l11.951-48.629H69.748l24.308 48.629z" fill="#263238" stroke="#263238" stroke-linecap="round" stroke-linejoin="round"/><path d="M94.056 219.247l2.657-46.78h-23.08l20.423 46.78z" fill="#1040E2" stroke="#263238" stroke-linecap="round" stroke-linejoin="round"/><path d="M94.056 219.247l-2.469-50.423h-23.08l25.549 50.423z" fill="#1040E2" stroke="#263238" stroke-linecap="round" stroke-linejoin="round"/><path d="M50.971 166.491l-5.949-6.731H13.7l14.69 59.487h65.666l-10.414-52.756h-32.67zm112.784-92.064H85.531a4.95 4.95 0 00-4.95 4.95v42.262a4.951 4.951 0 004.95 4.951h78.224a4.951 4.951 0 004.951-4.951V79.377a4.951 4.951 0 00-4.951-4.95z" fill="#263238" stroke="#263238" stroke-linecap="round" stroke-linejoin="round"/><path d="M168.706 84.314H80.58V103.2h88.126V84.314z" fill="#1040E2" stroke="#263238" stroke-linecap="round" stroke-linejoin="round"/><path d="M150.104 118.253a3.682 3.682 0 10-7.364 0 3.682 3.682 0 007.364 0zm10.238 0a3.69 3.69 0 00-.62-2.046 3.69 3.69 0 00-3.781-1.566 3.682 3.682 0 104.401 3.612z" fill="#fff" stroke="#263238" stroke-linecap="round" stroke-linejoin="round"/><path d="M309.992 39.476h-94.371v61.187h94.371V39.476z" fill="#1040E2" stroke="#263238" stroke-linecap="round" stroke-linejoin="round"/><path d="M305.716 43.36h-85.495v52.92h85.495V43.361z" fill="#263238" stroke="#263238" stroke-linecap="round" stroke-linejoin="round"/><path d="M245.23 80.267c0-5.773-4.694-15.701-10.468-15.701-5.773 0-10.481 9.928-10.481 15.701 0 5.774 4.695 7.204 10.481 7.204 5.787 0 10.468-1.47 10.468-7.204z" fill="#fff" stroke="#263238" stroke-linecap="round" stroke-linejoin="round"/><path d="M234.762 66.481a7.203 7.203 0 10.001-14.407 7.203 7.203 0 00-.001 14.407z" fill="#fff" stroke="#263238" stroke-linecap="round" stroke-linejoin="round"/><path d="M255.698 53.437h17.441m-17.441 7.554h17.441m-17.441 13.382h40.697m-40.697 9.887h40.697" stroke="#fff" stroke-width="2" stroke-linecap="round" stroke-linejoin="round"/><path d="M439.138 74.427h-70.184a7.864 7.864 0 00-7.864 7.864v36.529a7.864 7.864 0 007.864 7.864h70.184a7.864 7.864 0 007.865-7.864V82.29a7.864 7.864 0 00-7.865-7.864z" fill="#263238" stroke="#263238" stroke-width="2" stroke-linecap="round" stroke-linejoin="round"/><path d="M407.479 99.247l39.524-19.991v-.918a3.91 3.91 0 00-3.912-3.911h-78.076a3.925 3.925 0 00-3.925 3.911v1.093l38.808 19.91a8.421 8.421 0 007.581-.094z" fill="#1040E2" stroke="#263238" stroke-width="2" stroke-linecap="round" stroke-linejoin="round"/><path d="M490.317 165.533h-75.904a5.463 5.463 0 00-5.464 5.463v32.9a5.464 5.464 0 005.464 5.464h75.904a5.463 5.463 0 005.463-5.464v-32.9a5.463 5.463 0 00-5.463-5.463z" fill="#263238"/><path d="M408.963 197.894v23.539l13.125-15.108" fill="#263238"/><path d="M439.233 188.249a4.504 4.504 0 00-5.381-4.433 4.503 4.503 0 00-3.544 3.544 4.507 4.507 0 108.925.889zm19.276 0a4.504 4.504 0 00-5.381-4.433 4.503 4.503 0 00-3.544 3.544 4.507 4.507 0 108.925.889zm19.29 0a4.5 4.5 0 00-5.376-4.434 4.504 4.504 0 00-3.293 6.141 4.506 4.506 0 004.163 2.785 4.52 4.52 0 004.506-4.492z" fill="#1040E2"/><path d="M93.597 274.877a2.262 2.262 0 00-1.794-.89H33.53l-2.24-6.745a2.267 2.267 0 00-2.145-1.538H14.388a2.27 2.27 0 00-2.091 2.26 2.265 2.265 0 002.091 2.259h13.125l14.232 42.694a2.255 2.255 0 002.144 1.538h.823a7.702 7.702 0 00-1.24 4.195 7.796 7.796 0 1014.338-4.195h10.792a7.702 7.702 0 00-1.241 4.195 7.8 7.8 0 004.731 7.496 7.804 7.804 0 006.117 0 7.801 7.801 0 004.732-7.496c0-1.489-.43-2.946-1.241-4.195h1.74a2.262 2.262 0 001.714-.597 2.263 2.263 0 000-3.326 2.259 2.259 0 00-1.714-.596H45.508l-2.495-7.46h42.329a2.265 2.265 0 002.185-1.673l6.448-23.957a2.238 2.238 0 00-.378-1.969zm-42.343 47.037a3.262 3.262 0 01-3.201-3.901 3.268 3.268 0 012.565-2.565 3.265 3.265 0 013.9 3.202 3.277 3.277 0 01-3.264 3.264zm23.97 0a3.262 3.262 0 01-3.2-3.901 3.27 3.27 0 012.564-2.565 3.265 3.265 0 013.901 3.202 3.279 3.279 0 01-3.305 3.264h.04zm6.03-23.957h-8.376V278.56h8.377v19.397zM59.969 278.56h8.377v19.438h-8.377V278.56zm-4.518 19.438h-8.377V278.56h8.377v19.438zM35.04 278.56h7.5v19.438h-1.01l-6.49-19.438zm50.733 11.439V278.56h3.076l-3.076 11.439zm375.407-26.048a32.598 32.598 0 00-30.133 20.12 32.605 32.605 0 1062.723 12.47 32.633 32.633 0 00-32.59-32.59zm0 4.046c2.698 0 5.638 3.535 7.716 9.443h-15.432c2.118-5.908 4.978-9.443 7.716-9.443zm8.889 13.49a63.436 63.436 0 011.633 12.99h-21.057a63.365 63.365 0 011.632-12.99h17.792zm1.7 17.077a60.724 60.724 0 01-2.239 15.068h-16.646a60.73 60.73 0 01-2.172-15.014l21.057-.054zm-25.117-4.047h-13.934a28.45 28.45 0 014.208-12.99h11.169a68.793 68.793 0 00-1.511 12.99h.068zm0 4.047a66.793 66.793 0 001.929 15.068h-10.265a28.328 28.328 0 01-5.598-15.014l13.934-.054zm3.197 19.114a28.979 28.979 0 003.156 6.273 28.522 28.522 0 01-11.02-6.273h7.864zm4.384 0h13.88c-1.983 4.722-4.532 7.473-6.933 7.473s-4.951-2.805-6.947-7.473zm18.264 0h7.865a28.526 28.526 0 01-11.021 6.273 28.889 28.889 0 003.156-6.273zm1.268-4.046a66.008 66.008 0 002.051-15.068h13.867a28.334 28.334 0 01-5.652 15.068h-10.266zm2.051-19.115a68.711 68.711 0 00-1.511-12.99h11.169a28.452 28.452 0 014.209 12.99h-13.867zm6.609-17.037h-9.186a31.332 31.332 0 00-3.844-8.282 28.65 28.65 0 0112.977 8.282h.053zm-29.366-8.282a30.926 30.926 0 00-3.831 8.282h-9.199a28.641 28.641 0 0112.976-8.282h.054z" fill="#263238"/><defs><clipPath id="clip0"><path fill="#fff" transform="translate(169 358)" d="M0 0h192v54H0z"/></clipPath></defs></svg>