<svg width="477" height="446" fill="none" xmlns="http://www.w3.org/2000/svg"><g clip-path="url(#clip0)"><path d="M451.157 215.949C490.484-56.383-22.759-13.357 40.337 180.814c37.2 114.487 144.035 21.169 216.655 56.452 40.679 19.758 35.996 78.37 95.442 79.683 53.644 1.178 91.951-54.133 98.723-101z" fill="#1040E2"/><path opacity=".9" d="M451.157 215.949C490.484-56.383-22.759-13.357 40.337 180.814c37.2 114.487 144.035 21.169 216.655 56.452 40.679 19.758 35.996 78.37 95.442 79.683 53.644 1.178 91.951-54.133 98.723-101z" fill="#fff"/><path d="M238.68 445.66c131.601 0 238.285-6.219 238.285-13.892 0-7.672-106.684-13.892-238.285-13.892S.395 424.096.395 431.768c0 7.673 106.684 13.892 238.285 13.892z" fill="#1040E2" fill-opacity=".15"/><path opacity=".7" d="M362.032 347.753H210.573a36.77 36.77 0 01-14.638-2.946 36.711 36.711 0 01-12.253-8.522 36.63 36.63 0 01-9.978-27.447L186.658 61.97c1.069-21.402 19.516-38.915 40.961-38.915h151.459a36.766 36.766 0 0114.657 2.927A36.73 36.73 0 01406.01 34.5a36.669 36.669 0 017.858 12.697 36.614 36.614 0 012.14 14.773l-12.965 246.868c-1.119 21.402-19.578 38.915-41.011 38.915z" fill="#1040E2"/><path d="M272.587 8.832h-9.426v1.227h9.426V8.832zm-17.476 0h-32.776v1.227h32.776V8.832zM170.285 93.01l-.493 9.302 1.228.065.493-9.302-1.228-.064z" fill="#1040E2"/><path opacity=".6" d="M353.318 339.064H201.811a36.755 36.755 0 01-26.887-11.463 36.663 36.663 0 01-7.844-12.685 36.613 36.613 0 01-2.138-14.755l12.965-246.88c1.119-21.402 19.578-38.914 41.011-38.914h151.446a36.77 36.77 0 0114.658 2.927 36.73 36.73 0 0112.275 8.518 36.63 36.63 0 019.998 27.47L394.341 300.16c-1.13 21.391-19.589 38.903-41.023 38.903z" fill="#1040E2"/><path d="M230.188 304.125c-36.009 0-69.142-14.003-93.304-39.418-24.161-25.416-36.5-59.349-34.608-95.38a140.187 140.187 0 0121.569-67.325 146.592 146.592 0 0149.994-48.205.309.309 0 01.234 0 .35.35 0 01.197.147l12.4 23.624c.442-.245.885-.49 1.339-.724l.48-.27a.38.38 0 01.233 0 .292.292 0 01.185.16l3.392 6.443a.308.308 0 01-.123.404c-31.548 17.611-52.305 50.488-54.149 85.82-1.401 26.483 7.632 51.384 25.428 70.099a93.393 93.393 0 0031.271 21.606 93.505 93.505 0 0037.305 7.368.284.284 0 01.221.098.268.268 0 01.086.221l-1.843 35.099a.3.3 0 01-.11.174.298.298 0 01-.197.059zM173.864 54.496c-41.33 24.177-68.527 68.16-70.985 114.856-1.881 35.871 10.36 69.583 34.411 94.925 24.051 25.342 56.84 39.161 92.578 39.271l1.807-34.472a94.182 94.182 0 01-37.371-7.482 94.06 94.06 0 01-31.329-21.677c-17.906-18.85-27.037-43.91-25.599-70.553 1.856-35.442 22.613-68.442 54.198-86.188l-3.098-5.903-.221.123c-.528.282-1.069.565-1.585.872a.333.333 0 01-.246 0 .318.318 0 01-.184-.148l-12.376-23.624zm65.074 262.429a.336.336 0 01-.234-.098.328.328 0 01-.073-.233l1.966-37.541a.304.304 0 01.307-.282c58.561 0 108.703-47.58 111.775-106.069a.304.304 0 01.307-.282h8.947a.29.29 0 01.217.082c.029.027.051.06.067.097a.286.286 0 01.024.115c.073 3.044 0 6.136-.111 9.143h27.64a.282.282 0 01.221.098.384.384 0 01.086.246 152.863 152.863 0 01-46.836 92.483c-28.303 26.839-66.316 42.241-104.303 42.241zm2.261-37.541l-1.941 36.927c37.729-.086 75.458-15.414 103.553-42.081a152.16 152.16 0 0046.614-91.759H361.81a.278.278 0 01-.233-.123.26.26 0 01-.086-.221c.16-3.019.197-6.136.135-9.118h-8.357c-3.22 58.587-53.411 106.216-112.07 106.375z" fill="#1040E2"/><path d="M361.933 173.034a.319.319 0 01-.213-.094.319.319 0 01-.094-.213c-1.561-62.012-51.617-110.585-114.011-110.585a124.389 124.389 0 00-58.831 14.948.294.294 0 01-.418-.123.318.318 0 01.123-.417 125.016 125.016 0 0159.126-15.022 113.423 113.423 0 0180.276 31.987 113.097 113.097 0 0134.35 79.199.3.3 0 01-.082.221.297.297 0 01-.213.099h-.013z" fill="#1040E2"/><path d="M404.345 182.471H389.77a.311.311 0 01-.218-.09.31.31 0 01-.09-.217.307.307 0 01.308-.307h14.28a156.9 156.9 0 00-17.537-80.923c-19.037-36.166-51.519-62.588-91.473-74.418-42.497-12.591-87.736-7.364-127.419 14.726l6.649 12.64a.32.32 0 01-.136.418.307.307 0 01-.418-.135l-6.771-12.898a.314.314 0 01-.036-.112.307.307 0 01.011-.117.295.295 0 01.148-.177 168.245 168.245 0 0164.238-20.604 161.994 161.994 0 0163.907 5.67c40.113 11.88 72.73 38.412 91.841 74.725a157.483 157.483 0 0117.598 81.524.307.307 0 01-.307.295z" fill="#1040E2"/><path d="M186.547 78.267h-.086a.317.317 0 01-.184-.147l-12.56-23.906a.304.304 0 01-.019-.236.311.311 0 01.572-.046l12.4 23.624c.442-.246.885-.491 1.34-.724l.479-.27a.307.307 0 01.418.135.293.293 0 01-.032.331.291.291 0 01-.091.074l-.492.27c-.528.282-1.069.564-1.585.871a.346.346 0 01-.16.025z" fill="#1040E2"/><g opacity=".3" fill="#fff"><path opacity=".3" d="M230.188 304.125c-36.009 0-69.142-14.003-93.304-39.418-24.161-25.416-36.5-59.349-34.608-95.38a140.187 140.187 0 0121.569-67.325 146.592 146.592 0 0149.994-48.205.309.309 0 01.234 0 .35.35 0 01.197.147l12.4 23.624c.442-.245.885-.49 1.339-.724l.48-.27a.38.38 0 01.233 0 .292.292 0 01.185.16l3.392 6.443a.308.308 0 01-.123.404c-31.548 17.611-52.305 50.488-54.149 85.82-1.401 26.483 7.632 51.384 25.428 70.099a93.393 93.393 0 0031.271 21.606 93.505 93.505 0 0037.305 7.368.284.284 0 01.221.098.268.268 0 01.086.221l-1.843 35.099a.3.3 0 01-.11.174.298.298 0 01-.197.059zM173.864 54.496c-41.33 24.177-68.527 68.16-70.985 114.856-1.881 35.871 10.36 69.583 34.411 94.925 24.051 25.342 56.84 39.161 92.578 39.271l1.807-34.472a94.182 94.182 0 01-37.371-7.482 94.06 94.06 0 01-31.329-21.677c-17.906-18.85-27.037-43.91-25.599-70.553 1.856-35.442 22.613-68.442 54.198-86.188l-3.098-5.903-.221.123c-.528.282-1.069.565-1.585.872a.333.333 0 01-.246 0 .318.318 0 01-.184-.148l-12.376-23.624zm65.074 262.429a.336.336 0 01-.234-.098.328.328 0 01-.073-.233l1.966-37.541a.304.304 0 01.307-.282c58.561 0 108.703-47.58 111.775-106.069a.304.304 0 01.307-.282h8.947a.29.29 0 01.217.082c.029.027.051.06.067.097a.286.286 0 01.024.115c.073 3.044 0 6.136-.111 9.143h27.64a.282.282 0 01.221.098.384.384 0 01.086.246 152.863 152.863 0 01-46.836 92.483c-28.303 26.839-66.316 42.241-104.303 42.241zm2.261-37.541l-1.941 36.927c37.729-.086 75.458-15.414 103.553-42.081a152.16 152.16 0 0046.614-91.759H361.81a.278.278 0 01-.233-.123.26.26 0 01-.086-.221c.16-3.019.197-6.136.135-9.118h-8.357c-3.22 58.587-53.411 106.216-112.07 106.375z"/><path opacity=".3" d="M361.933 173.034a.319.319 0 01-.213-.094.319.319 0 01-.094-.213c-1.561-62.012-51.617-110.585-114.011-110.585a124.389 124.389 0 00-58.831 14.948.294.294 0 01-.418-.123.318.318 0 01.123-.417 125.016 125.016 0 0159.126-15.022 113.423 113.423 0 0180.276 31.987 113.097 113.097 0 0134.35 79.199.3.3 0 01-.082.221.297.297 0 01-.213.099h-.013z"/><path opacity=".3" d="M404.345 182.471H389.77a.311.311 0 01-.218-.09.31.31 0 01-.09-.217.307.307 0 01.308-.307h14.28a156.9 156.9 0 00-17.537-80.923c-19.037-36.166-51.519-62.588-91.473-74.418-42.497-12.591-87.736-7.364-127.419 14.726l6.649 12.64a.32.32 0 01-.136.418.307.307 0 01-.418-.135l-6.771-12.898a.314.314 0 01-.036-.112.307.307 0 01.011-.117.295.295 0 01.148-.177 168.245 168.245 0 0164.238-20.604 161.994 161.994 0 0163.907 5.67c40.113 11.88 72.73 38.412 91.841 74.725a157.483 157.483 0 0117.598 81.524.307.307 0 01-.307.295z"/><path opacity=".3" d="M186.547 78.267h-.086a.317.317 0 01-.184-.147l-12.56-23.906a.304.304 0 01-.019-.236.311.311 0 01.572-.046l12.4 23.624c.442-.246.885-.491 1.34-.724l.479-.27a.307.307 0 01.418.135.293.293 0 01-.032.331.291.291 0 01-.091.074l-.492.27c-.528.282-1.069.564-1.585.871a.346.346 0 01-.16.025z"/></g><path d="M239.7 253.146l-1.229 22.544c-47.795 0-84.529-38.706-82.022-86.42 1.684-31.982 20.561-59.925 47.218-74.861l10.274 19.525a67.978 67.978 0 00-24.558 23.191 67.854 67.854 0 00-10.345 32.132c-1.807 35.283 25.341 63.889 60.662 63.889z" fill="#1040E2"/><path opacity=".6" d="M239.7 253.146l-1.229 22.544c-47.795 0-84.529-38.706-82.022-86.42 1.684-31.982 20.561-59.925 47.218-74.861l10.274 19.525a67.978 67.978 0 00-24.558 23.191 67.854 67.854 0 00-10.345 32.132c-1.807 35.283 25.341 63.889 60.662 63.889z" fill="#000"/><path d="M341.594 191.442a98.534 98.534 0 01-30.534 65.356 98.81 98.81 0 01-66.923 27.115l1.229-24.127c37.791 0 70.051-30.607 72.03-68.344h24.198z" fill="#1040E2"/><path opacity=".3" d="M341.594 191.442a98.534 98.534 0 01-30.534 65.356 98.81 98.81 0 01-66.923 27.115l1.229-24.127c37.791 0 70.051-30.607 72.03-68.344h24.198z" fill="#000"/><path d="M350.43 197.517h-27.332c2.237-42.744-30.626-77.315-73.382-77.315a79.716 79.716 0 00-39.302 10.345l-12.425-23.648c51.285-28.692 114.958-11.389 141.11 38.314a101.025 101.025 0 0111.331 52.304zm-2.986 68.086h-25.169l-2.716 51.764h25.169l2.716-51.764z" fill="#FAFAFA"/><path d="M383.367 248.496h-25.17l-3.613 68.871h25.17l3.613-68.871z" fill="#1040E2"/><path opacity=".6" d="M383.367 248.496h-25.17l-3.613 68.871h25.17l3.613-68.871z" fill="#000"/><path d="M417.483 265.603h-25.169l-2.716 51.764h25.169l2.716-51.764z" fill="#1040E2"/><path opacity=".3" d="M417.483 265.603h-25.169l-2.716 51.764h25.169l2.716-51.764z" fill="#000"/><path d="M414.533 321.772h-95.208l.061-1.178h95.209l-.062 1.178z" fill="#263238"/><path opacity=".8" d="M427.401 102.763H317.654l3.244-61.913h109.759l-3.256 61.913z" fill="#FAFAFA"/><path d="M319.632 64.977l-1.978 37.786h109.747l2.458-46.917c-18.214 0-29.016 20.704-51.544 20.704-22.527 0-28.708-11.573-58.683-11.573z" fill="#1040E2"/><path opacity=".1" d="M319.632 64.977l-1.978 37.786h109.747l2.458-46.917c-18.214 0-29.016 20.704-51.544 20.704-22.527 0-28.708-11.573-58.683-11.573z" fill="#000"/><path d="M318.686 83.042c24.665 0 33.526-13.5 47.377-13.5 13.85 0 19.909 14.2 37.164 14.2 17.992 0 25.808-11.169 25.808-11.169l-1.585 30.215H317.703l.983-19.746z" fill="#1040E2"/><path opacity=".5" d="M318.686 83.042c24.665 0 33.526-13.5 47.377-13.5 13.85 0 19.909 14.2 37.164 14.2 17.992 0 25.808-11.169 25.808-11.169l-1.585 30.215H317.703l.983-19.746z" fill="#000"/><path d="M101.638 130.559c-1.623 2.172-3.43 4.59-5.064 6.958-1.634 2.369-3.281 4.787-4.83 7.216a105.477 105.477 0 00-8.11 14.862l-.406.933-.197.466a1.498 1.498 0 00-.135.614c-.032 1 .08 2 .332 2.97a43.366 43.366 0 002.666 7.522 174.41 174.41 0 008.087 15.512l-5.321 4.198a90.03 90.03 0 01-11.946-14.727 47.15 47.15 0 01-4.596-9.106 22.186 22.186 0 01-1.315-5.952c-.091-1.299 0-2.604.27-3.878.074-.356.184-.736.295-1.092l.197-.602.393-1.227c.504-1.608 1.118-3.117 1.708-4.651.59-1.534 1.23-3.007 2.003-4.443 1.352-2.933 2.913-5.718 4.498-8.467 1.586-2.749 3.306-5.4 5.1-7.99.898-1.3 1.82-2.577 2.754-3.853.933-1.276 1.867-2.454 2.974-3.829l10.643 8.566z" fill="#E58A7B"/><path d="M92.051 185.686l6.6 1.129-5.862 9.916s-4.597-2.209-5.432-6.492l4.694-4.553z" fill="#E58A7B"/><path d="M105.779 190.362l-5.223 7.977-7.767-1.608 5.862-9.916 7.128 3.547z" fill="#E58A7B"/><path d="M135.668 82.452c0 .724.381 1.313.86 1.313s.86-.589.86-1.313-.381-1.313-.86-1.313-.86.577-.86 1.313z" fill="#263238"/><path d="M135.987 83.765a26.167 26.167 0 003.478 6.222 4.192 4.192 0 01-3.478.65v-6.872z" fill="#DF5753"/><path d="M133.087 78.427a.395.395 0 01-.344-.184.401.401 0 01-.02-.471.41.41 0 01.118-.118 4.209 4.209 0 013.847-.663.432.432 0 01.233.552.398.398 0 01-.217.24.401.401 0 01-.323.006 3.384 3.384 0 00-3.048.552.384.384 0 01-.246.086z" fill="#263238"/><path d="M112.157 90.834c1.303 6.602 2.594 18.678-2.027 23.084 0 0 1.806 6.688 14.084 6.688 13.518 0 6.439-6.688 6.439-6.688-7.373-1.755-7.177-7.216-5.886-12.334l-12.61-10.75z" fill="#E58A7B"/><path d="M108.409 116.213c-.971-2.111-2.028-4.541.172-5.302 2.458-.834 15.694-1.681 20.266-.122a4.734 4.734 0 012.867 2.249 4.717 4.717 0 01.414 3.617l-23.719-.442zM79.934 424.11a11.485 11.485 0 01-2.36-.258.197.197 0 01-.16-.159.22.22 0 01.087-.221c.11-.074 2.605-1.767 3.92-1.473a.98.98 0 01.663.503.883.883 0 010 1.019 2.881 2.881 0 01-2.15.589zm-1.758-.565c1.352.221 3.196.221 3.577-.294 0 0 .16-.196 0-.54a.577.577 0 00-.394-.295 5.808 5.808 0 00-3.183 1.154v-.025z" fill="#1040E2"/><path d="M77.685 423.889a.174.174 0 01-.11 0 .195.195 0 01-.1-.196c0-.111.222-2.712 1.23-3.571a1.226 1.226 0 01.91-.27.696.696 0 01.687.564c.185 1.006-1.622 2.97-2.556 3.485l-.061-.012zm1.819-3.682a.79.79 0 00-.492.185c-.628.814-1 1.796-1.07 2.822.935-.699 2.09-2.184 1.98-2.786 0 0 0-.184-.32-.221h-.098zm54.64 3.903c-.928 0-1.854-.086-2.765-.258a.196.196 0 01-.172-.172.224.224 0 01.098-.221c.135-.073 3.294-1.865 4.793-1.46a1.038 1.038 0 01.676.503.797.797 0 010 .933c-.357.54-1.475.675-2.63.675zm-2.077-.565c1.696.233 3.969.197 4.387-.368 0-.074.099-.196 0-.466a.625.625 0 00-.418-.295c-1.032-.245-3.047.663-3.969 1.154v-.025z" fill="#1040E2"/><path d="M131.416 423.889a.199.199 0 01-.123 0 .22.22 0 01-.071-.086c-.015-.035-.02-.073-.015-.11a5.927 5.927 0 011.401-3.473c.164-.149.36-.258.573-.322.212-.064.436-.08.656-.046.589.061.762.356.798.601.16 1.019-1.991 2.97-3.084 3.448l-.135-.012zm2.199-3.681a1.064 1.064 0 00-.737.282 4.9 4.9 0 00-1.229 2.773c1.106-.662 2.581-2.196 2.458-2.81 0 0 0-.196-.418-.245h-.074z" fill="#1040E2"/><path d="M121.485 423.668h9.033l.897-20.875h-9.033l-.897 20.875zm-54.21 0h9.033l4.535-20.875h-9.02l-4.547 20.875z" fill="#E58A7B"/><path d="M76.947 422.625H66.808a.796.796 0 00-.774.626l-1.782 8.014a1.322 1.322 0 00.748 1.476c.182.082.38.123.58.119 3.539-.061 5.26-.27 9.72-.27 2.741 0 8.395.295 12.192.295 3.797 0 4.277-3.682 2.728-4.087-6.956-1.522-9.573-3.62-11.81-5.608a2.14 2.14 0 00-1.463-.565zm53.51 0h-9.832a.797.797 0 00-.774.626l-1.782 8.014a1.303 1.303 0 00.265 1.112 1.325 1.325 0 001.038.483c3.551-.061 8.688-.27 13.162-.27 5.223 0 9.746.295 15.866.295 3.687 0 4.744-3.682 3.195-4.087-7.066-1.546-12.83-1.706-18.938-5.461a4.131 4.131 0 00-2.2-.712z" fill="#263238"/><path d="M142.39 119.06c5.285 2.602 10.778 5.265 16.198 7.756 5.42 2.492 10.901 4.909 16.345 6.983l2.028.724.516.184h.123l.062.062a4.993 4.993 0 002.175-.258 31.763 31.763 0 006.956-3.301c4.967-3.116 9.74-6.53 14.293-10.223l4.977 4.59a80.448 80.448 0 01-13.138 14.187 37.348 37.348 0 01-8.996 5.743 16.606 16.606 0 01-6.796 1.473 12.832 12.832 0 01-2.212-.234l-.59-.135-.405-.11-.59-.16-2.36-.65a167.306 167.306 0 01-17.894-6.48 216.435 216.435 0 01-17.021-8.063l6.329-12.088z" fill="#E58A7B"/><path d="M93.969 115.955c-8.468 1.939-18.177 24.974-18.177 24.974l16.997 11.634a143.16 143.16 0 0011.233-19.058c5.014-10.542-1.401-19.525-10.053-17.55z" fill="#263238"/><path d="M100.028 130.645l-8.038 21.366.799.552s3.478-4.909 7.239-11.45v-10.468z" fill="#1040E2"/><path opacity=".8" d="M100.028 130.645l-8.038 21.366.799.552s3.478-4.909 7.239-11.45v-10.468z" fill="#000"/><path d="M144.541 116.422s9.61 10.836.541 77.928H96.783c-.332-7.363 4.326-43.517-2.814-78.395a126.191 126.191 0 0116.161-2.037 178.77 178.77 0 0120.523 0 90.482 90.482 0 0113.888 2.504z" fill="#263238"/><path d="M148.768 137.064l-11.613-2.455c.172.209 7.373 9.229 11.785 14.837.087-4.786.025-8.823-.172-12.382z" fill="#1040E2"/><path opacity=".8" d="M148.768 137.064l-11.613-2.455c.172.209 7.373 9.229 11.785 14.837.087-4.786.025-8.823-.172-12.382z" fill="#000"/><path d="M129.4 128.424c2.654 8.198 29.495 17.181 29.495 17.181l7.989-18.912a110.79 110.79 0 00-21.335-9.989c-10.889-3.461-19.074 2.724-16.149 11.72z" fill="#263238"/><path d="M200.324 122.214l2.642-9.143 10.508 4.749s-2.323 7.094-8.677 8.787l-4.473-4.393zm8.934-16.764l7.141 7.032-2.925 5.289-10.508-4.749 6.292-7.572z" fill="#E58A7B"/><path d="M131.415 402.805l-.467 10.751h-9.032l.467-10.751h9.032zm-59.605 0h9.033l-2.335 10.751h-9.033l2.335-10.751z" fill="#CF6F64"/><path d="M111.383 80.906c.541 8.934.406 14.187 4.916 18.776 6.796 6.897 17.833 2.799 19.971-6.136 1.917-8.026.7-21.28-8.062-24.839a12.23 12.23 0 00-11.821 1.413 12.197 12.197 0 00-5.004 10.787z" fill="#E58A7B"/><path d="M128.761 74.966c6.747 1.988 12.4-7.572 11.356-.81-1.045 6.762 6.316 6.026 6.316 6.026s-5.776-2.184 1.094-7.879c8.394-6.958-3.527-11.229-8.75-7.45-7.03 5.106-8.406-3.902-17.464-6.32-6.145-1.62-13.703 2.234-13.838 6.665-.172 5.412-4.83 1.055-5.174 9.106-.233 5.252 6.034 22.568 12.794 23.157 10.176.896 13.592-11.99 13.666-22.495z" fill="#263238"/><path d="M123.452 83.508a10.087 10.087 0 003.392 5.571c2.273 1.841 4.092.197 4.043-2.454-.061-2.393-1.303-6.234-3.859-7.044-2.556-.81-4.154 1.313-3.576 3.927z" fill="#E58A7B"/><path d="M109.441 70.229a12.033 12.033 0 01-.995-11.413s-9.61 7.228.995 11.413z" fill="#263238"/><path d="M101.748 69.346a6.156 6.156 0 015.887.601s-2.728-5.56-5.887-.601z" fill="#263238"/><path d="M127.95 194.35s-10.25 68.896-15.854 94.766c-6.145 28.226-29.36 122.428-29.36 122.428H66.169S81.482 319.6 85.06 291.571c3.81-30.374 11.785-97.27 11.785-97.27l31.106.049z" fill="#1040E2"/><path d="M85.354 405.395c.073 0-1.709 6.345-1.709 6.345H65.04l.344-5.658 19.97-.687z" fill="#1040E2"/><path opacity=".2" d="M85.354 405.395c.073 0-1.709 6.345-1.709 6.345H65.04l.344-5.658 19.97-.687z" fill="#000"/><path d="M121.473 218.894c-11.847 2.32-10.594 46.438-9.168 69.129 3.478-16.088 8.394-46.904 11.835-68.859a4.053 4.053 0 00-2.667-.27z" fill="#1040E2"/><path opacity=".2" d="M121.473 218.894c-11.847 2.32-10.594 46.438-9.168 69.129 3.478-16.088 8.394-46.904 11.835-68.859a4.053 4.053 0 00-2.667-.27z" fill="#000"/><path d="M145.082 194.35s1.229 67.399.258 94.901c-1.02 28.594-11.061 122.231-11.061 122.231h-15.252s-.565-91.968-1.229-120.047c-.737-30.619-4.436-97.085-4.436-97.085h31.72z" fill="#1040E2"/><path d="M131.133 400.511a.174.174 0 01-.148-.172c2.704-25.919 9.058-88.618 9.832-111.1.823-23.035.074-74.48-.172-89.71a.16.16 0 01.011-.057.15.15 0 01.08-.079.155.155 0 01.165.031c.03.027.048.065.051.105.246 15.217.996 66.675.172 89.722-.799 22.495-7.152 85.206-9.832 111.125a.143.143 0 01-.051.1.157.157 0 01-.108.035z" fill="#1040E2"/><path opacity=".2" d="M131.133 400.511a.174.174 0 01-.148-.172c2.704-25.919 9.058-88.618 9.832-111.1.823-23.035.074-74.48-.172-89.71a.16.16 0 01.011-.057.15.15 0 01.08-.079.155.155 0 01.165.031c.03.027.048.065.051.105.246 15.217.996 66.675.172 89.722-.799 22.495-7.152 85.206-9.832 111.125a.143.143 0 01-.051.1.157.157 0 01-.108.035z" fill="#000"/><path d="M137.253 405.395c.074 0-.86 6.345-.86 6.345h-18.607l-.504-5.658 19.971-.687z" fill="#1040E2"/><path opacity=".2" d="M137.253 405.395c.074 0-.86 6.345-.86 6.345h-18.607l-.504-5.658 19.971-.687z" fill="#000"/></g><defs><clipPath id="clip0"><path fill="#fff" d="M0 0h477v446H0z"/></clipPath></defs></svg>