<svg width="16" height="16" fill="none" xmlns="http://www.w3.org/2000/svg"><g clip-path="url(#clip0)" fill="#1040E2"><path d="M8 9.012c-4.807 0-7.455 2.274-7.455 6.404 0 .323.261.584.584.584h13.742a.584.584 0 00.584-.584c0-4.13-2.648-6.404-7.455-6.404zm-6.266 5.82C1.964 11.744 4.07 10.18 8 10.18s6.036 1.565 6.266 4.652H1.734zM8 0C5.792 0 4.126 1.699 4.126 3.951 4.126 6.27 5.864 8.156 8 8.156s3.873-1.886 3.873-4.205C11.873 1.7 10.208 0 8 0zm0 6.988c-1.492 0-2.706-1.362-2.706-3.037 0-1.613 1.138-2.783 2.706-2.783 1.543 0 2.706 1.196 2.706 2.783 0 1.675-1.214 3.037-2.706 3.037z"/></g><defs><clipPath id="clip0"><path fill="#fff" d="M0 0h16v16H0z"/></clipPath></defs></svg>