<svg width="110" height="110" viewBox="0 0 110 110" fill="none" xmlns="http://www.w3.org/2000/svg">
<rect width="110" height="110" rx="55" fill="white" fill-opacity="0.15"/>
<g clip-path="url(#clip0)">
<path d="M52.5 55.8226V28.75C52.5 28.06 51.94 27.5 51.25 27.5C36.775 27.5 25 40.3975 25 56.25C25 72.1024 37.8975 85 53.75 85C60.8425 85 64.6799 83.7151 69.545 79.715C70.0675 79.285 70.1525 78.5175 69.7375 77.9825L52.5 55.8226ZM53.75 82.5001C39.275 82.5001 27.5 70.7251 27.5 56.2501C27.5 42.2401 37.4825 30.7576 50 30.0351V56.2501C50 56.5276 50.0924 56.7976 50.2649 57.0175L67.0049 78.5401C63.0575 81.5551 59.765 82.5001 53.75 82.5001Z" fill="white"/>
<path d="M56.25 55H83.7501C84.4401 55 85.0001 54.44 85.0001 53.75C85 37.8975 72.1025 25 56.25 25C55.56 25 55 25.56 55 26.25V53.7501C55 54.44 55.56 55 56.25 55ZM57.5 27.53C70.9825 28.165 81.835 39.0175 82.4699 52.4999H57.5V27.53Z" fill="white"/>
<path d="M83.75 57.5H58.7501C58.2701 57.5 57.8276 57.7775 57.62 58.2125C57.4125 58.6475 57.4751 59.1625 57.7775 59.535L74.0276 79.6524C74.2451 79.9249 74.5651 80.0899 74.9126 80.115C74.9426 80.1174 74.9701 80.1174 75.0001 80.1174C75.3151 80.1174 75.6201 79.9974 75.8526 79.7824C81.665 74.36 85.0001 66.695 85.0001 58.75C85.0001 58.06 84.44 57.5 83.75 57.5ZM75.1076 77.0101L61.3676 60.0001H82.4701C82.1626 66.355 79.5326 72.4325 75.1076 77.0101Z" fill="white"/>
</g>
<defs>
<clipPath id="clip0">
<rect width="60" height="60" fill="white" transform="translate(25 25)"/>
</clipPath>
</defs>
</svg>
