<svg width="110" height="110" viewBox="0 0 110 110" fill="none" xmlns="http://www.w3.org/2000/svg">
<rect width="110" height="110" rx="55" fill="#1040E2" fill-opacity="0.1"/>
<g clip-path="url(#clip0)">
<path d="M84.9004 61.5858L84.9094 61.5828L75.0584 40.089L77.4474 38.9L76.5534 37.11L74.2245 38.27L73.9095 37.583C73.6792 37.081 73.0857 36.8606 72.5837 37.0907C72.366 37.1906 72.1913 37.3652 72.0915 37.583L71.8105 38.197C70.1155 37.4097 68.2694 37.0012 66.4005 37H58.0006V35H60.0006V33H58.2816L59.0006 30.1231C59.5526 27.914 58.2093 25.6756 56.0002 25.1235C53.7911 24.5715 51.5528 25.9147 51.0007 28.1238C50.8367 28.7801 50.8367 29.4667 51.0007 30.1229L51.7196 32.9999H50.0007V34.9999H52.0006V36.9999H43.6057C41.735 37.0014 39.887 37.4109 38.1908 38.1999L37.9098 37.5859C37.6796 37.0839 37.086 36.8635 36.584 37.0936C36.3663 37.1935 36.1917 37.3681 36.0918 37.5859L35.7768 38.2729L33.4478 37.1079L32.5538 38.8999L34.9428 40.0938L25.0919 61.5828C25.0311 61.7134 25.0001 61.8558 25.0009 61.9998C25.0052 65.8639 28.1367 68.9954 32.0008 68.9997H42.0007C45.8648 68.9954 48.9963 65.8639 49.0007 61.9998C48.9982 61.8562 48.964 61.7148 48.9007 61.5858L39.0228 40.011C40.4586 39.3445 42.0227 38.9995 43.6057 39H52.0006V75.5857L48.5867 78.9996H45.0007C42.2407 79.0029 40.004 81.2396 40.0007 83.9996C40.0007 84.5518 40.4485 84.9996 41.0007 84.9996H69.0005C69.5527 84.9996 70.0005 84.5518 70.0005 83.9996C69.9972 81.2396 67.7605 79.0029 65.0005 78.9996H61.4146L58.0006 75.5857V39H66.4005C67.9835 38.9995 69.5476 39.3445 70.9835 40.011L61.0916 61.5828C61.0308 61.7134 60.9998 61.8558 61.0006 61.9998C61.0049 65.8639 64.1364 68.9954 68.0005 68.9997H78.0004C81.8645 68.9954 84.996 65.8639 85.0004 61.9998C84.998 61.8562 84.9639 61.7148 84.9004 61.5858ZM42.0007 66.9997H32.0008C29.6256 66.9971 27.579 65.3264 27.1009 62.9998H46.9007C46.4227 65.3264 44.376 66.9971 42.0007 66.9997ZM46.4427 60.9998H27.5588L36.7448 40.959C36.9125 41.004 37.089 41.004 37.2568 40.959L46.4427 60.9998ZM53.3276 27.8161C54.1064 26.8921 55.4867 26.7745 56.4107 27.5532C56.5056 27.6332 56.5936 27.7212 56.6736 27.8161C57.0781 28.3306 57.221 29.0036 57.0606 29.6381L56.2196 33H53.7816L52.9406 29.6381C52.7803 29.0036 52.9233 28.3306 53.3276 27.8161ZM54.0006 37V35H56.0006V37H54.0006ZM56.0006 39V74.9997H54.0006V39H56.0006ZM65.0005 80.9996C66.2715 81.0011 67.4041 81.8019 67.8295 82.9996H42.1717C42.5971 81.8019 43.7297 81.0011 45.0007 80.9996H65.0005ZM58.5866 78.9996H51.4146L53.4146 76.9997H56.5866L58.5866 78.9996ZM72.7425 40.962C72.9076 41.0201 73.0887 41.0126 73.2485 40.941L82.4424 60.9998H63.5585L72.7425 40.962ZM78.0004 66.9997H68.0005C65.6253 66.9971 63.5787 65.3264 63.1006 62.9998H82.9004C82.4224 65.3264 80.3757 66.9971 78.0004 66.9997Z" fill="#1040E2"/>
</g>
<defs>
<clipPath id="clip0">
<rect width="60" height="60" fill="white" transform="translate(25 25)"/>
</clipPath>
</defs>
</svg>
