<svg width="110" height="110" viewBox="0 0 110 110" fill="none" xmlns="http://www.w3.org/2000/svg">
<rect width="110" height="110" rx="55" fill="white" fill-opacity="0.15"/>
<path d="M84.6566 36.0058L73.9926 25.3432C73.7729 25.1235 73.4748 25 73.1641 25H38.3594C36.4209 25 34.8438 26.5771 34.8438 28.5156V30.7497C29.0869 33.0079 25 38.6189 25 45.1669C25 45.814 25.5248 46.3388 26.1719 46.3388H40.4794C41.1265 46.3388 41.6513 45.814 41.6513 45.1669V30.8594C41.6513 30.2123 41.1265 29.6875 40.4794 29.6875C39.35 29.6875 38.2489 29.8102 37.1875 30.0411V28.5156C37.1875 27.8695 37.7132 27.3438 38.3594 27.3438H71.9922V34.4922C71.9922 36.4307 73.5693 38.0078 75.5078 38.0078H82.6562V81.4844C82.6562 82.1305 82.1305 82.6562 81.4844 82.6562H38.3594C37.7132 82.6562 37.1875 82.1305 37.1875 81.4844V61.1719C37.1875 60.5248 36.6627 60 36.0156 60C35.3685 60 34.8438 60.5248 34.8438 61.1719V81.4844C34.8438 83.4229 36.4209 85 38.3594 85H81.4844C83.4229 85 85 83.4229 85 81.4844V36.8344C85 36.5236 84.8765 36.2255 84.6566 36.0058ZM39.3074 32.0832V43.995H27.3955C27.9558 37.6847 32.9972 32.6434 39.3074 32.0832ZM75.5078 35.6641C74.8616 35.6641 74.3359 35.1384 74.3359 34.4922V29.0008L81.0002 35.6641H75.5078Z" fill="white"/>
<path d="M44.6767 33.8853C44.0296 33.8853 43.5049 34.41 43.5049 35.0571V48.1927H30.3693C29.7222 48.1927 29.1974 48.7174 29.1974 49.3645C29.1974 57.8999 36.1414 64.844 44.6767 64.844C53.2121 64.844 60.1562 57.8999 60.1562 49.3645C60.1562 40.8292 53.2121 33.8853 44.6767 33.8853ZM45.8486 36.2809C48.592 36.5244 51.0952 37.6154 53.095 39.2891L45.8486 46.5354V36.2809ZM44.6767 62.5002C37.8287 62.5002 32.1876 57.2328 31.5931 50.5364H44.6767C45.0002 50.5364 45.2929 50.4054 45.505 50.1935C45.5051 50.1934 45.5053 50.1934 45.5055 50.1932L54.7526 40.9462C56.6617 43.2274 57.8124 46.1642 57.8124 49.3645C57.8124 56.6076 51.9198 62.5002 44.6767 62.5002Z" fill="white"/>
<path d="M76.3366 61.9849C74.3981 61.9849 72.821 63.562 72.821 65.5005C72.821 65.9863 72.9202 66.4494 73.0991 66.8706L66.3476 73.6222C65.8836 73.3961 65.3629 73.269 64.813 73.269C64.2762 73.269 63.7673 73.3904 63.3118 73.6063L58.8285 69.123C58.9839 68.7264 59.0701 68.2953 59.0701 67.8441C59.0701 65.9056 57.493 64.3285 55.5545 64.3285C53.616 64.3285 52.0389 65.9056 52.0389 67.8441C52.0389 68.3694 52.1555 68.8676 52.3629 69.3156L48.0627 73.6158C47.6046 73.3967 47.092 73.2738 46.5513 73.2738C44.6128 73.2738 43.0357 74.8509 43.0357 76.7894C43.0357 78.7279 44.6128 80.305 46.5513 80.305C48.4898 80.305 50.067 78.7279 50.067 76.7894C50.067 76.246 49.943 75.7311 49.722 75.2713L53.9981 70.9952C54.4677 71.2281 54.996 71.3597 55.5547 71.3597C56.1858 71.3597 56.7779 71.1918 57.2904 70.8995L61.6473 75.2565C61.4232 75.7188 61.2974 76.2372 61.2974 76.7846C61.2974 78.7231 62.8745 80.3002 64.813 80.3002C66.7515 80.3002 68.3286 78.7231 68.3286 76.7846C68.3286 76.2504 68.2084 75.744 67.9943 75.2902L74.6828 68.6017C75.176 68.8659 75.7391 69.0161 76.3366 69.0161C78.2752 69.0161 79.8523 67.439 79.8523 65.5005C79.8523 63.562 78.2752 61.9849 76.3366 61.9849ZM46.5512 77.9614C45.905 77.9614 45.3793 77.4357 45.3793 76.7895C45.3793 76.1433 45.905 75.6176 46.5512 75.6176C46.8659 75.6176 47.1512 75.7429 47.3619 75.9454C47.3666 75.9503 47.3707 75.9556 47.3755 75.9604C47.3811 75.966 47.3872 75.9707 47.393 75.9761C47.5969 76.1871 47.7231 76.4737 47.7231 76.7895C47.7231 77.4356 47.1974 77.9614 46.5512 77.9614ZM55.5545 69.016C54.9083 69.016 54.3826 68.4903 54.3826 67.8441C54.3826 67.1979 54.9083 66.6722 55.5545 66.6722C56.2007 66.6722 56.7264 67.1979 56.7264 67.8441C56.7264 68.4903 56.2007 69.016 55.5545 69.016ZM64.8128 77.9565C64.1666 77.9565 63.6409 77.4308 63.6409 76.7846C63.6409 76.1384 64.1666 75.6127 64.8128 75.6127C65.4589 75.6127 65.9846 76.1384 65.9846 76.7846C65.9846 77.4308 65.4589 77.9565 64.8128 77.9565ZM76.3364 66.6722C75.6902 66.6722 75.1645 66.1465 75.1645 65.5004C75.1645 64.8542 75.6904 64.3285 76.3364 64.3285C76.9826 64.3285 77.5083 64.8542 77.5083 65.5004C77.5083 66.1465 76.9826 66.6722 76.3364 66.6722Z" fill="white"/>
<path d="M70.4793 52.5391H64.2943C63.6471 52.5391 63.1224 53.0638 63.1224 53.7109C63.1224 54.358 63.647 54.8828 64.2943 54.8828H70.4793C71.1264 54.8828 71.6512 54.358 71.6512 53.7109C71.6512 53.0638 71.1264 52.5391 70.4793 52.5391Z" fill="white"/>
<path d="M76.6432 52.8824C76.4253 52.6645 76.123 52.5391 75.8148 52.5391C75.5066 52.5391 75.2042 52.6643 74.9862 52.8824C74.7683 53.1004 74.6429 53.4027 74.6429 53.7109C74.6429 54.0191 74.7682 54.3215 74.9862 54.5393C75.2042 54.7573 75.5054 54.8828 75.8148 54.8828C76.123 54.8828 76.4253 54.7574 76.6432 54.5393C76.8611 54.3215 76.9866 54.0191 76.9866 53.7109C76.9866 53.4027 76.8612 53.1004 76.6432 52.8824Z" fill="white"/>
<path d="M78.6092 41.2891H64.2943C63.6471 41.2891 63.1224 41.8138 63.1224 42.4609C63.1224 43.108 63.647 43.6328 64.2943 43.6328H78.6092C79.2563 43.6328 79.781 43.108 79.781 42.4609C79.781 41.8138 79.2563 41.2891 78.6092 41.2891Z" fill="white"/>
<path d="M78.6092 46.9141H64.2943C63.6471 46.9141 63.1224 47.4388 63.1224 48.0859C63.1224 48.733 63.647 49.2578 64.2943 49.2578H78.6092C79.2563 49.2578 79.781 48.733 79.781 48.0859C79.781 47.4388 79.2563 46.9141 78.6092 46.9141Z" fill="white"/>
</svg>
