<svg width="110" height="110" viewBox="0 0 110 110" fill="none" xmlns="http://www.w3.org/2000/svg">
<rect width="110" height="110" rx="55" fill="#1040E2" fill-opacity="0.1"/>
<path d="M79.2025 82.1873C79.3075 81.8929 79.375 81.5798 79.375 81.2498C79.375 80.9198 79.3075 80.6067 79.2025 80.3123H81.25V78.4373H79.375V73.7498C79.375 73.2313 78.9559 72.8123 78.4375 72.8123H75.625V68.1248C75.625 67.6063 75.2059 67.1873 74.6875 67.1873H73.75V54.9998C73.75 54.4813 73.3309 54.0623 72.8125 54.0623H37.1875C36.6691 54.0623 36.25 54.4813 36.25 54.9998V82.1873H32.5V47.7745L55 33.6079L77.5 47.7754V70.9373H79.375V48.9557L79.8128 49.2313C79.9675 49.3279 80.14 49.3748 80.3116 49.3748C80.5984 49.3748 80.8787 49.2435 81.0625 48.9998L83.875 45.2498C84.0325 45.0407 84.0944 44.7754 84.0475 44.5185C84.0006 44.2617 83.8478 44.0357 83.6275 43.896L55.5025 26.0835C55.1969 25.8895 54.805 25.8895 54.4994 26.0835L26.3744 43.896C26.1541 44.0357 26.0013 44.2617 25.9544 44.5185C25.9056 44.7754 25.9675 45.0407 26.125 45.2498L28.9375 48.9998C29.23 49.3907 29.7738 49.491 30.1872 49.2313L30.625 48.9557V82.1873H25.9375V84.0623H84.0625V82.1873H79.2025ZM29.9191 47.1838L28.2334 44.9367L55 27.9848L81.7666 44.9367L80.0809 47.1838L55.4997 31.7057C55.3469 31.6101 55.1734 31.5623 55 31.5623C54.8266 31.5623 54.6531 31.6101 54.5003 31.7057L29.9191 47.1838ZM77.5 81.2498C77.5 81.7673 77.08 82.1873 76.5625 82.1873C76.045 82.1873 75.625 81.7673 75.625 81.2498C75.625 80.7323 76.045 80.3123 76.5625 80.3123C77.08 80.3123 77.5 80.7323 77.5 81.2498ZM66.25 81.2498C66.25 80.7323 66.67 80.3123 67.1875 80.3123C67.705 80.3123 68.125 80.7323 68.125 81.2498C68.125 81.7673 67.705 82.1873 67.1875 82.1873C66.67 82.1873 66.25 81.7673 66.25 81.2498ZM64.375 74.6873H66.25V76.5623H68.125V74.6873H70V78.4373H64.375V74.6873ZM69.8275 80.3123H73.9234C73.8175 80.6067 73.75 80.9198 73.75 81.2498C73.75 81.5798 73.8175 81.8929 73.9225 82.1873H69.8266C69.9325 81.8929 70 81.5798 70 81.2498C70 80.9198 69.9325 80.6067 69.8275 80.3123ZM77.5 78.4373H71.875V74.6873H73.75V76.5623H75.625V74.6873H77.5V78.4373ZM68.125 72.8123V69.0623H70V70.9373H71.875V69.0623H73.75V72.8123H68.125ZM67.1875 67.1873C66.6691 67.1873 66.25 67.6063 66.25 68.1248V72.8123H64.375V66.2498C64.375 65.7313 63.9559 65.3123 63.4375 65.3123H59.6875V67.1873H62.5V79.3748C62.5 79.8932 62.9191 80.3123 63.4375 80.3123H64.5475C64.4425 80.6067 64.375 80.9198 64.375 81.2498C64.375 81.5798 64.4425 81.8929 64.5475 82.1873H60.625V77.4998C60.625 76.9813 60.2059 76.5623 59.6875 76.5623H53.125V71.8748C53.125 71.3563 52.7059 70.9373 52.1875 70.9373H45.625V66.2498C45.625 65.7313 45.2059 65.3123 44.6875 65.3123H38.125V63.4373H71.875V67.1873H67.1875ZM38.125 76.5623V72.8123H40V74.6873H41.875V72.8123H43.75V76.5623H38.125ZM41.875 69.0623V67.1873H43.75V70.9373H38.125V67.1873H40V69.0623H41.875ZM49.375 74.6873V72.8123H51.25V76.5623H45.625V72.8123H47.5V74.6873H49.375ZM45.625 78.4373H47.5V80.3123H49.375V78.4373H51.25V82.1873H45.625V78.4373ZM53.125 78.4373H55V80.3123H56.875V78.4373H58.75V82.1873H53.125V78.4373ZM71.875 61.5623H38.125V59.6873H71.875V61.5623ZM71.875 55.9373V57.8123H38.125V55.9373H71.875ZM38.125 78.4373H40V80.3123H41.875V78.4373H43.75V82.1873H38.125V78.4373Z" fill="#1040E2"/>
<path d="M43.75 44.6875C43.2316 44.6875 42.8125 45.1066 42.8125 45.625V51.25C42.8125 51.7684 43.2316 52.1875 43.75 52.1875H66.25C66.7684 52.1875 67.1875 51.7684 67.1875 51.25V45.625C67.1875 45.1066 66.7684 44.6875 66.25 44.6875H43.75ZM65.3125 50.3125H44.6875V46.5625H65.3125V50.3125Z" fill="#1040E2"/>
</svg>
