<svg width="20" height="20" viewBox="0 0 20 20" fill="none" xmlns="http://www.w3.org/2000/svg">
<path d="M9.96094 0C4.45547 0 0 4.45508 0 9.96094C0 15.4256 4.41504 20 9.96094 20C15.4548 20 20 15.4721 20 9.96094C20 4.40898 15.4196 0 9.96094 0ZM9.96094 18.8359C5.11465 18.8359 1.16406 14.8503 1.16406 9.96094C1.16406 5.11465 5.11465 1.16406 9.96094 1.16406C14.8503 1.16406 18.8359 5.11465 18.8359 9.96094C18.8359 14.8503 14.8503 18.8359 9.96094 18.8359Z" fill="#1040E2"/>
<path d="M9.96094 3.51562C6.40699 3.51562 3.51562 6.40699 3.51562 9.96094C3.51562 13.5282 6.40105 16.4844 9.96094 16.4844C11.4013 16.4844 12.8584 16.0003 13.9586 15.1562C14.2153 14.9592 14.2638 14.5914 14.0668 14.3346C13.8698 14.0779 13.5019 14.0295 13.2452 14.2264C12.3456 14.9166 11.1486 15.3203 9.96094 15.3203C7.05316 15.3203 4.6875 12.9118 4.6875 9.96094C4.6875 7.05316 7.05316 4.67969 9.96094 4.67969C12.9118 4.67969 15.3125 7.05316 15.3125 9.96094V10.5469C15.3125 11.193 14.7868 11.7188 14.1406 11.7188C13.4945 11.7188 12.9688 11.193 12.9688 10.5469C12.9688 10.2566 12.9688 7.92328 12.9688 7.61719C12.9688 7.29359 12.7064 7.03125 12.3828 7.03125C12.0592 7.03125 11.7969 7.29359 11.7969 7.61719V7.65434C11.2677 7.25086 10.6277 7.03125 9.96094 7.03125C8.34551 7.03125 7.03125 8.34551 7.03125 9.96094C7.03125 11.5764 8.34551 12.8906 9.96094 12.8906C10.8368 12.8906 11.6429 12.5148 12.2162 11.8823C12.64 12.4911 13.3443 12.8906 14.1406 12.8906C15.433 12.8906 16.4844 11.8392 16.4844 10.5469V9.96094C16.4844 6.39633 13.5238 3.51562 9.96094 3.51562ZM9.96094 11.7266C8.99168 11.7266 8.20312 10.9302 8.20312 9.96094C8.20312 8.99168 8.99168 8.19531 9.96094 8.19531C10.9561 8.19531 11.7969 9.00809 11.7969 9.96094C11.7969 10.9138 10.9561 11.7266 9.96094 11.7266Z" fill="#1040E2"/>
</svg>
