<svg width="20" height="20" viewBox="0 0 20 20" fill="none" xmlns="http://www.w3.org/2000/svg">
<path d="M15.4571 14.2913L14.2245 13.7352C15.587 12.5525 16.4499 10.8088 16.4499 8.86721V6.44533C16.4499 2.89137 13.5586 0 10.0046 0C6.45067 0 3.56711 2.89137 3.56711 6.44533V8.86721C3.56711 9.83646 4.34785 10.625 5.31711 10.625H6.29934C6.49575 11.0373 6.7668 11.4118 7.08274 11.7346C7.08274 12.0843 7.08274 12.7283 7.0827 13.1489L4.54281 14.2913C3.61863 14.617 3.08109 15.6036 3.31078 16.5578L3.88957 19.5262C3.94324 19.8014 4.1843 20 4.46469 20H12.3484H14.6921H15.5353C15.8156 20 16.0567 19.8014 16.1104 19.5262L16.6892 16.5578C16.9189 15.6036 16.3813 14.617 15.4571 14.2913ZM13.0193 13.1914L12.9344 13.1531C12.9343 12.7326 12.9343 12.0854 12.9343 11.7345C13.2503 11.4117 13.5135 11.0373 13.7099 10.625H14.6921C14.792 10.625 14.8898 10.6162 14.9852 10.6001C14.6165 11.6568 13.9206 12.5612 13.0193 13.1914ZM15.2859 6.44533V8.86721C15.2859 9.19029 15.0153 9.45314 14.6922 9.45314H14.1062C14.1062 9.16045 14.1062 6.75415 14.1062 6.44533V5.85939H14.6922C15.0152 5.85939 15.2859 6.12224 15.2859 6.44533ZM5.9109 9.45314H5.31715C4.99406 9.45314 4.73121 9.19029 4.73121 8.86721V6.44533C4.73121 6.12224 4.99406 5.85157 5.31715 5.85157H5.9109C5.89594 6.97333 5.9109 7.92966 5.9109 9.45314ZM6.29934 4.69532C5.22633 4.69532 5.21512 4.6802 5.02403 4.71243C5.74246 2.65333 7.70364 1.17188 10.0046 1.17188C12.3056 1.17188 14.2667 2.65333 14.9852 4.71243C14.794 4.68017 14.7822 4.69532 13.7099 4.69532C13.041 3.29114 11.6161 2.34375 10.0046 2.34375C8.37173 2.34375 6.95879 3.31083 6.29934 4.69532ZM12.3475 4.68833C11.7978 5.41802 10.9289 5.85939 10.0046 5.85939H7.13387C7.40606 4.52376 8.58981 3.51563 10.0046 3.51563C10.9615 3.51563 11.8125 3.97677 12.3475 4.68833ZM7.07493 8.86721V7.03126H10.0046C11.0882 7.03126 12.1172 6.59802 12.875 5.85755C12.9138 6.04751 12.9421 6.24407 12.9421 6.44533V8.86721C12.9421 10.4826 11.6201 11.7969 10.0046 11.7969C8.38919 11.7969 7.07493 10.4826 7.07493 8.86721ZM15.5483 16.2899C15.5458 16.2998 15.5436 16.3098 15.5417 16.3199L15.0526 18.8282H14.6921H12.3484H4.94738L4.45828 16.3199C4.45633 16.3098 4.4541 16.2998 4.45164 16.2899C4.35676 15.9104 4.57313 15.5162 4.94426 15.3925C4.98625 15.3785 4.79883 15.4614 7.90169 14.0615C8.11161 13.9668 8.24657 13.7579 8.24665 13.5276C8.24669 13.4198 8.24673 13.0021 8.24673 12.5725C8.77981 12.8264 9.37583 12.9688 10.0045 12.9688C10.6333 12.9688 11.2371 12.8264 11.7702 12.5725C11.7702 13.0076 11.7702 13.4306 11.7703 13.5319C11.7703 13.6322 11.7882 13.7285 11.8345 13.813C11.2642 14.0247 10.6477 14.1407 10.0045 14.1407C9.68095 14.1407 9.4186 14.403 9.4186 14.7266C9.4186 15.0502 9.68095 15.3125 10.0045 15.3125C11.1279 15.3125 12.1849 15.0234 13.1054 14.516C15.1577 15.4419 15.015 15.379 15.0556 15.3925C15.4268 15.5162 15.6432 15.9104 15.5483 16.2899Z" fill="#1040E2"/>
</svg>
