<svg width="20" height="20" viewBox="0 0 20 20" fill="none" xmlns="http://www.w3.org/2000/svg">
<g clip-path="url(#clip0)">
<path d="M19.4856 14.7513L16.9993 12.265C16.3138 11.5796 15.1984 11.5796 14.513 12.265L13.3829 13.3951C12.8636 13.9144 12.0186 13.9143 11.4995 13.3953L6.60105 8.4927C6.08054 7.97219 6.08046 7.12973 6.60105 6.60915C6.78308 6.42711 7.30577 5.90442 7.73116 5.47903C8.41363 4.79661 8.42316 3.68469 7.7305 2.99211L5.24487 0.514297C4.5594 -0.171133 3.44405 -0.171133 2.76041 0.512501C2.24885 1.01961 2.08385 1.1832 1.85447 1.41059C-0.617406 3.88243 -0.617406 7.90442 1.85436 10.3762L9.61578 18.1417C12.0934 20.6194 16.1036 20.6195 18.5815 18.1417L19.4856 17.2376C20.1711 16.5521 20.1711 15.4368 19.4856 14.7513ZM3.58737 1.34305C3.81584 1.11457 4.18756 1.11453 4.41678 1.34367L6.90241 3.82149C7.13144 4.05051 7.13144 4.42118 6.90241 4.65024L6.488 5.06461L3.1751 1.75172L3.58737 1.34305ZM10.4447 17.313L2.68323 9.54747C0.7708 7.63504 0.665682 4.63211 2.35994 2.5941L5.66323 5.89739C4.79526 6.88133 4.83143 8.38067 5.7721 9.32134L10.6704 14.2237C10.6704 14.2238 10.6705 14.2238 10.6705 14.2239C11.6102 15.1636 13.1095 15.2021 14.0946 14.3329L17.398 17.6363C15.3665 19.3276 12.3703 19.2386 10.4447 17.313ZM18.6569 16.4088L18.2425 16.8232L14.9274 13.5081L15.3418 13.0938C15.5703 12.8653 15.942 12.8652 16.1706 13.0938L18.6568 15.5801C18.8854 15.8086 18.8854 16.1804 18.6569 16.4088Z" fill="#1040E2"/>
</g>
<defs>
<clipPath id="clip0">
<rect width="20" height="20" fill="white"/>
</clipPath>
</defs>
</svg>
