<svg width="510" height="457" viewBox="0 0 510 457" fill="none" xmlns="http://www.w3.org/2000/svg">
<path d="M421.27 103.258C400.269 91.7581 378.39 87.1422 354.514 90.098C325.104 93.7287 301.876 98.0072 273.735 87.0477C250.075 77.8428 228.466 64.1029 205.899 52.7115C159.739 29.2943 113.917 22.0464 79.3112 68.2329C60.9014 92.8109 46.9185 121.033 37.2682 150.807C21.6657 198.843 8.84365 252.034 15.8756 302.202C24.77 365.8 79.3112 395.655 144.555 372.616C170.942 363.303 196.411 349.671 224.552 345.771C283.439 337.591 331.974 391.66 402.59 378.514C524.306 355.893 515.317 154.748 421.27 103.258Z" fill="#1040E2"/>
<path opacity="0.7" d="M421.27 103.258C400.269 91.7581 378.39 87.1422 354.514 90.098C325.104 93.7287 301.876 98.0072 273.735 87.0477C250.075 77.8428 228.466 64.1029 205.899 52.7115C159.739 29.2943 113.917 22.0464 79.3112 68.2329C60.9014 92.8109 46.9185 121.033 37.2682 150.807C21.6657 198.843 8.84365 252.034 15.8756 302.202C24.77 365.8 79.3112 395.655 144.555 372.616C170.942 363.303 196.411 349.671 224.552 345.771C283.439 337.591 331.974 391.66 402.59 378.514C524.306 355.893 515.317 154.748 421.27 103.258Z" fill="white"/>
<path d="M439.693 51.4432C431.122 46.7598 427.235 50.6604 424.118 46.7598C421 42.8592 432.688 32.7365 409.271 22.6137C409.271 22.6137 407.719 0.802678 375.772 0.0198554C343.824 -0.762967 352.435 21.8309 343.865 27.2837C335.294 32.7365 332.959 24.2199 324.389 29.6187C315.818 35.0174 319.719 45.977 312.714 47.5291C305.709 49.0812 296.342 40.5242 287.771 45.977C279.201 51.4297 279.201 56.0997 275.314 56.0997C271.427 56.0997 263.625 52.9819 258.955 56.0997C254.285 59.2175 248.819 63.1181 248.819 63.1181H445.875C445.875 63.1181 448.264 56.1132 439.693 51.4432Z" fill="#1040E2"/>
<path opacity="0.5" d="M439.693 51.4432C431.122 46.7598 427.235 50.6604 424.118 46.7598C421 42.8592 432.688 32.7365 409.271 22.6137C409.271 22.6137 407.719 0.802678 375.772 0.0198554C343.824 -0.762967 352.435 21.8309 343.865 27.2837C335.294 32.7365 332.959 24.2199 324.389 29.6187C315.818 35.0174 319.719 45.977 312.714 47.5291C305.709 49.0812 296.342 40.5242 287.771 45.977C279.201 51.4297 279.201 56.0997 275.314 56.0997C271.427 56.0997 263.625 52.9819 258.955 56.0997C254.285 59.2175 248.819 63.1181 248.819 63.1181H445.875C445.875 63.1181 448.264 56.1132 439.693 51.4432Z" fill="white"/>
<path d="M216.224 226.539C210.204 223.259 207.465 225.986 205.278 223.259C203.092 220.533 211.298 213.406 194.885 206.294C194.885 206.294 193.792 190.974 171.347 190.421C148.901 189.868 154.934 205.74 148.915 209.573C142.895 213.406 141.262 207.387 135.242 211.22C129.223 215.053 131.949 222.706 127.036 223.799C122.123 224.892 115.537 218.873 109.49 222.706C103.444 226.539 103.471 229.819 100.744 229.819C98.0179 229.819 92.5246 227.632 89.2448 229.819C85.9651 232.005 82.132 234.745 82.132 234.745H220.597C220.597 234.745 222.244 229.819 216.224 226.539Z" fill="white"/>
<path opacity="0.5" d="M216.224 226.539C210.204 223.259 207.465 225.986 205.278 223.259C203.092 220.533 211.298 213.406 194.885 206.294C194.885 206.294 193.792 190.974 171.347 190.421C148.901 189.868 154.934 205.74 148.915 209.573C142.895 213.406 141.262 207.387 135.242 211.22C129.223 215.053 131.949 222.706 127.036 223.799C122.123 224.892 115.537 218.873 109.49 222.706C103.444 226.539 103.471 229.819 100.744 229.819C98.0179 229.819 92.5246 227.632 89.2448 229.819C85.9651 232.005 82.132 234.745 82.132 234.745H220.597C220.597 234.745 222.244 229.819 216.224 226.539Z" fill="white"/>
<path d="M387.352 454.596H472.653C471.02 444.163 464.312 445.999 463.421 429.829C462.975 421.731 470.52 411.609 469.859 400.919C469.319 392.106 460.64 383.076 459.966 372.994C459.358 363.897 466.714 353.801 466.053 344.002C465.364 334.743 456.605 325.849 455.782 316.212C455.026 306.764 462.287 296.628 461.423 287.126C460.559 277.624 451.611 268.892 450.626 259.525C449.64 249.902 456.672 239.536 455.593 230.331C454.459 220.546 445.227 212.097 443.972 203.081C442.622 193.053 449.114 182.336 447.589 173.671C445.713 163.062 435.833 155.383 433.755 147.554C429.881 132.964 430.367 118.914 425.791 117.996C420.919 117.024 419.799 130.805 416.101 146.205C414.238 153.938 404.588 161.78 402.995 172.402C401.713 181 408.542 191.46 407.422 201.448C406.423 210.396 397.421 218.994 396.543 228.725C395.72 237.876 403.022 247.958 402.307 257.527C401.605 266.827 392.859 275.694 392.278 285.142C391.698 294.59 399.202 304.47 398.689 313.796C398.163 323.352 389.593 332.382 389.147 341.573C388.688 351.304 396.368 361.117 395.99 370.133C395.572 380.134 387.123 389.285 386.812 398.031C386.434 408.639 394.222 418.425 393.979 426.509C393.466 444.055 385.435 440.398 385.152 454.515L387.352 454.596Z" fill="#1040E2"/>
<path d="M423.969 146.029V450.655" stroke="black" stroke-miterlimit="10"/>
<path d="M437.291 177.963L423.402 189.962L412.038 174.804" stroke="black" stroke-miterlimit="10"/>
<path d="M437.291 230.992L423.402 242.977L412.038 227.834" stroke="black" stroke-miterlimit="10"/>
<path d="M437.291 280.85L423.402 292.849L412.038 277.692" stroke="black" stroke-miterlimit="10"/>
<path d="M437.291 340.196L423.402 352.182L412.038 337.038" stroke="black" stroke-miterlimit="10"/>
<path d="M437.291 400.163L423.402 412.148L412.038 397.005" stroke="black" stroke-miterlimit="10"/>
<path d="M329.248 454.596H395.099C393.83 446.498 388.661 447.955 387.973 435.484C387.622 429.195 393.439 421.42 392.94 413.16C392.521 406.412 385.827 399.38 385.3 391.565C384.828 384.547 390.551 376.719 389.997 369.187C389.471 362.034 382.682 355.177 382.075 347.741C381.467 340.304 387.096 332.611 386.434 325.282C385.773 317.953 378.849 311.204 378.12 303.983C377.364 296.547 382.79 288.557 381.953 281.43C381.076 273.885 373.949 267.366 372.991 260.415C371.911 252.668 376.959 244.394 375.772 237.713C374.327 229.521 366.702 223.582 365.109 217.549C362.113 206.293 362.491 195.428 358.954 194.726C355.189 193.97 354.325 204.605 351.477 216.51C350.046 222.475 342.583 228.536 341.354 236.755C340.369 243.396 345.633 251.467 344.769 259.174C344 266.084 337.062 272.671 336.374 280.229C335.74 287.288 341.381 295.076 340.828 302.458C340.288 309.639 333.553 316.482 333.081 323.77C332.608 331.058 338.479 338.698 338.034 345.891C337.589 353.085 331.016 360.239 330.678 367.338C330.314 374.842 336.239 382.414 335.956 389.379C335.632 397.099 329.113 404.225 328.87 410.974C328.573 419.153 334.592 426.725 334.403 432.947C333.999 446.444 327.803 443.677 327.587 454.542L329.248 454.596Z" fill="#1040E2"/>
<path d="M357.524 216.415V451.559" stroke="black" stroke-miterlimit="10"/>
<path d="M367.795 241.062L357.078 250.32L348.305 238.619" stroke="black" stroke-miterlimit="10"/>
<path d="M367.795 281.983L357.078 291.242L348.305 279.554" stroke="black" stroke-miterlimit="10"/>
<path d="M367.795 320.477L357.078 329.736L348.305 318.048" stroke="black" stroke-miterlimit="10"/>
<path d="M367.795 366.286L357.078 375.545L348.305 363.843" stroke="black" stroke-miterlimit="10"/>
<path d="M367.795 412.581L357.078 421.826L348.305 410.138" stroke="black" stroke-miterlimit="10"/>
<path d="M270.549 453.963V181.082H284.951V453.963" fill="#2E353A"/>
<path d="M270.549 453.963V181.082H284.951V453.963" stroke="#2E353A" stroke-linecap="round" stroke-linejoin="round"/>
<path d="M263.356 453.963V181.082H277.757V453.963" fill="#1040E2"/>
<path d="M263.356 453.963V181.082H277.757V453.963" stroke="#2E353A" stroke-linecap="round" stroke-linejoin="round"/>
<g style="mix-blend-mode:multiply" opacity="0.3">
<path d="M277.757 181.082H263.356V213.474H277.757V181.082Z" fill="#2E353A"/>
</g>
<path d="M324.807 74.5493H218.1L264.611 188.787H371.331V121.06C371.331 114.951 370.128 108.902 367.79 103.258C365.451 97.6141 362.024 92.4862 357.704 88.1672C353.383 83.8481 348.255 80.4224 342.61 78.0859C336.966 75.7493 330.916 74.5475 324.807 74.5493Z" fill="#1040E2" stroke="#2E353A" stroke-linecap="round" stroke-linejoin="round"/>
<g style="mix-blend-mode:multiply" opacity="0.3">
<path d="M256.472 168.785L264.57 188.788H371.331V121.06C371.331 120.034 371.331 119.008 371.223 117.996H256.499L256.472 168.785Z" fill="black"/>
</g>
<path d="M324.024 117.996H312.795" stroke="#2E353A" stroke-linecap="round" stroke-linejoin="round"/>
<path d="M371.223 117.996H337.238" stroke="#2E353A" stroke-linecap="round" stroke-linejoin="round"/>
<path d="M218.1 74.5493C230.439 74.5493 242.273 79.4509 250.998 88.1759C259.723 96.9008 264.624 108.734 264.624 121.073V188.801H171.576V121.06C171.58 108.723 176.483 96.8931 185.208 88.1711C193.932 79.4491 205.764 74.5493 218.1 74.5493Z" fill="#2E353A" stroke="#2E353A" stroke-linecap="round" stroke-linejoin="round"/>
<path d="M264.611 181.082H184.439V188.788H264.611V181.082Z" fill="#1040E2" stroke="#2E353A" stroke-linecap="round" stroke-linejoin="round"/>
<path d="M264.611 181.082H98.6929V188.788H264.611V181.082Z" fill="#1040E2" stroke="#2E353A" stroke-linecap="round" stroke-linejoin="round"/>
<path opacity="0.3" d="M264.611 181.082H184.439V188.788H264.611V181.082Z" fill="black"/>
<path d="M331.745 47.0159H298.448V70.4061H331.745V47.0159Z" fill="#2E353A" stroke="#2E353A" stroke-linecap="round" stroke-linejoin="round"/>
<path d="M301.147 47.0159H293.953V119.899H301.147V47.0159Z" fill="white" stroke="#2E353A" stroke-linecap="round" stroke-linejoin="round"/>
<path d="M297.543 129.793C302.016 129.793 305.641 126.167 305.641 121.695C305.641 117.222 302.016 113.596 297.543 113.596C293.071 113.596 289.445 117.222 289.445 121.695C289.445 126.167 293.071 129.793 297.543 129.793Z" fill="#2E353A" stroke="#2E353A" stroke-linecap="round" stroke-linejoin="round"/>
<path d="M178.784 93.2563C197.572 102.799 230.234 118.091 260.359 125.784" stroke="white" stroke-linecap="round" stroke-linejoin="round" stroke-dasharray="2 4"/>
<path d="M163.019 84.9558C163.019 84.9558 169.039 88.357 178.784 93.3104" stroke="#2E353A" stroke-linecap="round" stroke-linejoin="round" stroke-dasharray="2 4"/>
<path d="M156.257 84.4568L169.768 52.3611L71.7933 28.458L156.257 84.4568Z" fill="white" stroke="#2E353A" stroke-width="1.2629" stroke-linecap="round" stroke-linejoin="round"/>
<path d="M162.844 56.2482L156.257 84.4568L71.7933 28.458L162.844 56.2482Z" fill="#1040E2" stroke="#2E353A" stroke-width="1.2629" stroke-linecap="round" stroke-linejoin="round"/>
<path d="M162.844 56.2482L147.471 69.4212L71.7933 28.458L162.844 56.2482Z" fill="white" stroke="#2E353A" stroke-width="1.2629" stroke-linecap="round" stroke-linejoin="round"/>
<path d="M169.768 52.3611L183.454 46.8004L71.7933 28.458L169.768 52.3611Z" fill="white" stroke="#2E353A" stroke-width="1.2629" stroke-linecap="round" stroke-linejoin="round"/>
<path d="M137.227 79.4636L140.398 81.4072" stroke="#2E353A" stroke-linecap="round" stroke-linejoin="round"/>
<path d="M119.924 68.8542L130.546 75.3598" stroke="#2E353A" stroke-linecap="round" stroke-linejoin="round"/>
<path d="M107.992 145.895V111.086L207.573 127.094L107.992 145.895Z" fill="white" stroke="#2E353A" stroke-width="1.2629" stroke-linecap="round" stroke-linejoin="round"/>
<path d="M112.865 117.349L107.992 145.895L207.573 127.094L112.865 117.349Z" fill="#1040E2" stroke="#2E353A" stroke-width="1.2629" stroke-linecap="round" stroke-linejoin="round"/>
<path d="M112.865 117.349L121.921 135.449L207.573 127.094L112.865 117.349Z" fill="white" stroke="#2E353A" stroke-width="1.2629" stroke-linecap="round" stroke-linejoin="round"/>
<path d="M107.992 111.086L97.5457 100.639L207.573 127.093L107.992 111.086Z" fill="white" stroke="#2E353A" stroke-width="1.2629" stroke-linecap="round" stroke-linejoin="round"/>
<path d="M143.651 145.247L152.289 143.492" stroke="#2E353A" stroke-linecap="round" stroke-linejoin="round"/>
<path d="M113.31 151.415L135.027 147.002" stroke="#2E353A" stroke-linecap="round" stroke-linejoin="round"/>
<path d="M95.9935 143.749C95.9935 143.749 17.7112 157.246 2.86453 227.43C-11.9821 297.614 66.3002 301.663 79.7971 267.921C93.2941 234.179 33.9075 220.682 20.4106 253.074C6.91362 285.467 47.4045 340.804 102.742 343.504C148.726 345.744 277.649 292.067 357.834 278.503C357.834 278.503 417.221 262.063 509 265.667" stroke="#2E353A" stroke-linecap="round" stroke-linejoin="round" stroke-dasharray="2 4"/>
<path d="M482.451 363.749H504.951" stroke="#2E353A" stroke-linecap="round" stroke-linejoin="round"/>
<path d="M482.451 397.033H504.951" stroke="#2E353A" stroke-linecap="round" stroke-linejoin="round"/>
<path d="M8.70868 396.142H479.752V364.64H8.70868" fill="white"/>
<path d="M8.70868 396.142H479.752V364.64H8.70868" stroke="#2E353A" stroke-linecap="round" stroke-linejoin="round"/>
<path d="M41.4523 454.179V295.698C41.4525 295.31 41.5316 294.925 41.6847 294.568C41.8378 294.21 42.0618 293.888 42.3431 293.62L54.6523 282.026C55.2066 281.508 55.9433 281.23 56.7019 281.252C57.4604 281.275 58.1791 281.597 58.7014 282.147L69.4989 293.633C69.9888 294.168 70.2629 294.865 70.2683 295.59V454.179" fill="#2E353A"/>
<path d="M41.4523 454.179V295.698C41.4525 295.31 41.5316 294.925 41.6847 294.568C41.8378 294.21 42.0618 293.888 42.3431 293.62L54.6523 282.026C55.2066 281.508 55.9433 281.23 56.7019 281.252C57.4604 281.275 58.1791 281.597 58.7014 282.147L69.4989 293.633C69.9888 294.168 70.2629 294.865 70.2683 295.59V454.179" stroke="#2E353A" stroke-linecap="round" stroke-linejoin="round"/>
<path d="M37.9566 455.528V295.697C37.9562 295.307 38.0363 294.922 38.1919 294.564C38.3475 294.206 38.5753 293.885 38.8609 293.619L51.1701 282.025C51.4438 281.767 51.7657 281.565 52.1174 281.431C52.4691 281.298 52.8438 281.235 53.2199 281.246C53.596 281.257 53.9661 281.343 54.3092 281.497C54.6523 281.652 54.9615 281.872 55.2192 282.147L66.0168 293.632C66.5123 294.163 66.7873 294.863 66.7861 295.589V455.528" fill="white"/>
<path d="M37.9566 455.528V295.697C37.9562 295.307 38.0363 294.922 38.1919 294.564C38.3475 294.206 38.5753 293.885 38.8609 293.619L51.1701 282.025C51.4438 281.767 51.7657 281.565 52.1174 281.431C52.4691 281.298 52.8438 281.235 53.2199 281.246C53.596 281.257 53.9661 281.343 54.3092 281.497C54.6523 281.652 54.9615 281.872 55.2192 282.147L66.0168 293.632C66.5123 294.163 66.7873 294.863 66.7861 295.589V455.528" stroke="#2E353A" stroke-linecap="round" stroke-linejoin="round"/>
<path d="M145.244 454.179V295.697C145.244 295.309 145.323 294.924 145.476 294.567C145.629 294.21 145.853 293.887 146.134 293.619L158.457 282.025C158.731 281.767 159.053 281.565 159.404 281.431C159.756 281.298 160.131 281.235 160.507 281.246C160.883 281.257 161.253 281.343 161.596 281.497C161.939 281.652 162.249 281.872 162.506 282.147L173.304 293.632C173.799 294.163 174.074 294.863 174.073 295.589V454.179" fill="#2E353A"/>
<path d="M145.244 454.179V295.697C145.244 295.309 145.323 294.924 145.476 294.567C145.629 294.21 145.853 293.887 146.134 293.619L158.457 282.025C158.731 281.767 159.053 281.565 159.404 281.431C159.756 281.298 160.131 281.235 160.507 281.246C160.883 281.257 161.253 281.343 161.596 281.497C161.939 281.652 162.249 281.872 162.506 282.147L173.304 293.632C173.799 294.163 174.074 294.863 174.073 295.589V454.179" stroke="#2E353A" stroke-linecap="round" stroke-linejoin="round"/>
<path d="M142.328 455.529V295.698C142.328 295.308 142.408 294.922 142.564 294.565C142.719 294.207 142.947 293.885 143.233 293.62L155.542 282.026C156.096 281.508 156.833 281.23 157.592 281.252C158.35 281.275 159.069 281.597 159.591 282.147L170.389 293.633C170.888 294.163 171.168 294.862 171.171 295.59V455.529" fill="white"/>
<path d="M142.328 455.529V295.698C142.328 295.308 142.408 294.922 142.564 294.565C142.719 294.207 142.947 293.885 143.233 293.62L155.542 282.026C156.096 281.508 156.833 281.23 157.592 281.252C158.35 281.275 159.069 281.597 159.591 282.147L170.389 293.633C170.888 294.163 171.168 294.862 171.171 295.59V455.529" stroke="#2E353A" stroke-linecap="round" stroke-linejoin="round"/>
<path d="M249.616 454.179V295.698C249.615 295.308 249.695 294.922 249.851 294.565C250.007 294.207 250.234 293.885 250.52 293.62L262.829 282.026C263.383 281.508 264.12 281.23 264.879 281.252C265.637 281.275 266.356 281.597 266.878 282.147L277.676 293.633C278.175 294.163 278.455 294.862 278.459 295.59V455.529" fill="#2E353A"/>
<path d="M249.616 454.179V295.698C249.615 295.308 249.695 294.922 249.851 294.565C250.007 294.207 250.234 293.885 250.52 293.62L262.829 282.026C263.383 281.508 264.12 281.23 264.879 281.252C265.637 281.275 266.356 281.597 266.878 282.147L277.676 293.633C278.175 294.163 278.455 294.862 278.459 295.59V455.529" stroke="#2E353A" stroke-linecap="round" stroke-linejoin="round"/>
<path d="M246.714 455.528V295.697C246.714 295.309 246.793 294.924 246.946 294.567C247.099 294.21 247.323 293.887 247.605 293.619L259.927 282.025C260.201 281.767 260.523 281.565 260.875 281.431C261.226 281.298 261.601 281.235 261.977 281.246C262.353 281.257 262.723 281.343 263.066 281.497C263.409 281.652 263.719 281.872 263.976 282.147L274.774 293.632C275.269 294.163 275.544 294.863 275.543 295.589V455.528" fill="white"/>
<path d="M246.714 455.528V295.697C246.714 295.309 246.793 294.924 246.946 294.567C247.099 294.21 247.323 293.887 247.605 293.619L259.927 282.025C260.201 281.767 260.523 281.565 260.875 281.431C261.226 281.298 261.601 281.235 261.977 281.246C262.353 281.257 262.723 281.343 263.066 281.497C263.409 281.652 263.719 281.872 263.976 282.147L274.774 293.632C275.269 294.163 275.544 294.863 275.543 295.589V455.528" stroke="#2E353A" stroke-linecap="round" stroke-linejoin="round"/>
<path d="M354.001 454.179V295.698C354.001 295.31 354.08 294.925 354.233 294.568C354.387 294.21 354.611 293.888 354.892 293.62L367.201 282.026C367.755 281.508 368.492 281.23 369.251 281.252C370.009 281.275 370.728 281.597 371.25 282.147L382.048 293.633C382.537 294.168 382.812 294.865 382.817 295.59V454.179" fill="#2E353A"/>
<path d="M354.001 454.179V295.698C354.001 295.31 354.08 294.925 354.233 294.568C354.387 294.21 354.611 293.888 354.892 293.62L367.201 282.026C367.755 281.508 368.492 281.23 369.251 281.252C370.009 281.275 370.728 281.597 371.25 282.147L382.048 293.633C382.537 294.168 382.812 294.865 382.817 295.59V454.179" stroke="#2E353A" stroke-linecap="round" stroke-linejoin="round"/>
<path d="M351.086 455.528V295.697C351.085 295.307 351.165 294.922 351.321 294.564C351.477 294.206 351.704 293.885 351.99 293.619L364.299 282.025C364.573 281.767 364.895 281.565 365.247 281.431C365.598 281.298 365.973 281.235 366.349 281.246C366.725 281.257 367.095 281.343 367.438 281.497C367.781 281.652 368.091 281.872 368.348 282.147L379.146 293.632C379.641 294.163 379.916 294.863 379.915 295.589V455.528" fill="white"/>
<path d="M351.086 455.528V295.697C351.085 295.307 351.165 294.922 351.321 294.564C351.477 294.206 351.704 293.885 351.99 293.619L364.299 282.025C364.573 281.767 364.895 281.565 365.247 281.431C365.598 281.298 365.973 281.235 366.349 281.246C366.725 281.257 367.095 281.343 367.438 281.497C367.781 281.652 368.091 281.872 368.348 282.147L379.146 293.632C379.641 294.163 379.916 294.863 379.915 295.589V455.528" stroke="#2E353A" stroke-linecap="round" stroke-linejoin="round"/>
<path d="M458.373 454.179V295.697C458.373 295.309 458.452 294.924 458.605 294.567C458.759 294.21 458.982 293.887 459.264 293.619L471.586 282.025C471.86 281.767 472.182 281.565 472.534 281.431C472.885 281.298 473.26 281.235 473.636 281.246C474.012 281.257 474.383 281.343 474.726 281.497C475.069 281.652 475.378 281.872 475.636 282.147L486.433 293.632C486.929 294.163 487.204 294.863 487.202 295.589V454.179" fill="#2E353A"/>
<path d="M458.373 454.179V295.697C458.373 295.309 458.452 294.924 458.605 294.567C458.759 294.21 458.982 293.887 459.264 293.619L471.586 282.025C471.86 281.767 472.182 281.565 472.534 281.431C472.885 281.298 473.26 281.235 473.636 281.246C474.012 281.257 474.383 281.343 474.726 281.497C475.069 281.652 475.378 281.872 475.636 282.147L486.433 293.632C486.929 294.163 487.204 294.863 487.202 295.589V454.179" stroke="#2E353A" stroke-linecap="round" stroke-linejoin="round"/>
<path d="M455.458 455.529V295.698C455.457 295.308 455.537 294.922 455.693 294.565C455.849 294.207 456.076 293.885 456.362 293.62L468.671 282.026C469.226 281.508 469.962 281.23 470.721 281.252C471.479 281.275 472.198 281.597 472.72 282.147L483.518 293.633C484.017 294.163 484.297 294.862 484.301 295.59V455.529" fill="white"/>
<path d="M455.458 455.529V295.698C455.457 295.308 455.537 294.922 455.693 294.565C455.849 294.207 456.076 293.885 456.362 293.62L468.671 282.026C469.226 281.508 469.962 281.23 470.721 281.252C471.479 281.275 472.198 281.597 472.72 282.147L483.518 293.633C484.017 294.163 484.297 294.862 484.301 295.59V455.529" stroke="#2E353A" stroke-linecap="round" stroke-linejoin="round"/>
<path d="M55.2057 282.147V293.7" stroke="#2E353A" stroke-linecap="round" stroke-linejoin="round"/>
<path d="M59.8351 288.112V315.457" stroke="#2E353A" stroke-linecap="round" stroke-linejoin="round"/>
<path d="M148.011 290.352V324.945" stroke="#2E353A" stroke-linecap="round" stroke-linejoin="round"/>
<path d="M152.478 285.885V300.947" stroke="#2E353A" stroke-linecap="round" stroke-linejoin="round"/>
<path d="M259.927 282.025V316.023" stroke="#2E353A" stroke-linecap="round" stroke-linejoin="round"/>
<path d="M266.338 284.765V335.001" stroke="#2E353A" stroke-linecap="round" stroke-linejoin="round"/>
<path d="M356.188 290.352V328.292" stroke="#2E353A" stroke-linecap="round" stroke-linejoin="round"/>
<path d="M370.697 285.885V295.373" stroke="#2E353A" stroke-linecap="round" stroke-linejoin="round"/>
<path d="M465.014 285.318V305.415" stroke="#2E353A" stroke-linecap="round" stroke-linejoin="round"/>
<path d="M477.296 287.559V345.595" stroke="#2E353A" stroke-linecap="round" stroke-linejoin="round"/>
<path d="M454.972 372.387H442.689" stroke="#2E353A" stroke-linecap="round" stroke-linejoin="round"/>
<path d="M454.972 381.876H411.997" stroke="#2E353A" stroke-linecap="round" stroke-linejoin="round"/>
<path d="M294.79 381.876H275.26" stroke="#2E353A" stroke-linecap="round" stroke-linejoin="round"/>
<path d="M192.105 381.876H172.575" stroke="#2E353A" stroke-linecap="round" stroke-linejoin="round"/>
<path d="M37.5112 376.855H17.9811" stroke="#2E353A" stroke-linecap="round" stroke-linejoin="round"/>
<path d="M37.5111 385.776H29.6964" stroke="#2E353A" stroke-linecap="round" stroke-linejoin="round"/>
<path d="M284.748 376.855H275.26" stroke="#2E353A" stroke-linecap="round" stroke-linejoin="round"/>
<path d="M180.943 387.449H171.455" stroke="#2E353A" stroke-linecap="round" stroke-linejoin="round"/>
<path d="M141.316 387.449H131.828" stroke="#2E353A" stroke-linecap="round" stroke-linejoin="round"/>
<path d="M492.912 381.876H484.544" stroke="#2E353A" stroke-linecap="round" stroke-linejoin="round"/>
<path d="M504.074 381.876H499.053" stroke="#2E353A" stroke-linecap="round" stroke-linejoin="round"/>
<path d="M66.3001 323.852C66.3001 323.852 62.9258 352.857 58.8767 382.537C54.8277 412.216 62.251 442.584 64.2755 445.284" stroke="#2E353A" stroke-linecap="round" stroke-linejoin="round"/>
<path d="M52.9516 382.564C53.5995 376.774 54.1393 373.116 54.1393 373.116" stroke="#2E353A" stroke-linecap="round" stroke-linejoin="round"/>
<path d="M62.9124 441.91C62.9124 441.91 50.7651 439.211 50.7651 417.616C50.7651 408.748 51.332 399.665 52.0069 391.971" stroke="#2E353A" stroke-linecap="round" stroke-linejoin="round"/>
<path d="M164.828 289.434C164.828 289.434 167.527 291.459 162.803 314.404C158.079 337.348 158.754 371.091 164.828 389.987" stroke="#2E353A" stroke-linecap="round" stroke-linejoin="round"/>
<path d="M171.576 331.951C171.576 331.951 164.828 352.196 169.552 380.54" stroke="#2E353A" stroke-linecap="round" stroke-linejoin="round"/>
<path d="M248.509 344.759C248.509 344.759 251.883 364.329 255.257 384.561C258.632 404.793 255.932 433.15 253.233 440.56C250.533 447.97 247.834 454.057 247.834 454.057" stroke="#2E353A" stroke-linecap="round" stroke-linejoin="round"/>
<path d="M261.223 444.137C258.213 453.369 254.475 442.584 254.475 442.584" stroke="#2E353A" stroke-linecap="round" stroke-linejoin="round"/>
<path d="M261.102 375.14C261.102 375.14 267.459 407.951 263.868 432.651" stroke="#2E353A" stroke-linecap="round" stroke-linejoin="round"/>
<path d="M247.159 385.939C247.159 385.939 253.908 400.111 247.834 413.607" stroke="#2E353A" stroke-linecap="round" stroke-linejoin="round"/>
<path d="M373.086 387.936C373.989 392.061 375.175 396.12 376.635 400.083" stroke="#2E353A" stroke-linecap="round" stroke-linejoin="round"/>
<path d="M378.66 317.778C374.378 331.372 371.661 345.409 370.562 359.619C370.159 366.808 370.562 374.02 371.763 381.119" stroke="#2E353A" stroke-linecap="round" stroke-linejoin="round"/>
<path d="M365.838 379.838C365.838 379.838 371.912 402.783 375.286 410.881C378.66 418.979 377.31 438.536 373.261 447.984" stroke="#2E353A" stroke-linecap="round" stroke-linejoin="round"/>
<path d="M456.915 327.901C456.915 327.901 470.412 352.196 457.59 391.998" stroke="#2E353A" stroke-linecap="round" stroke-linejoin="round"/>
<path d="M469.319 369.391C469.4 376.976 468.725 386.586 465.688 394.684C459.615 410.88 456.915 416.279 456.915 416.279" stroke="#2E353A" stroke-linecap="round" stroke-linejoin="round"/>
<path d="M468.388 356.245C468.388 356.245 468.833 359.147 469.103 363.614" stroke="#2E353A" stroke-linecap="round" stroke-linejoin="round"/>
</svg>
