<svg width="521" height="462" viewBox="0 0 521 462" fill="none" xmlns="http://www.w3.org/2000/svg">
<g clip-path="url(#clip0)">
<path d="M355.402 42.0237C348.204 38.9325 340.898 36.0295 333.552 33.1668C302.276 21.071 270.114 10.4535 236.742 5.9915C172.551 -2.51591 108.011 14.7005 69.913 70.3548C58.1986 87.6719 50.0796 107.168 46.038 127.685C41.9964 148.203 42.1145 169.324 46.3852 189.795C62.621 265.515 133.392 307.044 201.612 329.743C244.451 343.99 288.243 356.623 333.418 345.549C386.315 332.566 431.37 291.494 452.024 241.309C471.55 193.853 468.635 137.823 435.694 97.1942C416.383 73.4325 383.253 53.9986 355.402 42.0237Z" fill="#7292FF"/>
<path d="M260.606 461.911C404.408 461.911 520.982 455.099 520.982 446.697C520.982 438.295 404.408 431.483 260.606 431.483C116.804 431.483 0.229553 438.295 0.229553 446.697C0.229553 455.099 116.804 461.911 260.606 461.911Z" fill="#1040E2" fill-opacity="0.15"/>
<path d="M337.474 37.0518H182.932C172.089 37.0518 163.299 45.8489 163.299 56.7008V427.035C163.299 437.887 172.089 446.684 182.932 446.684H337.474C348.317 446.684 357.107 437.887 357.107 427.035V56.7008C357.107 45.8489 348.317 37.0518 337.474 37.0518Z" fill="#1040E2"/>
<path opacity="0.7" d="M337.474 37.0518H182.932C172.089 37.0518 163.299 45.8489 163.299 56.7008V427.035C163.299 437.887 172.089 446.684 182.932 446.684H337.474C348.317 446.684 357.107 437.887 357.107 427.035V56.7008C357.107 45.8489 348.317 37.0518 337.474 37.0518Z" fill="white"/>
<path d="M342.657 36.3525H188.116C177.273 36.3525 168.482 45.1497 168.482 56.0016V426.336C168.482 437.188 177.273 445.985 188.116 445.985H342.657C353.501 445.985 362.291 437.188 362.291 426.336V56.0016C362.291 45.1497 353.501 36.3525 342.657 36.3525Z" fill="#1040E2"/>
<path opacity="0.2" d="M342.657 36.3525H188.116C177.273 36.3525 168.482 45.1497 168.482 56.0016V426.336C168.482 437.188 177.273 445.985 188.116 445.985H342.657C353.501 445.985 362.291 437.188 362.291 426.336V56.0016C362.291 45.1497 353.501 36.3525 342.657 36.3525Z" fill="black"/>
<path d="M272.947 427.935C272.95 429.667 272.439 431.36 271.479 432.801C270.52 434.242 269.155 435.365 267.557 436.029C265.959 436.693 264.2 436.868 262.503 436.53C260.806 436.193 259.247 435.36 258.023 434.135C256.8 432.911 255.967 431.351 255.63 429.652C255.293 427.954 255.467 426.193 256.131 424.594C256.794 422.995 257.917 421.629 259.356 420.668C260.796 419.708 262.488 419.197 264.218 419.199C266.533 419.199 268.754 420.12 270.391 421.758C272.028 423.396 272.947 425.618 272.947 427.935Z" fill="#1040E2"/>
<path opacity="0.4" d="M272.947 427.935C272.95 429.667 272.439 431.36 271.479 432.801C270.52 434.242 269.155 435.365 267.557 436.029C265.959 436.693 264.2 436.868 262.503 436.53C260.806 436.193 259.247 435.36 258.023 434.135C256.8 432.911 255.967 431.351 255.63 429.652C255.293 427.954 255.467 426.193 256.131 424.594C256.794 422.995 257.917 421.629 259.356 420.668C260.796 419.708 262.488 419.197 264.218 419.199C266.533 419.199 268.754 420.12 270.391 421.758C272.028 423.396 272.947 425.618 272.947 427.935Z" fill="black"/>
<path d="M360.733 415.127H167.892V63.1116H362.076L360.733 415.127Z" fill="#1040E2"/>
<path opacity="0.8" d="M362.438 414.939L167.784 415.167V63.1379L362.264 62.9363L362.438 414.939Z" fill="white"/>
<path opacity="0.33" d="M153.214 69.0112H151.871V86.7787H153.214V69.0112Z" fill="#1040E2"/>
<path opacity="0.33" d="M153.214 91.7112H151.871V97.2753H153.214V91.7112Z" fill="#1040E2"/>
<path d="M320.365 77.6802H186.598C179.226 77.6802 173.25 83.6613 173.25 91.0394V170.953C173.25 178.331 179.226 184.312 186.598 184.312H320.365C327.737 184.312 333.714 178.331 333.714 170.953V91.0394C333.714 83.6613 327.737 77.6802 320.365 77.6802Z" fill="white"/>
<path opacity="0.27" d="M204.684 118.722C213.737 114.934 218.007 104.518 214.222 95.458C210.437 86.3979 200.03 82.124 190.977 85.9121C181.924 89.7002 177.654 100.116 181.439 109.176C185.224 118.236 195.631 122.51 204.684 118.722Z" fill="#1040E2"/>
<path d="M212.503 102.315C212.514 104.758 211.904 107.163 210.73 109.304C209.026 112.449 206.233 114.864 202.876 116.093C199.519 117.322 195.828 117.281 192.499 115.978C189.169 114.675 186.43 112.2 184.796 109.018C183.162 105.836 182.745 102.166 183.625 98.6984C184.504 95.2306 186.619 92.2038 189.572 90.187C192.525 88.1702 196.112 87.3024 199.659 87.7467C203.207 88.191 206.47 89.9168 208.835 92.5996C211.2 95.2825 212.504 98.7376 212.503 102.315Z" fill="white"/>
<path opacity="0.27" d="M210.73 109.291C209.472 111.614 207.609 113.554 205.34 114.906C203.071 116.259 200.479 116.972 197.838 116.972C195.197 116.972 192.606 116.259 190.336 114.906C188.067 113.554 186.205 111.614 184.946 109.291C188.763 106.741 193.249 105.38 197.838 105.38C202.427 105.38 206.914 106.741 210.73 109.291Z" fill="#1040E2"/>
<path opacity="0.27" d="M197.838 103.807C201.443 103.807 204.365 100.883 204.365 97.2754C204.365 93.668 201.443 90.7437 197.838 90.7437C194.234 90.7437 191.312 93.668 191.312 97.2754C191.312 100.883 194.234 103.807 197.838 103.807Z" fill="#1040E2"/>
<path d="M323.87 194.163H183.093C177.657 194.163 173.25 198.574 173.25 204.014V221.634C173.25 227.075 177.657 231.485 183.093 231.485H323.87C329.307 231.485 333.714 227.075 333.714 221.634V204.014C333.714 198.574 329.307 194.163 323.87 194.163Z" fill="white"/>
<path opacity="0.6" d="M360.988 235.101L379.963 287.435C380.453 288.804 380.381 290.311 379.765 291.628C379.149 292.945 378.037 293.964 376.673 294.464L277.124 330.604C275.757 331.094 274.253 331.025 272.938 330.411C271.623 329.797 270.603 328.688 270.1 327.325L251.125 274.977C250.633 273.61 250.703 272.103 251.32 270.788C251.936 269.472 253.05 268.456 254.415 267.961L353.965 231.808C355.333 231.319 356.839 231.39 358.154 232.007C359.47 232.623 360.488 233.736 360.988 235.101Z" fill="#1040E2"/>
<path d="M357.98 231.929L329.524 278.794C326.889 283.139 322.849 286.453 318.074 288.186C313.299 289.919 308.076 289.967 303.27 288.323L251.407 270.609C252.032 269.363 253.107 268.402 254.415 267.921L353.965 231.768C355.276 231.313 356.71 231.371 357.98 231.929Z" fill="#1040E2"/>
<path opacity="0.5" d="M357.98 231.929L329.524 278.794C326.889 283.139 322.849 286.453 318.074 288.186C313.299 289.919 308.076 289.967 303.27 288.323L251.407 270.609C252.032 269.363 253.107 268.402 254.415 267.921L353.965 231.768C355.276 231.313 356.71 231.371 357.98 231.929Z" fill="white"/>
<path opacity="0.6" d="M329.766 325.053L328.853 372.2C328.824 373.43 328.312 374.599 327.426 375.452C326.541 376.306 325.355 376.774 324.125 376.756L234.433 375.009C233.824 374.997 233.224 374.865 232.667 374.62C232.109 374.376 231.605 374.024 231.184 373.585C230.762 373.145 230.432 372.627 230.21 372.06C229.989 371.493 229.881 370.887 229.894 370.278L230.793 323.131C230.81 322.494 230.955 321.866 231.22 321.286C231.486 320.706 231.866 320.187 232.338 319.758C233.212 318.976 234.349 318.554 235.521 318.575L325.213 320.309C326.444 320.337 327.614 320.852 328.468 321.741C329.321 322.63 329.787 323.821 329.766 325.053Z" fill="#1040E2"/>
<path d="M328.355 321.626L291.613 350.011C288.206 352.641 284.004 354.029 279.702 353.946C275.4 353.863 271.255 352.314 267.951 349.554L232.405 319.758C233.279 318.976 234.415 318.554 235.587 318.576L325.28 320.309C326.433 320.351 327.529 320.82 328.355 321.626Z" fill="#1040E2"/>
<path opacity="0.5" d="M328.355 321.626L291.613 350.011C288.206 352.641 284.004 354.029 279.702 353.946C275.4 353.863 271.255 352.314 267.951 349.554L232.405 319.758C233.279 318.976 234.415 318.554 235.587 318.576L325.28 320.309C326.433 320.351 327.529 320.82 328.355 321.626Z" fill="white"/>
<path d="M239.294 47.4405C239.297 46.8297 239.48 46.2334 239.821 45.7268C240.162 45.2203 240.645 44.8262 241.21 44.5943C241.775 44.3624 242.395 44.3031 242.993 44.4238C243.592 44.5446 244.141 44.8401 244.571 45.2729C245.002 45.7057 245.295 46.2566 245.413 46.8558C245.531 47.4551 245.469 48.0759 245.235 48.64C245.001 49.204 244.605 49.686 244.097 50.0251C243.59 50.3641 242.993 50.5451 242.383 50.5451C241.976 50.5451 241.573 50.4647 241.198 50.3085C240.822 50.1523 240.481 49.9234 240.194 49.635C239.907 49.3465 239.68 49.0042 239.525 48.6276C239.371 48.251 239.292 47.8476 239.294 47.4405Z" fill="#1040E2"/>
<path d="M253.059 44.3494H278.722C279.54 44.3529 280.323 44.6797 280.902 45.2586C281.48 45.8376 281.807 46.6218 281.81 47.4405C281.81 48.2616 281.485 49.0492 280.906 49.6311C280.328 50.2129 279.542 50.5416 278.722 50.5451H253.059C252.238 50.5416 251.453 50.2129 250.874 49.6311C250.295 49.0492 249.97 48.2616 249.97 47.4405C249.974 46.6218 250.3 45.8376 250.879 45.2586C251.457 44.6797 252.241 44.3529 253.059 44.3494Z" fill="#1040E2"/>
<path opacity="0.4" d="M239.294 47.4405C239.297 46.8297 239.48 46.2334 239.821 45.7268C240.162 45.2203 240.645 44.8262 241.21 44.5943C241.775 44.3624 242.395 44.3031 242.993 44.4238C243.592 44.5446 244.141 44.8401 244.571 45.2729C245.002 45.7057 245.295 46.2566 245.413 46.8558C245.531 47.4551 245.469 48.0759 245.235 48.64C245.001 49.204 244.605 49.686 244.097 50.0251C243.59 50.3641 242.993 50.5451 242.383 50.5451C241.976 50.5451 241.573 50.4647 241.198 50.3085C240.822 50.1523 240.481 49.9234 240.194 49.635C239.907 49.3465 239.68 49.0042 239.525 48.6276C239.371 48.251 239.292 47.8476 239.294 47.4405Z" fill="black"/>
<path opacity="0.4" d="M253.059 44.3494H278.722C279.54 44.3529 280.323 44.6797 280.902 45.2586C281.48 45.8376 281.807 46.6218 281.81 47.4405C281.81 48.2616 281.485 49.0492 280.906 49.6311C280.328 50.2129 279.542 50.5416 278.722 50.5451H253.059C252.238 50.5416 251.453 50.2129 250.874 49.6311C250.295 49.0492 249.97 48.2616 249.97 47.4405C249.974 46.6218 250.3 45.8376 250.879 45.2586C251.457 44.6797 252.241 44.3529 253.059 44.3494Z" fill="black"/>
<path d="M362.559 106.629H349.761C346.787 106.629 344.376 109.042 344.376 112.019V151.035C344.376 154.011 346.787 156.424 349.761 156.424H362.559C365.533 156.424 367.944 154.011 367.944 151.035V112.019C367.944 109.042 365.533 106.629 362.559 106.629Z" fill="#1040E2"/>
<path opacity="0.8" d="M362.559 106.629H349.761C346.787 106.629 344.376 109.042 344.376 112.019V151.035C344.376 154.011 346.787 156.424 349.761 156.424H362.559C365.533 156.424 367.944 154.011 367.944 151.035V112.019C367.944 109.042 365.533 106.629 362.559 106.629Z" fill="white"/>
<path d="M363.902 170.791H348.419C346.186 170.791 344.376 172.602 344.376 174.836V194.835C344.376 197.069 346.186 198.88 348.419 198.88H363.902C366.135 198.88 367.944 197.069 367.944 194.835V174.836C367.944 172.602 366.135 170.791 363.902 170.791Z" fill="#1040E2"/>
<path opacity="0.8" d="M363.902 170.791H348.419C346.186 170.791 344.376 172.602 344.376 174.836V194.835C344.376 197.069 346.186 198.88 348.419 198.88H363.902C366.135 198.88 367.944 197.069 367.944 194.835V174.836C367.944 172.602 366.135 170.791 363.902 170.791Z" fill="white"/>
<path d="M192.091 405.289L201.961 406.243L212.234 382.737L202.364 381.77L192.091 405.289Z" fill="#E4897B"/>
<path d="M91.8965 333.292L97.5233 341.826L119.09 331.518L113.45 322.97L91.8965 333.292Z" fill="#E4897B"/>
<path d="M212.234 382.737L206.943 394.86H196.643L202.351 381.77L212.234 382.737Z" fill="#CE6F64"/>
<path d="M113.45 322.983L119.077 331.518L107.971 336.826L102.331 328.292L113.45 322.983Z" fill="#CE6F64"/>
<path d="M303.082 164.703L303.404 165.428L303.82 166.275C304.089 166.84 304.398 167.417 304.707 167.995C305.338 169.138 306.05 170.294 306.721 171.396C308.135 173.652 309.692 175.816 311.381 177.874C313.1 179.912 314.934 181.85 316.874 183.68C317.881 184.567 318.861 185.481 319.909 186.368L321.48 187.604L321.842 187.9C321.672 187.847 321.496 187.811 321.319 187.792C320.929 187.752 320.536 187.812 320.177 187.967C319.958 188.031 319.762 188.157 319.613 188.33C319.519 188.464 319.761 188.249 319.962 187.9C320.494 186.92 320.913 185.883 321.211 184.809C321.948 182.198 322.527 179.546 322.943 176.866C323.4 174.097 323.776 171.261 324.072 168.425C324.367 165.59 324.676 162.7 324.944 159.878L330.128 159.797C330.45 162.794 330.585 165.711 330.705 168.694C330.826 171.678 330.773 174.635 330.705 177.659C330.587 180.768 330.232 183.863 329.645 186.919C329.304 188.679 328.759 190.393 328.02 192.026C327.484 193.182 326.747 194.233 325.844 195.13C325.145 195.789 324.324 196.305 323.427 196.649C322.382 197.041 321.259 197.179 320.15 197.052C319.251 196.934 318.379 196.661 317.572 196.246C317.249 196.084 316.935 195.904 316.632 195.708L316.122 195.372L314.161 194.028C312.818 193.141 311.636 192.16 310.414 191.179C307.998 189.16 305.732 186.968 303.633 184.62C301.549 182.252 299.633 179.742 297.898 177.108C297.039 175.764 296.247 174.42 295.481 173.076C295.105 172.363 294.742 171.664 294.393 170.925L293.883 169.783C293.708 169.38 293.574 169.057 293.359 168.506L303.082 164.703Z" fill="#E4897B"/>
<path d="M307.621 171.651L298.597 184.11L302.33 187.779L311.932 176.221L307.621 171.651Z" fill="#F5F5F5"/>
<path d="M293.467 155.214C303.632 157.902 310.642 172.176 310.642 172.176L298.905 188.639C298.905 188.639 284.778 170.858 285.141 165.241C285.49 159.354 287.343 153.561 293.467 155.214Z" fill="#1040E2"/>
<path opacity="0.7" d="M293.467 155.214C303.632 157.902 310.642 172.176 310.642 172.176L298.905 188.639C298.905 188.639 284.778 170.858 285.141 165.241C285.49 159.354 287.343 153.561 293.467 155.214Z" fill="white"/>
<path d="M302.236 160.469C302.236 160.469 305.58 164.421 266.877 211.299L231.062 190.306C240.194 176.073 245.471 167.082 256.013 133.052C261.643 134.948 267.128 137.252 272.423 139.947C278.042 142.78 283.478 145.962 288.699 149.475C295.307 154.206 302.236 160.469 302.236 160.469Z" fill="#1040E2"/>
<path opacity="0.7" d="M302.236 160.469C302.236 160.469 305.58 164.421 266.877 211.299L231.062 190.306C240.194 176.073 245.471 167.082 256.013 133.052C261.643 134.948 267.128 137.252 272.423 139.947C278.042 142.78 283.478 145.962 288.699 149.475C295.307 154.206 302.236 160.469 302.236 160.469Z" fill="white"/>
<path d="M297.59 156.424C295.065 154.327 291.828 151.733 288.699 149.476C283.506 145.918 278.067 142.733 272.423 139.947C269.254 138.294 266.004 136.842 263.238 135.74C262.795 136.479 263.157 138.737 264.514 142.043C269.67 148.696 281.649 158.494 291.64 160.442C296.287 159.77 297.737 158.292 297.59 156.424Z" fill="#F5F5F5"/>
<path d="M264.514 142.043C267.523 148.754 271.53 154.971 276.399 160.482C281.467 160.989 286.572 160.989 291.64 160.482C281.649 158.493 269.671 148.696 264.514 142.043Z" fill="#F5F5F5"/>
<path d="M266.918 211.299C266.918 211.299 267.495 303.388 251.179 329.972C234.204 357.618 212.073 391.339 212.073 391.339L192.91 390.411C192.91 390.411 215.256 340.523 223.689 317.366C235.305 285.446 240.677 195.924 240.677 195.924L266.918 211.299Z" fill="#1040E2"/>
<path opacity="0.4" d="M266.918 211.299C266.918 211.299 267.495 303.388 251.179 329.972C234.204 357.618 212.073 391.339 212.073 391.339L192.91 390.411C192.91 390.411 215.256 340.523 223.689 317.366C235.305 285.446 240.677 195.924 240.677 195.924L266.918 211.299Z" fill="black"/>
<path opacity="0.2" d="M246.532 213.865C243.429 216.5 240.76 219.607 238.623 223.072C238.018 229.926 237.28 237.627 236.434 245.691C242.275 237.748 246.895 223.811 246.532 213.865Z" fill="black"/>
<path d="M257.45 205.802C257.45 205.802 216.908 263.405 191.648 294.505C171.235 319.57 112.147 337.512 112.147 337.512L104.936 325.416C104.936 325.416 151.938 299.155 165.958 282.194C210.838 227.897 210.274 199.741 231.116 190.454L257.45 205.802Z" fill="#1040E2"/>
<path opacity="0.4" d="M257.45 205.802C257.45 205.802 216.908 263.405 191.648 294.505C171.235 319.57 112.147 337.512 112.147 337.512L104.936 325.416C104.936 325.416 151.938 299.155 165.958 282.194C210.838 227.897 210.274 199.741 231.116 190.454L257.45 205.802Z" fill="black"/>
<path d="M325.065 161.141L322.379 150.389L332.626 153.373C332.626 153.373 332.344 160.603 328.799 162.955L325.065 161.141Z" fill="#E4897B"/>
<path d="M325.643 141.761L332.841 145.403L332.666 153.427L322.42 150.443L325.643 141.761Z" fill="#E4897B"/>
<path d="M196.925 145.712L187.525 139.933L196.925 134.906C196.925 134.906 201.746 140.282 200.86 144.449L196.925 145.712Z" fill="#E4897B"/>
<path d="M183.805 131.453L191.5 129.033L196.979 134.907L187.538 139.933L183.805 131.453Z" fill="#E4897B"/>
<path d="M99.8868 340.926L96.5429 329.932C96.4841 329.744 96.3593 329.583 96.1916 329.479C96.0238 329.376 95.8244 329.336 95.6297 329.368L86.5651 330.712C86.3381 330.754 86.1227 330.844 85.9331 330.976C85.7434 331.108 85.5837 331.279 85.4645 331.477C85.3453 331.675 85.2693 331.896 85.2414 332.125C85.2135 332.355 85.2345 332.587 85.3028 332.808C86.5383 336.612 87.3172 338.399 88.7943 343.224C89.6941 346.208 91.2653 352.914 92.5142 357.027C93.7631 361.139 97.8858 360.118 97.7381 358.29C97.0532 350.119 98.3961 345.939 99.7793 342.7C100.015 342.138 100.053 341.512 99.8868 340.926Z" fill="#263238"/>
<path d="M203.277 403.192H191.191C190.973 403.194 190.762 403.267 190.589 403.401C190.417 403.534 190.293 403.721 190.238 403.932L187.552 413.541C187.486 413.767 187.474 414.006 187.518 414.237C187.562 414.468 187.66 414.686 187.804 414.872C187.948 415.058 188.135 415.208 188.347 415.308C188.56 415.408 188.794 415.457 189.029 415.45C193.272 415.382 195.341 415.14 200.672 415.14C203.949 415.14 212.436 415.476 216.961 415.476C221.487 415.476 222.333 410.988 220.493 410.584C212.261 408.77 207.534 406.257 204.996 403.864C204.529 403.43 203.915 403.19 203.277 403.192Z" fill="#263238"/>
<path d="M231.774 187.886L228.282 190.158C228.014 190.332 228.161 190.762 228.578 191.004L266.179 213.005C266.501 213.193 266.864 213.193 266.998 213.005L269.201 209.981C269.348 209.766 269.201 209.417 268.825 209.215L232.566 187.967C232.455 187.881 232.322 187.827 232.181 187.813C232.041 187.799 231.9 187.824 231.774 187.886Z" fill="#263238"/>
<path d="M253.072 148.467C250.534 150.497 248.117 152.136 245.552 153.843C242.987 155.55 240.382 157.015 237.696 158.467C232.306 161.418 226.633 163.818 220.762 165.63C220.037 165.885 219.258 166.06 218.519 166.262C217.781 166.463 217.069 166.665 216.182 166.853C214.257 167.285 212.273 167.385 210.314 167.149C208.237 166.901 206.239 166.204 204.459 165.106C202.804 164.059 201.353 162.72 200.175 161.155C198.187 158.381 196.764 155.244 195.985 151.921C195.587 150.389 195.3 148.831 195.126 147.258C194.912 145.69 194.809 144.109 194.817 142.527L199.974 142.083C200.596 144.707 201.436 147.274 202.485 149.758C203.398 152.033 204.723 154.119 206.393 155.913C206.992 156.589 207.722 157.136 208.54 157.519C209.357 157.903 210.244 158.115 211.147 158.144C212.095 158.137 213.036 157.987 213.94 157.701C215.108 157.324 216.478 156.894 217.727 156.437C222.895 154.492 227.895 152.123 232.673 149.354C235.117 148.01 237.454 146.465 239.818 144.973C242.181 143.481 244.504 141.801 246.532 140.269L253.072 148.467Z" fill="#E4897B"/>
<path d="M236.46 144.946L241.107 159.004L245.471 156.384L241.389 142.447L236.46 144.946Z" fill="#F5F5F5"/>
<path d="M100.921 346.691C100.695 346.688 100.473 346.628 100.276 346.516C99.1616 345.844 98.8528 343.466 98.7588 342.108C98.7581 342.062 98.7703 342.015 98.794 341.975C98.8176 341.935 98.8519 341.902 98.8931 341.88C98.9343 341.857 98.9804 341.846 99.0273 341.846C99.0742 341.846 99.1204 341.857 99.1616 341.88C99.4839 342.149 102.304 344.568 102.129 345.831C102.111 345.976 102.054 346.114 101.964 346.23C101.874 346.346 101.755 346.435 101.619 346.49C101.406 346.612 101.166 346.681 100.921 346.691ZM99.2959 342.659C99.4705 344.474 99.9136 345.737 100.518 346.1C100.657 346.173 100.811 346.211 100.968 346.211C101.125 346.211 101.279 346.173 101.418 346.1C101.606 346.006 101.646 345.898 101.646 345.804C101.74 345.119 100.397 343.654 99.2959 342.659Z" fill="#1040E2"/>
<path d="M102.613 343.775C101.234 343.657 99.9211 343.133 98.8393 342.27C98.8178 342.236 98.8065 342.196 98.8065 342.156C98.8065 342.115 98.8178 342.076 98.8393 342.041C98.8488 342.001 98.8687 341.963 98.8969 341.933C98.9252 341.902 98.9608 341.879 99.0004 341.867C99.1213 341.867 101.941 340.98 103.204 341.759C103.363 341.853 103.5 341.982 103.605 342.135C103.709 342.288 103.779 342.463 103.808 342.646C103.863 342.831 103.852 343.029 103.779 343.208C103.706 343.386 103.574 343.534 103.405 343.627C103.157 343.741 102.885 343.791 102.613 343.775ZM99.5242 342.203C100.558 342.915 102.479 343.547 103.11 343.197C103.204 343.197 103.325 343.036 103.271 342.727C103.251 342.612 103.206 342.502 103.139 342.407C103.071 342.311 102.983 342.232 102.881 342.176C101.787 341.836 100.613 341.845 99.5242 342.203Z" fill="#1040E2"/>
<path d="M208.649 405.195C207.531 405.174 206.42 405.034 205.332 404.778C205.283 404.765 205.238 404.738 205.205 404.7C205.171 404.661 205.15 404.614 205.144 404.563C205.143 404.513 205.157 404.464 205.183 404.421C205.209 404.379 205.247 404.344 205.291 404.321C206.097 403.932 210.233 402.063 211.335 402.803C211.44 402.877 211.523 402.979 211.575 403.098C211.627 403.216 211.646 403.346 211.63 403.475C211.624 403.701 211.567 403.923 211.462 404.123C211.357 404.323 211.208 404.497 211.026 404.631C210.311 405.06 209.48 405.258 208.649 405.195ZM206.178 404.456C207.521 404.698 209.777 404.967 210.73 404.241C210.859 404.15 210.965 404.029 211.037 403.889C211.11 403.748 211.147 403.592 211.147 403.434C211.154 403.393 211.151 403.349 211.137 403.309C211.123 403.269 211.098 403.234 211.066 403.206C210.462 402.803 207.977 403.663 206.178 404.456Z" fill="#1040E2"/>
<path d="M205.385 404.778C205.338 404.797 205.285 404.797 205.238 404.778C205.2 404.752 205.172 404.714 205.158 404.67C205.143 404.627 205.143 404.58 205.157 404.536C205.157 404.348 206.205 399.953 208.622 400.262C209.253 400.33 209.414 400.652 209.454 400.894C209.616 402.05 206.849 404.254 205.426 404.818L205.385 404.778ZM208.407 400.679C206.957 400.679 206.084 403.031 205.721 404.093C207.064 403.327 209.025 401.58 208.931 400.908C208.931 400.8 208.783 400.719 208.528 400.692L208.407 400.679Z" fill="#1040E2"/>
<path d="M234.271 194.808L233.304 194.243C233.116 194.123 233.022 193.934 233.103 193.827L236.004 189.916C236.084 189.808 236.313 189.808 236.501 189.916L237.481 190.494C237.669 190.601 237.763 190.789 237.682 190.897L234.782 194.808C234.701 194.915 234.473 194.915 234.271 194.808Z" fill="#1040E2"/>
<path d="M263.211 211.756L262.244 211.178C262.056 211.07 261.962 210.882 262.043 210.775L264.943 206.864C265.024 206.756 265.252 206.756 265.44 206.864L266.421 207.428C266.609 207.549 266.703 207.737 266.609 207.845L263.721 211.756C263.641 211.863 263.412 211.863 263.211 211.756Z" fill="#1040E2"/>
<path d="M248.748 203.275L247.768 202.711C247.58 202.603 247.486 202.415 247.58 202.294L250.467 198.396C250.561 198.275 250.776 198.275 250.977 198.396L251.944 198.961C252.146 199.068 252.226 199.257 252.146 199.377L249.245 203.275C249.164 203.396 248.936 203.396 248.748 203.275Z" fill="#1040E2"/>
<path opacity="0.4" d="M234.271 194.808L233.304 194.243C233.116 194.123 233.022 193.934 233.103 193.827L236.004 189.916C236.084 189.808 236.313 189.808 236.501 189.916L237.481 190.494C237.669 190.601 237.763 190.789 237.682 190.897L234.782 194.808C234.701 194.915 234.473 194.915 234.271 194.808Z" fill="black"/>
<path opacity="0.4" d="M263.211 211.756L262.244 211.178C262.056 211.07 261.962 210.882 262.043 210.775L264.943 206.864C265.024 206.756 265.252 206.756 265.44 206.864L266.421 207.428C266.609 207.549 266.703 207.737 266.609 207.845L263.721 211.756C263.641 211.863 263.412 211.863 263.211 211.756Z" fill="black"/>
<path opacity="0.4" d="M248.748 203.275L247.768 202.711C247.58 202.603 247.486 202.415 247.58 202.294L250.467 198.396C250.561 198.275 250.776 198.275 250.977 198.396L251.944 198.961C252.146 199.068 252.226 199.257 252.146 199.377L249.245 203.275C249.164 203.396 248.936 203.396 248.748 203.275Z" fill="black"/>
<path d="M275.62 142.634C275.62 134.57 272.934 102.839 286.148 100.151C290.324 95.7428 311.019 95.2858 314.188 106.495C318.378 121.211 312.174 157.122 312.174 157.122L275.62 142.634Z" fill="#263238"/>
<path d="M314.926 157.203C314.882 157.198 314.839 157.184 314.801 157.163C314.762 157.141 314.728 157.112 314.7 157.077C314.673 157.042 314.652 157.002 314.64 156.959C314.629 156.916 314.625 156.871 314.631 156.827C314.631 156.464 318.995 120.539 314.174 106.32C312.831 102.422 309.098 99.6942 303.565 98.619C296.367 97.2079 288.579 98.9685 286.416 101.468C286.354 101.53 286.269 101.564 286.181 101.564C286.094 101.564 286.009 101.53 285.946 101.468C285.884 101.403 285.849 101.317 285.849 101.226C285.849 101.136 285.884 101.05 285.946 100.984C288.471 98.0546 296.945 96.5896 303.74 97.9202C309.514 99.0357 313.463 101.952 314.859 106.065C319.721 120.459 315.383 156.504 315.343 156.867C315.342 156.918 315.33 156.968 315.307 157.014C315.285 157.06 315.252 157.1 315.213 157.132C315.173 157.164 315.127 157.187 315.077 157.2C315.028 157.212 314.976 157.213 314.926 157.203Z" fill="#263238"/>
<path d="M284.778 122.569C282.75 128.401 278.158 138.602 272.45 139.946C272.45 139.946 270.772 146.102 280.508 151.8C291.251 158.063 288.726 149.475 288.726 149.475C283.704 144.664 286.376 140.417 289.774 136.949L284.778 122.569Z" fill="#E4897B"/>
<path d="M286.793 128.429L289.747 136.936C288.948 137.739 288.216 138.607 287.558 139.53C285.517 137.904 283.328 133.939 284.456 131.466C285.047 130.322 285.838 129.293 286.793 128.429Z" fill="#CE6F64"/>
<path d="M284.859 110.943C282.079 120.714 280.696 124.786 283.798 131.385C288.458 141.331 301.041 142.608 306.627 133.872C311.703 126.009 315.383 111.36 307.379 104.304C305.624 102.742 303.5 101.652 301.208 101.139C298.916 100.625 296.531 100.704 294.278 101.369C292.025 102.033 289.978 103.26 288.33 104.936C286.682 106.611 285.487 108.678 284.859 110.943Z" fill="#E4897B"/>
<path d="M281.998 117.099C288.941 119.693 305.258 111.078 309.703 105.796C310.293 97.6517 291.211 100.864 291.211 100.864C291.211 100.864 281.032 97.7324 281.998 117.099Z" fill="#263238"/>
<path d="M280.347 119.048C279.894 120.957 280.218 122.968 281.246 124.639C282.589 126.843 285.06 125.982 286.134 123.805C287.101 121.816 287.545 118.255 285.463 116.817C285 116.511 284.469 116.327 283.916 116.279C283.364 116.232 282.809 116.323 282.301 116.544C281.793 116.766 281.348 117.111 281.006 117.548C280.665 117.985 280.438 118.5 280.347 119.048Z" fill="#E4897B"/>
<path d="M298.409 118.725C298.127 119.505 298.315 120.284 298.825 120.459C299.335 120.634 299.966 120.15 300.248 119.37C300.53 118.591 300.329 117.825 299.819 117.637C299.308 117.448 298.677 117.946 298.409 118.725Z" fill="#263238"/>
<path d="M307.191 121.83C306.923 122.609 307.111 123.375 307.621 123.563C308.131 123.751 308.762 123.254 309.031 122.475C309.3 121.695 309.112 120.916 308.615 120.741C308.118 120.566 307.473 121.05 307.191 121.83Z" fill="#263238"/>
<path d="M308.373 120.701L310.428 120.822C310.428 120.822 308.95 121.951 308.373 120.701Z" fill="#263238"/>
<path d="M304.398 122.341C304.469 124.358 304.813 126.356 305.419 128.281C304.923 128.427 304.401 128.461 303.891 128.382C303.38 128.303 302.893 128.113 302.464 127.824L304.398 122.341Z" fill="#DE5753"/>
<path d="M298.731 129.947H298.65C297.596 129.605 296.639 129.015 295.859 128.227C295.079 127.439 294.498 126.476 294.165 125.418C294.153 125.354 294.166 125.288 294.2 125.233C294.235 125.178 294.29 125.138 294.353 125.122C294.384 125.115 294.416 125.113 294.448 125.119C294.479 125.124 294.509 125.136 294.536 125.154C294.563 125.172 294.585 125.195 294.602 125.222C294.619 125.249 294.631 125.279 294.635 125.311C294.961 126.283 295.507 127.167 296.232 127.892C296.957 128.618 297.84 129.165 298.812 129.49C298.866 129.509 298.911 129.547 298.94 129.596C298.969 129.645 298.98 129.703 298.97 129.76C298.961 129.816 298.931 129.867 298.888 129.904C298.844 129.941 298.788 129.961 298.731 129.961V129.947Z" fill="#263238"/>
<path d="M298.019 115.647C297.91 115.649 297.804 115.613 297.717 115.547C297.631 115.48 297.57 115.387 297.543 115.281C297.517 115.175 297.527 115.063 297.572 114.964C297.617 114.865 297.694 114.783 297.791 114.733C298.458 114.356 299.206 114.143 299.972 114.113C300.738 114.082 301.5 114.235 302.196 114.559C302.258 114.584 302.315 114.623 302.362 114.672C302.409 114.721 302.445 114.779 302.468 114.843C302.491 114.907 302.5 114.975 302.495 115.043C302.49 115.111 302.47 115.177 302.438 115.236C302.406 115.296 302.362 115.348 302.308 115.39C302.254 115.431 302.192 115.461 302.126 115.477C302.06 115.493 301.992 115.495 301.925 115.482C301.858 115.47 301.795 115.444 301.739 115.405C301.183 115.159 300.577 115.048 299.971 115.08C299.364 115.113 298.773 115.289 298.247 115.594C298.177 115.63 298.099 115.649 298.019 115.647Z" fill="#263238"/>
<path d="M312.764 119.209C312.659 119.209 312.556 119.173 312.473 119.107C312.39 119.041 312.332 118.949 312.308 118.846C312.173 118.254 311.901 117.703 311.513 117.236C311.126 116.769 310.635 116.4 310.079 116.158C309.957 116.115 309.857 116.027 309.799 115.911C309.742 115.796 309.731 115.663 309.77 115.54C309.789 115.478 309.821 115.422 309.863 115.374C309.905 115.325 309.957 115.286 310.015 115.258C310.073 115.231 310.136 115.215 310.2 115.212C310.264 115.21 310.328 115.221 310.387 115.244C311.098 115.536 311.727 115.995 312.223 116.582C312.719 117.17 313.065 117.868 313.234 118.617C313.251 118.679 313.254 118.744 313.245 118.807C313.237 118.87 313.215 118.931 313.183 118.986C313.15 119.041 313.107 119.089 313.056 119.127C313.005 119.165 312.947 119.193 312.885 119.209H312.764Z" fill="#263238"/>
<path d="M299.55 117.61L301.605 117.731C301.605 117.731 300.168 118.846 299.55 117.61Z" fill="#263238"/>
<path d="M256.04 133.052C251.81 132.044 238.797 141.963 238.797 141.963L244.316 159.582C244.316 159.582 257.92 152.042 259.182 146.492C260.431 140.739 260.861 134.208 256.04 133.052Z" fill="#1040E2"/>
<path opacity="0.7" d="M256.04 133.052C251.81 132.044 238.797 141.963 238.797 141.963L244.316 159.582C244.316 159.582 257.92 152.042 259.182 146.492C260.431 140.739 260.861 134.208 256.04 133.052Z" fill="white"/>
<path d="M411.012 20.9233H311.368C307.094 20.9233 302.995 22.6225 299.973 25.6471C296.951 28.6716 295.253 32.7738 295.253 37.0511V67.9627C295.253 72.2401 296.951 76.3422 299.973 79.3668C302.995 82.3913 307.094 84.0905 311.368 84.0905H319.694V99.9495L335.54 84.0905H411.012C415.285 84.0905 419.384 82.3913 422.407 79.3668C425.429 76.3422 427.126 72.2401 427.126 67.9627V37.0511C427.126 32.7738 425.429 28.6716 422.407 25.6471C419.384 22.6225 415.285 20.9233 411.012 20.9233Z" fill="#1040E2"/>
<path opacity="0.3" d="M411.012 20.9233H311.368C307.094 20.9233 302.995 22.6225 299.973 25.6471C296.951 28.6716 295.253 32.7738 295.253 37.0511V67.9627C295.253 72.2401 296.951 76.3422 299.973 79.3668C302.995 82.3913 307.094 84.0905 311.368 84.0905H319.694V99.9495L335.54 84.0905H411.012C415.285 84.0905 419.384 82.3913 422.407 79.3668C425.429 76.3422 427.126 72.2401 427.126 67.9627V37.0511C427.126 32.7738 425.429 28.6716 422.407 25.6471C419.384 22.6225 415.285 20.9233 411.012 20.9233Z" fill="black"/>
<g opacity="0.54">
<path opacity="0.54" d="M408.675 33.772H313.677C311.638 33.772 309.984 35.4267 309.984 37.4679C309.984 39.5091 311.638 41.1639 313.677 41.1639H408.675C410.714 41.1639 412.368 39.5091 412.368 37.4679C412.368 35.4267 410.714 33.772 408.675 33.772Z" fill="#F5F5F5"/>
</g>
<g opacity="0.54">
<path opacity="0.54" d="M408.661 55.8538H347.774C346.792 55.8503 345.851 55.4583 345.157 54.7635C344.463 54.0686 344.071 53.1271 344.067 52.1444C344.071 51.163 344.463 50.2229 345.158 49.5302C345.853 48.8374 346.793 48.4485 347.774 48.4485H408.661C409.641 48.4485 410.58 48.8379 411.273 49.531C411.965 50.2241 412.354 51.1642 412.354 52.1444C412.354 53.1259 411.966 54.0674 411.273 54.7626C410.581 55.4579 409.642 55.8503 408.661 55.8538Z" fill="#F5F5F5"/>
</g>
<g opacity="0.54">
<path opacity="0.54" d="M329.698 55.8538H313.677C312.697 55.8503 311.757 55.4579 311.065 54.7626C310.373 54.0674 309.984 53.1259 309.984 52.1444C309.984 51.1642 310.373 50.2241 311.066 49.531C311.759 48.8379 312.698 48.4485 313.677 48.4485H329.698C330.678 48.4485 331.617 48.8379 332.31 49.531C333.002 50.2241 333.391 51.1642 333.391 52.1444C333.391 53.1259 333.003 54.0674 332.31 54.7626C331.618 55.4579 330.679 55.8503 329.698 55.8538Z" fill="#F5F5F5"/>
</g>
<g opacity="0.54">
<path opacity="0.54" d="M384.945 70.5296H313.677C312.698 70.5296 311.759 70.1402 311.066 69.4471C310.373 68.754 309.984 67.8139 309.984 66.8337C309.984 65.8522 310.373 64.9107 311.065 64.2155C311.757 63.5202 312.697 63.1278 313.677 63.1243H384.945C385.926 63.1278 386.865 63.5202 387.558 64.2155C388.25 64.9107 388.638 65.8522 388.638 66.8337C388.638 67.8139 388.249 68.754 387.557 69.4471C386.864 70.1402 385.925 70.5296 384.945 70.5296Z" fill="#F5F5F5"/>
</g>
</g>
<defs>
<clipPath id="clip0">
<rect width="521" height="462" fill="white"/>
</clipPath>
</defs>
</svg>
