<svg width="521" height="491" viewBox="0 0 521 491" fill="none" xmlns="http://www.w3.org/2000/svg">
<path d="M280.221 12.214C258.639 -2.16558 225.941 -2.96145 203.333 5.21305C162.865 19.8354 168.26 52.4255 133.188 75.3572C98.1162 98.289 64.393 90.1954 30.6699 119.953C-3.05331 149.71 -6.10189 206.028 7.7381 232.372C21.5781 258.717 37.4145 278.047 23.9252 323.384C10.436 368.722 11.7849 421.384 65.742 449.104C119.699 476.825 161.516 417.728 196.588 429.882C231.66 442.036 297.757 495.845 370.599 479.792C443.442 463.74 411.067 408.515 458.28 392.8C505.492 377.085 532.471 322.831 516.284 265.542C500.096 208.254 459.629 197.233 469.071 161.203C476.194 133.995 485.744 107.812 467.587 81.6163C444.156 47.8122 404.053 33.3112 365.204 36.7375C350.73 38.0864 334.178 38.5315 319.057 35.0243C301.872 31.0045 293.926 21.3597 280.221 12.214Z" fill="#1040E2"/>
<path opacity="0.7" d="M280.221 12.214C258.639 -2.16558 225.941 -2.96145 203.333 5.21305C162.865 19.8354 168.26 52.4255 133.188 75.3572C98.1162 98.289 64.393 90.1954 30.6699 119.953C-3.05331 149.71 -6.10189 206.028 7.7381 232.372C21.5781 258.717 37.4145 278.047 23.9252 323.384C10.436 368.722 11.7849 421.384 65.742 449.104C119.699 476.825 161.516 417.728 196.588 429.882C231.66 442.036 297.757 495.845 370.599 479.792C443.442 463.74 411.067 408.515 458.28 392.8C505.492 377.085 532.471 322.831 516.284 265.542C500.096 208.254 459.629 197.233 469.071 161.203C476.194 133.995 485.744 107.812 467.587 81.6163C444.156 47.8122 404.053 33.3112 365.204 36.7375C350.73 38.0864 334.178 38.5315 319.057 35.0243C301.872 31.0045 293.926 21.3597 280.221 12.214Z" fill="white"/>
<path d="M488.887 213.029L262.038 266.756L261.822 266.608L468.545 163.55C468.707 162.768 468.855 161.985 469.071 161.176C472.376 148.536 476.207 136.113 477.542 123.811L261.943 265.569H261.701L452.533 64.4174C444.119 56.8016 434.525 50.6014 424.125 46.0585L261.458 264.49H261.202L360.064 37.1016C349.589 37.9779 339.053 37.8243 328.607 36.643L260.635 263.64L260.392 263.762L275.945 9.61045C266.137 4.41538 255.365 1.29312 244.299 0.437744L259.556 263.128L259.381 263.317L185.689 14.534C175.275 22.3173 169.407 32.0701 163.135 42.1331L258.382 263.02L258.274 263.249L123.382 80.9957C114.326 85.4465 104.832 88.9455 95.0542 91.4364L257.29 263.303V263.573L34.9055 116.418C33.5566 117.538 32.0862 118.698 30.6699 119.939C23.6506 126.207 17.7561 133.63 13.2417 141.886L256.251 263.978L256.332 264.22L0.278542 202.75C1.07441 214.256 3.69133 224.602 7.73811 232.359C8.41257 233.708 9.08704 234.922 9.77499 236.176L255.563 264.935L255.711 265.151L29.0916 290.97C29.0504 301.018 27.5834 311.01 24.7346 320.646L255.293 266.041L255.509 266.19L17.9495 384.639C19.512 395.77 23.267 406.48 28.9972 416.15L255.334 267.269H255.576L78.3275 454.109C92.4777 458.156 105.765 456.807 118.296 453.016L255.819 268.348H256.076L186.552 428.196C189.967 428.194 193.358 428.759 196.588 429.869C200.199 431.153 203.742 432.621 207.204 434.266L256.642 269.198L256.885 269.077L245.567 454.068C253 457.859 260.864 461.676 269.079 465.238L257.721 269.711L257.897 269.522L320.514 480.899C330.46 482.497 340.549 483.026 350.608 482.477L258.881 269.791L258.989 269.562L403.918 465.426C413.05 458.331 418.163 449.86 421.953 441.146L259.987 269.535V269.265L451.077 395.741C453.38 394.579 455.765 393.588 458.212 392.773C466.929 389.883 475.126 385.616 482.493 380.134L261.026 268.861L260.945 268.618L516.594 329.981C519.586 319.669 521.062 308.977 520.978 298.24L261.714 267.903L261.566 267.687L506.194 239.818C501.229 230.394 495.437 221.429 488.887 213.029ZM255.415 266.041L256.197 265.853L255.617 266.149L255.415 266.041ZM255.711 267.202H255.469L256.157 266.743L255.711 267.202ZM256.143 268.146H255.927L256.413 267.498L256.143 268.146ZM255.941 265.07L255.792 264.908L256.602 265.003L255.941 265.07ZM256.939 268.847L256.75 268.969L256.979 268.186L256.939 268.847ZM256.548 264.207L256.467 264.005L257.195 264.369L256.548 264.207ZM259.623 263.249V264.059L259.434 263.438L259.623 263.249ZM258.504 263.114L258.827 263.87L258.436 263.344L258.504 263.114ZM257.411 263.384L257.964 263.978L257.425 263.613L257.411 263.384ZM257.762 269.481V268.672L257.951 269.292L257.762 269.481ZM258.881 269.616L258.558 268.861L258.949 269.387L258.881 269.616ZM258.76 267.498H258.369L258.018 267.323L257.748 267.04L257.6 266.675V266.284L257.708 265.907L257.951 265.596L258.274 265.38L258.652 265.286H259.043L259.394 265.461L259.664 265.745L259.812 266.109V266.5L259.704 266.878L259.461 267.188L259.138 267.404L258.76 267.498ZM259.421 268.753L259.961 269.117V269.346L259.421 268.753ZM261.62 265.583H261.863L261.175 266.041L261.62 265.583ZM261.188 264.639H261.404L260.918 265.286L261.188 264.639ZM260.446 263.883L260.635 263.762L260.406 264.531L260.446 263.883ZM260.19 268.362L260.837 268.523L260.918 268.726L260.19 268.362ZM260.783 267.728L261.336 267.768L261.485 267.93L260.783 267.728ZM261.134 266.932L261.714 266.635L261.916 266.743L261.134 266.932Z" fill="#F2F7FF"/>
<path d="M255.941 490.503C372.532 490.503 467.048 485.635 467.048 479.631C467.048 473.626 372.532 468.758 255.941 468.758C139.349 468.758 44.8336 473.626 44.8336 479.631C44.8336 485.635 139.349 490.503 255.941 490.503Z" fill="#D0DCFB"/>
<path d="M131.624 286.855H392.385C393.919 286.855 395.391 287.465 396.477 288.55C397.562 289.636 398.172 291.108 398.172 292.642V460.044H125.823V292.642C125.823 291.881 125.973 291.128 126.265 290.425C126.557 289.722 126.984 289.083 127.523 288.546C128.062 288.008 128.701 287.582 129.405 287.292C130.109 287.002 130.863 286.854 131.624 286.855Z" fill="#1040E2" stroke="#263238" stroke-linecap="round" stroke-linejoin="round"/>
<path d="M145.612 299.994H378.396C379.156 299.994 379.909 300.144 380.611 300.435C381.313 300.725 381.951 301.152 382.488 301.689C383.026 302.226 383.452 302.864 383.743 303.566C384.034 304.269 384.183 305.021 384.183 305.781V462.378H139.812V305.795C139.81 305.032 139.959 304.277 140.25 303.573C140.54 302.868 140.968 302.228 141.507 301.689C142.045 301.15 142.686 300.723 143.39 300.432C144.095 300.141 144.85 299.992 145.612 299.994Z" fill="#879FF0"/>
<path d="M395.838 474.033H116.044C103.161 474.033 92.7206 466.236 92.7206 456.618H419.161C419.161 466.236 408.72 474.033 395.838 474.033Z" fill="#1040E2" stroke="#263238" stroke-linecap="round" stroke-linejoin="round"/>
<g clip-path="url(#clip0)">
<path d="M211.222 377.7V373.885L191.992 362.967L172.762 373.885V396.115L191.992 407.033L211.222 396.115L215.2 393.879V398.483L191.992 411.637L168.783 398.483V371.517L191.992 358.364L215.2 371.517V380.067L211.222 382.304L191.992 393.221V388.617L211.222 377.7Z" fill="white"/>
<path d="M191.992 397.825L183.371 392.958V397.562L191.992 402.429L219.842 386.644V382.041L191.992 397.825Z" fill="#6BBF59"/>
<path d="M232.773 380.396H229.656V376.647H232.773V375.727C232.773 374.543 232.972 373.359 233.37 372.241C233.768 371.123 234.364 370.136 235.094 369.281C235.89 368.426 236.818 367.769 237.945 367.242C239.072 366.716 240.332 366.453 241.857 366.453C243.515 366.453 245.04 366.716 246.367 367.242C247.693 367.769 248.82 368.36 249.815 369.018L247.825 372.635C247.162 372.044 246.3 371.583 245.306 371.189C244.311 370.794 243.316 370.597 242.189 370.597C241.393 370.597 240.73 370.728 240.2 370.991C239.669 371.254 239.205 371.649 238.807 372.109C238.476 372.57 238.21 373.096 238.011 373.688C237.813 374.28 237.746 374.872 237.746 375.464V376.516H249.947V399.009H245.04V380.396H237.746V399.14H232.839V380.396H232.773Z" fill="white"/>
<path d="M275.809 399.14H270.902V386.25C270.902 384.079 270.57 382.501 269.841 381.514C269.178 380.528 268.117 380.067 266.724 380.067C265.995 380.067 265.332 380.199 264.602 380.462C263.873 380.725 263.21 381.12 262.613 381.58C262.016 382.04 261.419 382.632 260.955 383.29C260.491 383.948 260.093 384.671 259.828 385.46V399.14H254.921V376.121H259.364V380.725C260.226 379.147 261.552 377.963 263.21 377.042C264.868 376.121 266.791 375.727 268.78 375.727C270.172 375.727 271.3 375.99 272.228 376.45C273.156 376.91 273.819 377.634 274.35 378.489C274.88 379.344 275.212 380.33 275.411 381.514C275.61 382.632 275.742 383.816 275.742 385.132V399.14H275.809Z" fill="white"/>
<path d="M290.114 399.528C288.257 399.528 286.4 399.199 284.544 398.607C282.687 398.015 281.096 397.16 279.769 396.042L281.692 392.951C283.085 393.938 284.477 394.727 285.804 395.253C287.196 395.779 288.589 396.042 289.981 396.042C291.44 396.042 292.567 395.779 293.429 395.187C294.291 394.595 294.689 393.806 294.689 392.82C294.689 391.833 294.225 391.175 293.297 390.715C292.368 390.255 290.843 389.794 288.854 389.268C287.395 388.873 286.135 388.545 285.14 388.15C284.079 387.821 283.284 387.361 282.621 386.9C281.958 386.44 281.493 385.914 281.228 385.256C280.963 384.664 280.764 383.875 280.764 383.02C280.764 381.836 280.963 380.784 281.427 379.863C281.891 378.942 282.554 378.153 283.35 377.561C284.146 376.903 285.14 376.443 286.201 376.114C287.329 375.785 288.456 375.654 289.782 375.654C291.506 375.654 293.164 375.917 294.689 376.443C296.214 376.969 297.541 377.758 298.734 378.745L296.679 381.639C294.49 379.929 292.236 379.074 289.782 379.074C288.522 379.074 287.528 379.337 286.666 379.863C285.804 380.389 285.406 381.178 285.406 382.297C285.406 382.757 285.472 383.152 285.671 383.48C285.87 383.809 286.135 384.072 286.533 384.335C286.931 384.598 287.461 384.796 288.058 384.993C288.721 385.19 289.517 385.388 290.445 385.651C292.037 386.045 293.363 386.44 294.49 386.769C295.618 387.163 296.546 387.624 297.342 388.084C298.071 388.61 298.602 389.202 298.999 389.86C299.331 390.518 299.53 391.373 299.53 392.359C299.53 394.595 298.668 396.305 297.01 397.555C295.286 398.87 292.965 399.528 290.114 399.528Z" fill="white"/>
<path d="M322.823 399.14H317.916V386.25C317.916 384.145 317.518 382.567 316.789 381.58C316.059 380.593 314.932 380.067 313.54 380.067C312.877 380.067 312.147 380.199 311.484 380.462C310.821 380.725 310.158 381.12 309.561 381.58C308.964 382.04 308.434 382.632 307.97 383.29C307.505 383.948 307.107 384.671 306.909 385.46V399.14H302.002V366.979H306.909V380.725C307.771 379.147 309.031 377.897 310.556 377.042C312.081 376.187 313.739 375.727 315.529 375.727C316.988 375.727 318.181 375.99 319.11 376.516C320.038 377.042 320.768 377.7 321.364 378.555C321.895 379.41 322.293 380.396 322.558 381.514C322.757 382.632 322.889 383.816 322.889 385.132V399.14H322.823Z" fill="white"/>
<path d="M327.796 372.307V366.979H332.703V372.307H327.796ZM327.796 399.14V376.121H332.703V399.14H327.796Z" fill="white"/>
<path d="M350.872 399.601C349.016 399.601 347.358 399.14 345.965 398.285C344.573 397.43 343.445 396.247 342.583 394.865V408.545H337.676V376.121H341.987V380.265C342.849 378.883 344.042 377.765 345.435 376.976C346.827 376.121 348.419 375.727 350.209 375.727C351.801 375.727 353.259 376.055 354.586 376.713C355.912 377.371 357.106 378.226 358.034 379.344C359.029 380.462 359.758 381.712 360.355 383.158C360.885 384.605 361.15 386.118 361.15 387.697C361.15 389.341 360.885 390.919 360.421 392.366C359.957 393.813 359.227 395.063 358.299 396.181C357.371 397.233 356.31 398.088 355.05 398.746C353.79 399.403 352.397 399.601 350.872 399.601ZM349.281 395.457C350.342 395.457 351.27 395.26 352.132 394.8C352.994 394.339 353.724 393.747 354.32 393.024C354.917 392.3 355.381 391.445 355.713 390.525C356.045 389.604 356.177 388.617 356.177 387.631C356.177 386.578 355.978 385.592 355.647 384.605C355.249 383.685 354.785 382.83 354.122 382.106C353.458 381.383 352.729 380.857 351.801 380.462C350.939 380.067 349.944 379.87 348.883 379.87C348.286 379.87 347.623 380.002 346.96 380.199C346.297 380.462 345.634 380.725 345.037 381.185C344.44 381.58 343.91 382.106 343.512 382.632C343.048 383.158 342.782 383.75 342.583 384.408V390.459C342.849 391.182 343.247 391.84 343.711 392.432C344.175 393.024 344.705 393.55 345.302 394.01C345.899 394.471 346.496 394.8 347.159 395.063C347.888 395.326 348.551 395.457 349.281 395.457Z" fill="white"/>
</g>
<path d="M260.837 127.385C242.87 144.476 196.912 161.742 143.319 198.366C143.319 198.366 146.664 322.116 260.837 389.765V127.385Z" fill="#1040E2"/>
<path d="M260.837 127.385C278.792 144.476 324.763 161.742 378.356 198.366C378.356 198.366 375.011 322.116 260.837 389.765V127.385Z" fill="#1040E2"/>
<path d="M260.837 137.92C239.16 153.285 201.592 167.934 151.938 201.86C151.938 201.86 155.041 316.518 260.837 379.23C366.634 316.545 369.736 201.86 369.736 201.86C320.069 167.948 282.676 153.285 260.837 137.92Z" fill="#D0DCFB"/>
<path d="M351.175 189.679C275.419 212.61 217.631 279.18 191.354 314.293C209.429 340.809 233.16 362.987 260.837 379.23C366.634 316.545 369.736 201.86 369.736 201.86C363.342 197.507 357.155 193.447 351.175 189.679Z" fill="#1040E2"/>
<path d="M293.628 251H228.415C226.979 251 225.602 250.441 224.586 249.446C223.57 248.45 223 247.101 223 245.693V215.614C223.168 205.847 227.246 196.536 234.354 189.687C241.462 182.838 251.031 179 261 179C270.968 179 280.538 182.838 287.646 189.687C294.754 196.536 298.832 205.847 299 215.614V245.693C299 247.093 298.435 248.437 297.429 249.431C296.423 250.425 295.057 250.989 293.628 251ZM233.874 240.386H288.212V215.614C288.07 208.645 285.146 202.008 280.066 197.129C274.986 192.25 268.156 189.516 261.043 189.516C253.93 189.516 247.1 192.25 242.021 197.129C236.941 202.008 234.016 208.645 233.874 215.614V240.386Z" fill="white"/>
<path d="M302 236H220C218.343 236 217 237.343 217 239V303C217 304.657 218.343 306 220 306H302C303.657 306 305 304.657 305 303V239C305 237.343 303.657 236 302 236Z" fill="white"/>
<path d="M270 264.059C270 262.458 269.578 260.885 268.778 259.501C267.977 258.117 266.827 256.972 265.444 256.181C264.06 255.391 262.493 254.983 260.902 255.001C259.312 255.018 257.754 255.459 256.388 256.28C255.022 257.1 253.896 258.271 253.126 259.672C252.355 261.073 251.968 262.654 252.002 264.255C252.036 265.856 252.492 267.419 253.322 268.785C254.152 270.152 255.326 271.272 256.726 272.032L255.216 288H266.784L265.273 272.032C266.704 271.258 267.899 270.107 268.732 268.703C269.564 267.299 270.002 265.694 270 264.059Z" fill="#1040E2"/>
<path d="M464.417 254.4L464.255 252.377" stroke="#263238" stroke-linecap="round" stroke-linejoin="round"/>
<path d="M463.864 248.344C458.523 197.783 434.942 150.901 397.533 116.47C360.125 82.039 311.452 62.4181 260.623 61.2789C209.794 60.1396 160.291 77.56 121.377 110.28C82.4636 143.001 56.8055 188.779 49.2041 239.05C48.6285 242.881 48.1789 246.725 47.8552 250.583" stroke="#263238" stroke-linecap="round" stroke-linejoin="round" stroke-dasharray="3.01 3.01"/>
<path d="M47.6123 252.579L47.4505 254.589" stroke="#263238" stroke-linecap="round" stroke-linejoin="round"/>
<path d="M94.0559 219.247L106.007 170.618H69.7482L94.0559 219.247Z" fill="#263238" stroke="#263238" stroke-linecap="round" stroke-linejoin="round"/>
<path d="M94.0559 219.247L96.7133 172.467H73.6332L94.0559 219.247Z" fill="#1040E2" stroke="#263238" stroke-linecap="round" stroke-linejoin="round"/>
<path d="M94.0559 219.247L91.5874 168.824H68.5072L94.0559 219.247Z" fill="#1040E2" stroke="#263238" stroke-linecap="round" stroke-linejoin="round"/>
<path d="M50.9712 166.491L45.0224 159.76H13.7003L28.3901 219.247H94.0559L83.6422 166.491H50.9712Z" fill="#263238" stroke="#263238" stroke-linecap="round" stroke-linejoin="round"/>
<path d="M163.755 74.4265H85.5307C82.7966 74.4265 80.5801 76.643 80.5801 79.3771V121.639C80.5801 124.373 82.7966 126.59 85.5307 126.59H163.755C166.489 126.59 168.706 124.373 168.706 121.639V79.3771C168.706 76.643 166.489 74.4265 163.755 74.4265Z" fill="#263238" stroke="#263238" stroke-linecap="round" stroke-linejoin="round"/>
<path d="M168.706 84.3142H80.5801V103.199H168.706V84.3142Z" fill="#1040E2" stroke="#263238" stroke-linecap="round" stroke-linejoin="round"/>
<path d="M150.104 118.253C150.104 117.525 149.888 116.813 149.483 116.207C149.079 115.602 148.503 115.13 147.83 114.851C147.158 114.572 146.417 114.499 145.703 114.641C144.988 114.783 144.332 115.134 143.817 115.649C143.302 116.164 142.952 116.82 142.809 117.535C142.667 118.249 142.74 118.989 143.019 119.662C143.298 120.335 143.77 120.91 144.375 121.315C144.981 121.72 145.693 121.936 146.421 121.936C147.398 121.936 148.335 121.548 149.025 120.857C149.716 120.166 150.104 119.23 150.104 118.253Z" fill="white" stroke="#263238" stroke-linecap="round" stroke-linejoin="round"/>
<path d="M160.342 118.253C160.342 117.525 160.126 116.813 159.722 116.207C159.317 115.602 158.742 115.13 158.069 114.851C157.396 114.572 156.656 114.499 155.941 114.641C155.227 114.783 154.571 115.134 154.056 115.649C153.541 116.164 153.19 116.82 153.048 117.535C152.906 118.249 152.979 118.989 153.257 119.662C153.536 120.335 154.008 120.91 154.614 121.315C155.219 121.72 155.931 121.936 156.66 121.936C157.636 121.936 158.573 121.548 159.264 120.857C159.954 120.166 160.342 119.23 160.342 118.253Z" fill="white" stroke="#263238" stroke-linecap="round" stroke-linejoin="round"/>
<path d="M309.992 39.4758H215.621V100.663H309.992V39.4758Z" fill="#1040E2" stroke="#263238" stroke-linecap="round" stroke-linejoin="round"/>
<path d="M305.716 43.3606H220.221V96.279H305.716V43.3606Z" fill="#263238" stroke="#263238" stroke-linecap="round" stroke-linejoin="round"/>
<path d="M245.23 80.2674C245.23 74.494 240.536 64.5659 234.762 64.5659C228.989 64.5659 224.281 74.494 224.281 80.2674C224.281 86.0408 228.976 87.4707 234.762 87.4707C240.549 87.4707 245.23 86.0004 245.23 80.2674Z" fill="white" stroke="#263238" stroke-linecap="round" stroke-linejoin="round"/>
<path d="M234.762 66.4812C238.741 66.4812 241.966 63.2562 241.966 59.278C241.966 55.2997 238.741 52.0747 234.762 52.0747C230.784 52.0747 227.559 55.2997 227.559 59.278C227.559 63.2562 230.784 66.4812 234.762 66.4812Z" fill="white" stroke="#263238" stroke-linecap="round" stroke-linejoin="round"/>
<path d="M255.698 53.4373H273.139" stroke="white" stroke-width="2" stroke-linecap="round" stroke-linejoin="round"/>
<path d="M255.698 60.9912H273.139" stroke="white" stroke-width="2" stroke-linecap="round" stroke-linejoin="round"/>
<path d="M255.698 74.3726H296.395" stroke="white" stroke-width="2" stroke-linecap="round" stroke-linejoin="round"/>
<path d="M255.698 84.2603H296.395" stroke="white" stroke-width="2" stroke-linecap="round" stroke-linejoin="round"/>
<path d="M439.138 74.4265H368.954C364.61 74.4265 361.09 77.9475 361.09 82.2908V118.82C361.09 123.163 364.61 126.684 368.954 126.684H439.138C443.482 126.684 447.003 123.163 447.003 118.82V82.2908C447.003 77.9475 443.482 74.4265 439.138 74.4265Z" fill="#263238" stroke="#263238" stroke-width="2" stroke-linecap="round" stroke-linejoin="round"/>
<path d="M407.479 99.2468L447.003 79.2557V78.3384C447.003 77.3009 446.591 76.3059 445.857 75.5723C445.123 74.8387 444.128 74.4265 443.091 74.4265H365.015C363.976 74.4265 362.98 74.8382 362.244 75.5715C361.508 76.3047 361.093 77.2997 361.09 78.3384V79.431L399.898 99.3412C401.081 99.9185 402.383 100.211 403.7 100.194C405.016 100.178 406.311 99.8534 407.479 99.2468Z" fill="#1040E2" stroke="#263238" stroke-width="2" stroke-linecap="round" stroke-linejoin="round"/>
<path d="M490.317 165.533H414.413C411.395 165.533 408.949 167.979 408.949 170.996V203.896C408.949 206.914 411.395 209.36 414.413 209.36H490.317C493.334 209.36 495.78 206.914 495.78 203.896V170.996C495.78 167.979 493.334 165.533 490.317 165.533Z" fill="#263238"/>
<path d="M408.963 197.894V221.433L422.088 206.325" fill="#263238"/>
<path d="M439.233 188.249C439.236 187.357 438.973 186.484 438.479 185.741C437.985 184.998 437.282 184.418 436.458 184.076C435.634 183.733 434.727 183.642 433.852 183.816C432.977 183.989 432.173 184.419 431.542 185.05C430.911 185.681 430.481 186.485 430.308 187.36C430.135 188.235 430.225 189.142 430.568 189.966C430.91 190.79 431.49 191.493 432.233 191.987C432.976 192.481 433.849 192.743 434.741 192.741C435.931 192.737 437.072 192.263 437.913 191.421C438.755 190.58 439.229 189.439 439.233 188.249Z" fill="#1040E2"/>
<path d="M458.509 188.249C458.512 187.357 458.249 186.484 457.755 185.741C457.261 184.998 456.558 184.418 455.734 184.076C454.91 183.733 454.003 183.642 453.128 183.816C452.253 183.989 451.449 184.419 450.818 185.05C450.187 185.681 449.757 186.485 449.584 187.36C449.411 188.235 449.501 189.142 449.844 189.966C450.186 190.79 450.766 191.493 451.509 191.987C452.252 192.481 453.125 192.743 454.017 192.741C455.207 192.737 456.348 192.263 457.189 191.421C458.031 190.58 458.505 189.439 458.509 188.249Z" fill="#1040E2"/>
<path d="M477.799 188.249C477.801 187.357 477.539 186.485 477.046 185.742C476.553 184.999 475.85 184.42 475.027 184.077C474.204 183.734 473.297 183.643 472.423 183.815C471.548 183.987 470.744 184.415 470.112 185.045C469.481 185.674 469.05 186.477 468.875 187.351C468.7 188.226 468.789 189.132 469.13 189.956C469.47 190.78 470.048 191.485 470.789 191.981C471.53 192.476 472.402 192.741 473.293 192.741C474.485 192.737 475.627 192.263 476.47 191.422C477.314 190.581 477.792 189.44 477.799 188.249Z" fill="#1040E2"/>
<path d="M93.5973 274.877C93.3864 274.601 93.115 274.377 92.8039 274.223C92.4928 274.069 92.1505 273.988 91.8032 273.987H33.5295L31.2903 267.242C31.1382 266.794 30.8495 266.405 30.4649 266.129C30.0802 265.853 29.6188 265.705 29.1455 265.704H14.3883C13.8192 265.748 13.2876 266.006 12.8999 266.424C12.5122 266.843 12.2968 267.393 12.2968 267.964C12.2968 268.535 12.5122 269.084 12.8999 269.503C13.2876 269.922 13.8192 270.179 14.3883 270.223H27.5133L41.7445 312.917C41.8949 313.366 42.1831 313.757 42.5681 314.033C42.9532 314.309 43.4155 314.456 43.8893 314.455H44.7121C43.9017 315.704 43.4706 317.161 43.4711 318.65C43.464 319.865 43.7408 321.064 44.2795 322.153C44.8182 323.242 45.6039 324.19 46.574 324.921C47.544 325.653 48.6715 326.147 49.8666 326.365C51.0616 326.584 52.2912 326.52 53.4571 326.179C54.6231 325.838 55.6932 325.229 56.5821 324.401C57.4711 323.573 58.1542 322.548 58.577 321.409C58.9999 320.271 59.1508 319.049 59.0176 317.841C58.8845 316.634 58.471 315.474 57.8102 314.455H68.6016C67.7912 315.704 67.3601 317.161 67.3606 318.65C67.3169 319.7 67.486 320.748 67.8578 321.732C68.2296 322.715 68.7964 323.613 69.5241 324.371C70.2517 325.13 71.1253 325.733 72.0922 326.146C73.0592 326.558 74.0995 326.771 75.1507 326.771C76.2019 326.771 77.2422 326.558 78.2091 326.146C79.1761 325.733 80.0496 325.13 80.7773 324.371C81.505 323.613 82.0718 322.715 82.4436 321.732C82.8153 320.748 82.9845 319.7 82.9407 318.65C82.9412 317.161 82.5102 315.704 81.6997 314.455H83.4398C83.7512 314.479 84.0642 314.438 84.3592 314.335C84.6542 314.233 84.9248 314.07 85.154 313.858C85.3832 313.646 85.5661 313.389 85.6911 313.103C85.8162 312.816 85.8808 312.507 85.8808 312.195C85.8808 311.883 85.8162 311.574 85.6911 311.288C85.5661 311.001 85.3832 310.744 85.154 310.532C84.9248 310.32 84.6542 310.157 84.3592 310.055C84.0642 309.952 83.7512 309.912 83.4398 309.936H45.508L43.0125 302.476H85.3418C85.8391 302.476 86.3225 302.312 86.7174 302.009C87.1123 301.707 87.3968 301.283 87.5271 300.803L93.975 276.846C94.0694 276.511 94.0845 276.159 94.0189 275.817C93.9533 275.475 93.809 275.153 93.5973 274.877ZM51.2544 321.914C50.6088 321.914 49.9777 321.723 49.4408 321.364C48.904 321.005 48.4856 320.495 48.2385 319.899C47.9914 319.302 47.9268 318.646 48.0528 318.013C48.1787 317.38 48.4896 316.798 48.9462 316.341C49.4027 315.885 49.9844 315.574 50.6176 315.448C51.2508 315.322 51.9072 315.387 52.5037 315.634C53.1002 315.881 53.61 316.299 53.9687 316.836C54.3274 317.373 54.5188 318.004 54.5188 318.65C54.5153 319.514 54.1702 320.343 53.5588 320.954C52.9474 321.566 52.1191 321.911 51.2544 321.914ZM75.2249 321.914C74.5792 321.914 73.9481 321.723 73.4113 321.364C72.8744 321.005 72.456 320.495 72.209 319.899C71.9619 319.302 71.8972 318.646 72.0232 318.013C72.1492 317.38 72.4601 316.798 72.9166 316.341C73.3731 315.885 73.9548 315.574 74.588 315.448C75.2213 315.322 75.8776 315.387 76.4741 315.634C77.0706 315.881 77.5804 316.299 77.9391 316.836C78.2978 317.373 78.4893 318.004 78.4893 318.65C78.4875 319.081 78.4005 319.508 78.2333 319.906C78.0661 320.304 77.822 320.665 77.5149 320.968C77.2078 321.272 76.8439 321.511 76.444 321.674C76.044 321.836 75.616 321.918 75.1844 321.914H75.2249ZM81.2546 297.957H72.8777V278.56H81.2546V297.957ZM59.9685 278.56H68.3454V297.998H59.9685V278.56ZM55.4496 297.998H47.0728V278.56H55.4496V297.998ZM35.0403 278.56H42.5404V297.998H41.5287L35.0403 278.56ZM85.7735 289.999V278.56H88.849L85.7735 289.999Z" fill="#263238"/>
<path d="M461.18 263.951C454.73 263.948 448.425 265.858 443.061 269.44C437.698 273.021 433.517 278.113 431.047 284.071C428.578 290.029 427.931 296.586 429.189 302.912C430.446 309.237 433.552 315.048 438.112 319.608C442.673 324.169 448.483 327.274 454.809 328.532C461.135 329.79 467.691 329.143 473.649 326.673C479.608 324.204 484.699 320.023 488.281 314.659C491.862 309.296 493.773 302.99 493.77 296.541C493.759 287.901 490.322 279.617 484.213 273.508C478.103 267.398 469.82 263.961 461.18 263.951ZM461.18 267.997C463.878 267.997 466.818 271.532 468.896 277.44H453.464C455.582 271.532 458.442 267.997 461.18 267.997ZM470.069 281.487C471.06 285.749 471.607 290.102 471.702 294.477H450.645C450.739 290.102 451.286 285.749 452.277 281.487H470.069ZM471.769 298.564C471.658 303.661 470.906 308.723 469.53 313.632H452.884C451.535 308.738 450.806 303.694 450.712 298.618L471.769 298.564ZM446.652 294.517H432.718C433.045 289.91 434.49 285.451 436.926 281.527H448.095C447.18 285.799 446.674 290.149 446.584 294.517H446.652ZM446.652 298.564C446.72 303.644 447.367 308.699 448.581 313.632H438.316C435.044 309.27 433.1 304.057 432.718 298.618L446.652 298.564ZM449.849 317.678C450.643 319.89 451.703 321.996 453.005 323.951C448.908 322.713 445.141 320.57 441.985 317.678H449.849ZM454.233 317.678H468.113C466.13 322.4 463.581 325.151 461.18 325.151C458.779 325.151 456.229 322.346 454.233 317.678ZM472.497 317.678H480.362C477.205 320.57 473.439 322.713 469.341 323.951C470.644 321.996 471.704 319.89 472.497 317.678ZM473.765 313.632C475.027 308.705 475.715 303.649 475.816 298.564H489.683C489.295 304.027 487.332 309.261 484.031 313.632H473.765ZM475.816 294.517C475.726 290.149 475.221 285.799 474.305 281.527H485.474C487.911 285.451 489.355 289.91 489.683 294.517H475.816ZM482.425 277.48H473.239C472.369 274.547 471.074 271.756 469.395 269.198C474.395 270.723 478.883 273.587 482.372 277.48H482.425ZM453.059 269.198C451.38 271.754 450.088 274.545 449.228 277.48H440.029C443.517 273.587 448.005 270.723 453.005 269.198H453.059Z" fill="#263238"/>
<defs>
<clipPath id="clip0">
<rect width="192" height="54" fill="white" transform="translate(169 358)"/>
</clipPath>
</defs>
</svg>
