<svg width="477" height="446" viewBox="0 0 477 446" fill="none" xmlns="http://www.w3.org/2000/svg">
<g clip-path="url(#clip0)">
<path d="M451.157 215.949C490.484 -56.3833 -22.7589 -13.357 40.3364 180.814C77.5374 295.301 184.372 201.983 256.992 237.266C297.671 257.024 292.988 315.636 352.434 316.949C406.078 318.127 444.385 262.816 451.157 215.949Z" fill="#1040E2"/>
<path opacity="0.9" d="M451.157 215.949C490.484 -56.3833 -22.7589 -13.357 40.3364 180.814C77.5374 295.301 184.372 201.983 256.992 237.266C297.671 257.024 292.988 315.636 352.434 316.949C406.078 318.127 444.385 262.816 451.157 215.949Z" fill="white"/>
<path d="M238.68 445.66C370.281 445.66 476.965 439.441 476.965 431.768C476.965 424.096 370.281 417.876 238.68 417.876C107.079 417.876 0.394897 424.096 0.394897 431.768C0.394897 439.441 107.079 445.66 238.68 445.66Z" fill="#1040E2" fill-opacity="0.15"/>
<path opacity="0.7" d="M362.032 347.753H210.573C205.543 347.782 200.561 346.78 195.935 344.807C191.309 342.834 187.138 339.934 183.682 336.285C180.225 332.636 177.555 328.317 175.839 323.596C174.123 318.874 173.396 313.851 173.704 308.838L186.658 61.9703C187.727 40.5676 206.174 23.0551 227.619 23.0551H379.078C384.113 23.0171 389.102 24.0135 393.735 25.9824C398.368 27.9513 402.546 30.8507 406.01 34.5003C409.473 38.15 412.148 42.4719 413.868 47.1975C415.588 51.9232 416.317 56.9516 416.008 61.9703L403.043 308.838C401.924 330.24 383.465 347.753 362.032 347.753Z" fill="#1040E2"/>
<path d="M272.587 8.83179H263.161V10.059H272.587V8.83179Z" fill="#1040E2"/>
<path d="M255.111 8.83179H222.335V10.059H255.111V8.83179Z" fill="#1040E2"/>
<path d="M170.285 93.0106L169.792 102.312L171.02 102.377L171.513 93.0754L170.285 93.0106Z" fill="#1040E2"/>
<path opacity="0.6" d="M353.318 339.064H201.811C196.782 339.094 191.801 338.091 187.176 336.119C182.551 334.148 178.38 331.248 174.924 327.601C171.467 323.953 168.797 319.636 167.08 314.916C165.363 310.196 164.635 305.174 164.942 300.161L177.907 53.2817C179.026 31.8789 197.485 14.3665 218.918 14.3665H370.364C375.399 14.3285 380.389 15.3249 385.022 17.2938C389.655 19.2627 393.833 22.1621 397.297 25.8117C400.76 29.4613 403.435 33.7833 405.155 38.509C406.875 43.2346 407.603 48.263 407.295 53.2817L394.341 300.161C393.211 321.552 374.752 339.064 353.318 339.064Z" fill="#1040E2"/>
<path d="M230.188 304.125C194.179 304.125 161.046 290.122 136.884 264.707C112.723 239.291 100.384 205.358 102.276 169.327C103.595 145.415 111.02 122.238 123.845 102.002C136.402 82.1667 153.548 65.6343 173.839 53.7968C173.914 53.7661 173.998 53.7661 174.073 53.7968C174.154 53.8201 174.224 53.8725 174.27 53.9441L186.67 77.5681C187.112 77.3226 187.555 77.0772 188.009 76.844L188.489 76.574C188.565 76.5496 188.646 76.5496 188.722 76.574C188.763 76.5859 188.8 76.6063 188.832 76.6339C188.864 76.6614 188.889 76.6954 188.907 76.7336L192.299 83.1765C192.334 83.2468 192.341 83.3281 192.318 83.4035C192.295 83.4789 192.244 83.5426 192.176 83.5814C160.628 101.192 139.871 134.069 138.027 169.401C136.626 195.884 145.659 220.785 163.455 239.5C172.284 248.767 182.929 256.122 194.726 261.106C206.524 266.091 219.222 268.599 232.031 268.474C232.073 268.473 232.115 268.482 232.153 268.499C232.191 268.516 232.225 268.541 232.252 268.572C232.283 268.6 232.306 268.635 232.321 268.673C232.336 268.711 232.342 268.752 232.338 268.793L230.495 303.892C230.48 303.961 230.441 304.023 230.385 304.066C230.328 304.108 230.258 304.13 230.188 304.125ZM173.864 54.4963C132.534 78.6726 105.337 122.656 102.879 169.352C100.998 205.223 113.239 238.935 137.29 264.277C161.341 289.619 194.13 303.438 229.868 303.548L231.675 269.076C218.837 269.155 206.119 266.608 194.304 261.594C182.489 256.579 171.827 249.202 162.975 239.917C145.069 221.067 135.938 196.007 137.376 169.364C139.232 133.922 159.989 100.922 191.574 83.1765L188.476 77.2735L188.255 77.3962C187.727 77.6785 187.186 77.9608 186.67 78.2676C186.591 78.299 186.503 78.299 186.424 78.2676C186.346 78.2438 186.28 78.1911 186.24 78.1203L173.864 54.4963Z" fill="#1040E2"/>
<path d="M238.938 316.925C238.85 316.924 238.766 316.889 238.704 316.827C238.677 316.795 238.657 316.757 238.644 316.717C238.632 316.677 238.627 316.635 238.631 316.594L240.597 279.053C240.603 278.976 240.638 278.904 240.695 278.852C240.752 278.799 240.827 278.77 240.904 278.771C299.465 278.771 349.607 231.191 352.679 172.702C352.685 172.625 352.72 172.553 352.777 172.501C352.834 172.448 352.909 172.42 352.986 172.42H361.933C361.973 172.418 362.013 172.425 362.05 172.439C362.087 172.453 362.121 172.474 362.15 172.502C362.179 172.529 362.201 172.562 362.217 172.599C362.233 172.635 362.241 172.675 362.241 172.714C362.314 175.758 362.241 178.85 362.13 181.857H389.77C389.811 181.856 389.853 181.864 389.891 181.881C389.929 181.898 389.963 181.924 389.991 181.955C390.047 182.024 390.078 182.111 390.077 182.201C385.719 217.532 369.156 250.239 343.241 274.684C314.938 301.523 276.925 316.925 238.938 316.925ZM241.199 279.384L239.258 316.311C276.987 316.225 314.716 300.897 342.811 274.23C368.542 249.973 385.023 217.532 389.425 182.471H361.81C361.764 182.471 361.719 182.46 361.678 182.438C361.638 182.417 361.603 182.386 361.577 182.348C361.546 182.321 361.522 182.286 361.507 182.248C361.492 182.21 361.487 182.168 361.491 182.127C361.651 179.108 361.688 175.991 361.626 173.009H353.269C350.049 231.596 299.858 279.225 241.199 279.384Z" fill="#1040E2"/>
<path d="M361.933 173.034C361.853 173.031 361.777 172.997 361.72 172.94C361.663 172.883 361.629 172.807 361.626 172.727C360.065 110.715 310.009 62.142 247.615 62.142C227.068 62.1906 206.855 67.3264 188.784 77.0896C188.749 77.1108 188.71 77.1244 188.669 77.1297C188.628 77.135 188.587 77.1317 188.548 77.1202C188.508 77.1086 188.472 77.089 188.441 77.0626C188.409 77.0362 188.384 77.0036 188.366 76.9668C188.33 76.8947 188.322 76.8115 188.345 76.7341C188.368 76.6566 188.419 76.5907 188.489 76.5496C206.651 66.738 226.965 61.577 247.615 61.5284C277.554 61.1834 306.414 72.6829 327.891 93.5153C349.368 114.348 361.717 142.82 362.241 172.714C362.242 172.755 362.236 172.795 362.222 172.833C362.208 172.871 362.187 172.905 362.159 172.935C362.132 172.965 362.099 172.989 362.062 173.006C362.026 173.022 361.986 173.032 361.946 173.034H361.933Z" fill="#1040E2"/>
<path d="M404.345 182.471H389.77C389.688 182.471 389.61 182.438 389.552 182.381C389.495 182.323 389.462 182.245 389.462 182.164C389.462 182.083 389.495 182.005 389.552 181.947C389.61 181.889 389.688 181.857 389.77 181.857H404.05C405.557 153.802 399.5 125.857 386.513 100.934C367.476 64.7682 334.994 38.3461 295.04 26.5157C252.543 13.9245 207.304 19.1524 167.621 41.2424L174.27 53.8827C174.305 53.9564 174.31 54.0406 174.285 54.1182C174.26 54.1958 174.206 54.2609 174.134 54.3C174.098 54.319 174.058 54.3305 174.018 54.334C173.977 54.3375 173.936 54.3328 173.897 54.3202C173.858 54.3076 173.822 54.2874 173.791 54.2608C173.76 54.2341 173.735 54.2016 173.716 54.165L166.945 41.2669C166.926 41.2324 166.914 41.1944 166.909 41.1552C166.905 41.1159 166.909 41.0762 166.92 41.0384C166.932 41.0007 166.951 40.9656 166.976 40.9352C167.001 40.9049 167.033 40.88 167.068 40.8619C186.866 29.7283 208.719 22.7187 231.306 20.2569C252.774 17.8674 274.503 19.7952 295.213 25.9267C335.326 37.8062 367.943 64.3386 387.054 100.652C400.141 125.757 406.22 153.917 404.652 182.176C404.649 182.255 404.615 182.33 404.558 182.385C404.501 182.44 404.425 182.471 404.345 182.471Z" fill="#1040E2"/>
<path d="M186.547 78.2675H186.461C186.383 78.2438 186.317 78.1911 186.277 78.1203L173.717 54.214C173.679 54.1408 173.672 54.0557 173.698 53.9775C173.723 53.8992 173.778 53.8342 173.852 53.7968C173.925 53.7594 174.01 53.7526 174.089 53.7779C174.167 53.8032 174.232 53.8586 174.27 53.9318L186.67 77.5558C187.112 77.3103 187.555 77.0649 188.01 76.8317L188.489 76.5617C188.525 76.5427 188.565 76.5312 188.605 76.5277C188.646 76.5242 188.687 76.5289 188.726 76.5415C188.765 76.554 188.801 76.5742 188.832 76.6009C188.863 76.6276 188.888 76.6601 188.907 76.6967C188.926 76.7312 188.938 76.7692 188.942 76.8085C188.946 76.8477 188.943 76.8874 188.931 76.9252C188.92 76.963 188.901 76.9981 188.875 77.0284C188.85 77.0587 188.819 77.0836 188.784 77.1017L188.292 77.3717C187.764 77.6539 187.223 77.9362 186.707 78.243C186.656 78.2637 186.601 78.2722 186.547 78.2675Z" fill="#1040E2"/>
<g opacity="0.3">
<path opacity="0.3" d="M230.188 304.125C194.179 304.125 161.046 290.122 136.884 264.707C112.723 239.291 100.384 205.358 102.276 169.327C103.595 145.415 111.02 122.238 123.845 102.002C136.402 82.1667 153.548 65.6343 173.839 53.7968C173.914 53.7661 173.998 53.7661 174.073 53.7968C174.154 53.8201 174.224 53.8725 174.27 53.9441L186.67 77.5681C187.112 77.3226 187.555 77.0772 188.009 76.844L188.489 76.574C188.565 76.5496 188.646 76.5496 188.722 76.574C188.763 76.5859 188.8 76.6063 188.832 76.6339C188.864 76.6614 188.889 76.6954 188.907 76.7336L192.299 83.1765C192.334 83.2468 192.341 83.3281 192.318 83.4035C192.295 83.4789 192.244 83.5426 192.176 83.5814C160.628 101.192 139.871 134.069 138.027 169.401C136.626 195.884 145.659 220.785 163.455 239.5C172.284 248.767 182.929 256.122 194.726 261.106C206.524 266.091 219.222 268.599 232.031 268.474C232.073 268.473 232.115 268.482 232.153 268.499C232.191 268.516 232.225 268.541 232.252 268.572C232.283 268.6 232.306 268.635 232.321 268.673C232.336 268.711 232.342 268.752 232.338 268.793L230.495 303.892C230.48 303.961 230.441 304.023 230.385 304.066C230.328 304.108 230.258 304.13 230.188 304.125ZM173.864 54.4963C132.534 78.6726 105.337 122.656 102.879 169.352C100.998 205.223 113.239 238.935 137.29 264.277C161.341 289.619 194.13 303.438 229.868 303.548L231.675 269.076C218.837 269.155 206.119 266.608 194.304 261.594C182.489 256.579 171.827 249.202 162.975 239.917C145.069 221.067 135.938 196.007 137.376 169.364C139.232 133.922 159.989 100.922 191.574 83.1765L188.476 77.2735L188.255 77.3962C187.727 77.6785 187.186 77.9608 186.67 78.2676C186.591 78.299 186.503 78.299 186.424 78.2676C186.346 78.2438 186.28 78.1911 186.24 78.1203L173.864 54.4963Z" fill="white"/>
<path opacity="0.3" d="M238.938 316.925C238.85 316.924 238.766 316.889 238.704 316.827C238.677 316.795 238.657 316.757 238.644 316.717C238.632 316.677 238.627 316.635 238.631 316.594L240.597 279.053C240.603 278.976 240.638 278.904 240.695 278.852C240.752 278.799 240.827 278.77 240.904 278.771C299.465 278.771 349.607 231.191 352.679 172.702C352.685 172.625 352.72 172.553 352.777 172.501C352.834 172.448 352.909 172.42 352.986 172.42H361.933C361.973 172.418 362.013 172.425 362.05 172.439C362.087 172.453 362.121 172.474 362.15 172.502C362.179 172.529 362.201 172.562 362.217 172.599C362.233 172.635 362.241 172.675 362.241 172.714C362.314 175.758 362.241 178.85 362.13 181.857H389.77C389.811 181.856 389.853 181.864 389.891 181.881C389.929 181.898 389.963 181.924 389.991 181.955C390.047 182.024 390.078 182.111 390.077 182.201C385.719 217.532 369.156 250.239 343.241 274.684C314.938 301.523 276.925 316.925 238.938 316.925ZM241.199 279.384L239.258 316.311C276.987 316.225 314.716 300.897 342.811 274.23C368.542 249.973 385.023 217.532 389.425 182.471H361.81C361.764 182.471 361.719 182.46 361.678 182.438C361.638 182.417 361.603 182.386 361.577 182.348C361.546 182.321 361.522 182.286 361.507 182.248C361.492 182.21 361.487 182.168 361.491 182.127C361.651 179.108 361.688 175.991 361.626 173.009H353.269C350.049 231.596 299.858 279.225 241.199 279.384Z" fill="white"/>
<path opacity="0.3" d="M361.933 173.034C361.853 173.031 361.777 172.997 361.72 172.94C361.663 172.883 361.629 172.807 361.626 172.727C360.065 110.715 310.009 62.142 247.615 62.142C227.068 62.1906 206.855 67.3264 188.784 77.0896C188.749 77.1108 188.71 77.1244 188.669 77.1297C188.628 77.135 188.587 77.1317 188.548 77.1202C188.508 77.1086 188.472 77.089 188.441 77.0626C188.409 77.0362 188.384 77.0036 188.366 76.9668C188.33 76.8947 188.322 76.8115 188.345 76.7341C188.368 76.6566 188.419 76.5907 188.489 76.5496C206.651 66.738 226.965 61.577 247.615 61.5284C277.554 61.1834 306.414 72.6829 327.891 93.5153C349.368 114.348 361.717 142.82 362.241 172.714C362.242 172.755 362.236 172.795 362.222 172.833C362.208 172.871 362.187 172.905 362.159 172.935C362.132 172.965 362.099 172.989 362.062 173.006C362.026 173.022 361.986 173.032 361.946 173.034H361.933Z" fill="white"/>
<path opacity="0.3" d="M404.345 182.471H389.77C389.688 182.471 389.61 182.438 389.552 182.381C389.495 182.323 389.462 182.245 389.462 182.164C389.462 182.083 389.495 182.005 389.552 181.947C389.61 181.889 389.688 181.857 389.77 181.857H404.05C405.557 153.802 399.5 125.857 386.513 100.934C367.476 64.7682 334.994 38.3461 295.04 26.5157C252.543 13.9245 207.304 19.1524 167.621 41.2424L174.27 53.8827C174.305 53.9564 174.31 54.0406 174.285 54.1182C174.26 54.1958 174.206 54.2609 174.134 54.3C174.098 54.319 174.058 54.3305 174.018 54.334C173.977 54.3375 173.936 54.3328 173.897 54.3202C173.858 54.3076 173.822 54.2874 173.791 54.2608C173.76 54.2341 173.735 54.2016 173.716 54.165L166.945 41.2669C166.926 41.2324 166.914 41.1944 166.909 41.1552C166.905 41.1159 166.909 41.0762 166.92 41.0384C166.932 41.0007 166.951 40.9656 166.976 40.9352C167.001 40.9049 167.033 40.88 167.068 40.8619C186.866 29.7283 208.719 22.7187 231.306 20.2569C252.774 17.8674 274.503 19.7952 295.213 25.9267C335.326 37.8062 367.943 64.3386 387.054 100.652C400.141 125.757 406.22 153.917 404.652 182.176C404.649 182.255 404.615 182.33 404.558 182.385C404.501 182.44 404.425 182.471 404.345 182.471Z" fill="white"/>
<path opacity="0.3" d="M186.547 78.2675H186.461C186.383 78.2438 186.317 78.1911 186.277 78.1203L173.717 54.214C173.679 54.1408 173.672 54.0557 173.698 53.9775C173.723 53.8992 173.778 53.8342 173.852 53.7968C173.925 53.7594 174.01 53.7526 174.089 53.7779C174.167 53.8032 174.232 53.8586 174.27 53.9318L186.67 77.5558C187.112 77.3103 187.555 77.0649 188.01 76.8317L188.489 76.5617C188.525 76.5427 188.565 76.5312 188.605 76.5277C188.646 76.5242 188.687 76.5289 188.726 76.5415C188.765 76.554 188.801 76.5742 188.832 76.6009C188.863 76.6276 188.888 76.6601 188.907 76.6967C188.926 76.7312 188.938 76.7692 188.942 76.8085C188.946 76.8477 188.943 76.8874 188.931 76.9252C188.92 76.963 188.901 76.9981 188.875 77.0284C188.85 77.0587 188.819 77.0836 188.784 77.1017L188.292 77.3717C187.764 77.6539 187.223 77.9362 186.707 78.243C186.656 78.2637 186.601 78.2722 186.547 78.2675Z" fill="white"/>
</g>
<path d="M239.7 253.146L238.471 275.69C190.676 275.69 153.942 236.984 156.449 189.27C158.133 157.288 177.01 129.345 203.667 114.409L213.941 133.934C203.931 139.478 195.484 147.455 189.383 157.125C183.282 166.796 179.724 177.848 179.038 189.257C177.231 224.54 204.379 253.146 239.7 253.146Z" fill="#1040E2"/>
<path opacity="0.6" d="M239.7 253.146L238.471 275.69C190.676 275.69 153.942 236.984 156.449 189.27C158.133 157.288 177.01 129.345 203.667 114.409L213.941 133.934C203.931 139.478 195.484 147.455 189.383 157.125C183.282 166.796 179.724 177.848 179.038 189.257C177.231 224.54 204.379 253.146 239.7 253.146Z" fill="black"/>
<path d="M341.594 191.442C340.047 216.296 329.138 239.645 311.06 256.798C292.982 273.952 269.073 283.638 244.137 283.913L245.366 259.786C283.157 259.786 315.417 229.179 317.396 191.442H341.594Z" fill="#1040E2"/>
<path opacity="0.3" d="M341.594 191.442C340.047 216.296 329.138 239.645 311.06 256.798C292.982 273.952 269.073 283.638 244.137 283.913L245.366 259.786C283.157 259.786 315.417 229.179 317.396 191.442H341.594Z" fill="black"/>
<path d="M350.43 197.517H323.098C325.335 154.773 292.472 120.202 249.716 120.202C235.94 120.197 222.398 123.762 210.414 130.547L197.989 106.899C249.274 78.2065 312.947 95.5103 339.099 145.213C347.51 161.316 351.424 179.382 350.43 197.517Z" fill="#FAFAFA"/>
<path d="M347.444 265.603H322.275L319.559 317.367H344.728L347.444 265.603Z" fill="#FAFAFA"/>
<path d="M383.367 248.496H358.197L354.584 317.367H379.754L383.367 248.496Z" fill="#1040E2"/>
<path opacity="0.6" d="M383.367 248.496H358.197L354.584 317.367H379.754L383.367 248.496Z" fill="black"/>
<path d="M417.483 265.603H392.314L389.598 317.367H414.767L417.483 265.603Z" fill="#1040E2"/>
<path opacity="0.3" d="M417.483 265.603H392.314L389.598 317.367H414.767L417.483 265.603Z" fill="black"/>
<path d="M414.533 321.772H319.325L319.386 320.594H414.595L414.533 321.772Z" fill="#263238"/>
<path opacity="0.8" d="M427.401 102.763H317.654L320.898 40.85H430.657L427.401 102.763Z" fill="#FAFAFA"/>
<path d="M319.632 64.9769L317.654 102.763H427.401L429.859 55.8464C411.645 55.8464 400.843 76.5496 378.315 76.5496C355.788 76.5496 349.607 64.9769 319.632 64.9769Z" fill="#1040E2"/>
<path opacity="0.1" d="M319.632 64.9769L317.654 102.763H427.401L429.859 55.8464C411.645 55.8464 400.843 76.5496 378.315 76.5496C355.788 76.5496 349.607 64.9769 319.632 64.9769Z" fill="black"/>
<path d="M318.686 83.0416C343.351 83.0416 352.212 69.5422 366.063 69.5422C379.913 69.5422 385.972 83.7412 403.227 83.7412C421.219 83.7412 429.035 72.5735 429.035 72.5735L427.45 102.788H317.703L318.686 83.0416Z" fill="#1040E2"/>
<path opacity="0.5" d="M318.686 83.0416C343.351 83.0416 352.212 69.5422 366.063 69.5422C379.913 69.5422 385.972 83.7412 403.227 83.7412C421.219 83.7412 429.035 72.5735 429.035 72.5735L427.45 102.788H317.703L318.686 83.0416Z" fill="black"/>
<path d="M101.638 130.559C100.015 132.731 98.2087 135.149 96.5741 137.517C94.9396 139.886 93.2928 142.304 91.7443 144.733C88.6465 149.462 85.934 154.432 83.6331 159.595L83.2275 160.528L83.0309 160.994C82.9429 161.187 82.8968 161.396 82.8957 161.608C82.8642 162.608 82.9759 163.608 83.2275 164.578C83.8834 167.162 84.7761 169.68 85.8944 172.1C88.3289 177.403 91.0278 182.58 93.981 187.612L88.6596 191.81C84.1696 187.334 80.1655 182.398 76.714 177.083C74.8567 174.222 73.3156 171.169 72.1176 167.977C71.4075 166.063 70.965 164.06 70.8026 162.025C70.7116 160.726 70.8026 159.421 71.073 158.147C71.1467 157.791 71.2573 157.411 71.3679 157.055L71.5646 156.453L71.9578 155.226C72.4617 153.618 73.0762 152.109 73.6661 150.575C74.256 149.041 74.8951 147.568 75.6693 146.132C77.0212 143.199 78.582 140.414 80.1674 137.665C81.7527 134.916 83.4733 132.265 85.2676 129.675C86.1648 128.375 87.0865 127.098 88.0205 125.822C88.9545 124.546 89.8885 123.368 90.9946 121.993L101.638 130.559Z" fill="#E58A7B"/>
<path d="M92.0514 185.686L98.651 186.815L92.7888 196.731C92.7888 196.731 88.1925 194.522 87.3568 190.239L92.0514 185.686Z" fill="#E58A7B"/>
<path d="M105.779 190.362L100.556 198.339L92.7889 196.731L98.6511 186.815L105.779 190.362Z" fill="#E58A7B"/>
<path d="M135.668 82.4523C135.668 83.1763 136.049 83.7654 136.528 83.7654C137.007 83.7654 137.388 83.1763 137.388 82.4523C137.388 81.7282 137.007 81.1392 136.528 81.1392C136.049 81.1392 135.668 81.716 135.668 82.4523Z" fill="#263238"/>
<path d="M135.987 83.7654C136.857 85.988 138.027 88.0814 139.465 89.9874C138.968 90.3425 138.399 90.5848 137.798 90.6971C137.198 90.8095 136.579 90.7892 135.987 90.6378V83.7654Z" fill="#DF5753"/>
<path d="M133.087 78.427C133.018 78.4289 132.951 78.4129 132.89 78.3806C132.83 78.3483 132.779 78.3009 132.743 78.2429C132.708 78.1987 132.683 78.1478 132.669 78.0933C132.655 78.0389 132.653 77.9822 132.662 77.9268C132.671 77.8714 132.692 77.8185 132.723 77.7715C132.754 77.7246 132.794 77.6845 132.841 77.6539C133.381 77.241 134.013 76.965 134.683 76.8496C135.353 76.7341 136.041 76.7827 136.688 76.9912C136.791 77.0347 136.873 77.1167 136.917 77.2199C136.961 77.3231 136.962 77.4391 136.921 77.5434C136.904 77.5962 136.875 77.6448 136.838 77.6861C136.801 77.7275 136.755 77.7607 136.704 77.7838C136.654 77.8068 136.599 77.8191 136.543 77.82C136.487 77.8209 136.432 77.8103 136.381 77.7889C135.865 77.6316 135.32 77.5997 134.79 77.6958C134.259 77.7918 133.76 78.0131 133.333 78.3411C133.263 78.3977 133.176 78.4281 133.087 78.427Z" fill="#263238"/>
<path d="M112.157 90.834C113.46 97.4364 114.751 109.512 110.13 113.918C110.13 113.918 111.936 120.606 124.214 120.606C137.732 120.606 130.653 113.918 130.653 113.918C123.28 112.163 123.476 106.702 124.767 101.584L112.157 90.834Z" fill="#E58A7B"/>
<path d="M108.409 116.213C107.438 114.102 106.381 111.672 108.581 110.911C111.039 110.077 124.275 109.23 128.847 110.789C129.45 110.956 130.014 111.24 130.506 111.626C130.998 112.012 131.409 112.492 131.714 113.038C132.019 113.583 132.213 114.184 132.284 114.805C132.355 115.426 132.302 116.054 132.128 116.655L108.409 116.213Z" fill="#1040E2"/>
<path d="M79.9338 424.11C79.1405 424.106 78.3497 424.019 77.5742 423.852C77.5344 423.845 77.4977 423.826 77.4691 423.798C77.4405 423.769 77.4214 423.733 77.4144 423.693C77.4063 423.652 77.41 423.609 77.4253 423.57C77.4405 423.531 77.4666 423.497 77.5005 423.472C77.6111 423.398 80.1059 421.705 81.4209 421.999C81.562 422.029 81.6947 422.089 81.8095 422.176C81.9243 422.263 82.0182 422.375 82.0845 422.502C82.1898 422.651 82.2463 422.829 82.2463 423.012C82.2463 423.194 82.1898 423.372 82.0845 423.521C81.783 423.757 81.4376 423.93 81.0684 424.031C80.6992 424.132 80.3135 424.159 79.9338 424.11ZM78.1764 423.545C79.5283 423.766 81.3717 423.766 81.7527 423.251C81.7527 423.251 81.9125 423.055 81.7527 422.711C81.7129 422.636 81.657 422.571 81.589 422.52C81.521 422.469 81.4426 422.434 81.3594 422.416C80.2071 422.476 79.0989 422.878 78.1764 423.57V423.545Z" fill="#1040E2"/>
<path d="M77.6848 423.889C77.649 423.901 77.6101 423.901 77.5742 423.889C77.5401 423.87 77.5125 423.841 77.495 423.806C77.4775 423.771 77.4708 423.732 77.4759 423.693C77.4759 423.582 77.6971 420.981 78.7049 420.122C78.831 420.019 78.9763 419.942 79.1324 419.895C79.2886 419.849 79.4524 419.834 79.6143 419.852C79.7768 419.851 79.9343 419.908 80.0598 420.011C80.1854 420.114 80.2712 420.257 80.3025 420.416C80.4869 421.422 78.6803 423.386 77.7463 423.901L77.6848 423.889ZM79.5037 420.207C79.3236 420.211 79.15 420.276 79.0121 420.392C78.3837 421.206 78.0115 422.188 77.9429 423.214C78.8769 422.515 80.0321 421.03 79.9215 420.428C79.9215 420.428 79.9215 420.244 79.602 420.207H79.5037Z" fill="#1040E2"/>
<path d="M134.144 424.11C133.216 424.11 132.29 424.024 131.379 423.852C131.335 423.847 131.294 423.827 131.263 423.796C131.232 423.765 131.212 423.724 131.207 423.68C131.2 423.638 131.205 423.594 131.223 423.555C131.24 423.516 131.269 423.483 131.305 423.459C131.44 423.386 134.599 421.594 136.098 421.999C136.24 422.031 136.373 422.092 136.49 422.179C136.606 422.265 136.703 422.375 136.774 422.502C136.872 422.638 136.925 422.801 136.925 422.968C136.925 423.136 136.872 423.299 136.774 423.435C136.417 423.975 135.299 424.11 134.144 424.11ZM132.067 423.545C133.763 423.778 136.036 423.742 136.454 423.177C136.454 423.103 136.553 422.981 136.454 422.711C136.409 422.635 136.349 422.57 136.277 422.519C136.205 422.468 136.123 422.433 136.036 422.416C135.004 422.171 132.989 423.079 132.067 423.57V423.545Z" fill="#1040E2"/>
<path d="M131.416 423.889C131.375 423.902 131.333 423.902 131.293 423.889C131.262 423.867 131.238 423.837 131.222 423.803C131.207 423.768 131.202 423.73 131.207 423.693C131.286 422.415 131.778 421.196 132.608 420.22C132.772 420.071 132.968 419.962 133.181 419.898C133.393 419.834 133.617 419.818 133.837 419.852C134.426 419.913 134.599 420.208 134.635 420.453C134.795 421.472 132.644 423.423 131.551 423.901L131.416 423.889ZM133.615 420.208C133.342 420.204 133.079 420.305 132.878 420.49C132.185 421.262 131.755 422.232 131.649 423.263C132.755 422.601 134.23 421.067 134.107 420.453C134.107 420.453 134.107 420.257 133.689 420.208H133.615Z" fill="#1040E2"/>
<path d="M121.485 423.668H130.518L131.415 402.793H122.382L121.485 423.668Z" fill="#E58A7B"/>
<path d="M67.2755 423.668H76.3084L80.8433 402.793H71.8226L67.2755 423.668Z" fill="#E58A7B"/>
<path d="M76.9474 422.625H66.8084C66.6274 422.626 66.4523 422.689 66.3116 422.803C66.1709 422.916 66.0731 423.074 66.0341 423.251L64.2521 431.265C64.2114 431.46 64.2153 431.662 64.2635 431.855C64.3117 432.048 64.403 432.229 64.5306 432.382C64.6582 432.535 64.8187 432.658 65.0003 432.741C65.1819 432.823 65.3798 432.864 65.5794 432.86C69.1189 432.799 70.8394 432.59 75.3006 432.59C78.0412 432.59 83.6945 432.885 87.492 432.885C91.2895 432.885 91.7688 429.203 90.2203 428.798C83.2643 427.276 80.6466 425.178 78.4099 423.19C78.0115 422.823 77.4889 422.622 76.9474 422.625Z" fill="#263238"/>
<path d="M130.457 422.625H120.625C120.444 422.626 120.269 422.689 120.128 422.803C119.988 422.916 119.89 423.074 119.851 423.251L118.069 431.265C118.026 431.458 118.028 431.658 118.074 431.851C118.12 432.044 118.209 432.223 118.334 432.377C118.459 432.53 118.618 432.653 118.797 432.737C118.977 432.821 119.173 432.863 119.372 432.86C122.923 432.799 128.06 432.59 132.534 432.59C137.757 432.59 142.28 432.885 148.4 432.885C152.087 432.885 153.144 429.203 151.595 428.798C144.529 427.252 138.765 427.092 132.657 423.337C132.006 422.895 131.243 422.648 130.457 422.625Z" fill="#263238"/>
<path d="M142.39 119.06C147.675 121.662 153.168 124.325 158.588 126.816C164.008 129.308 169.489 131.725 174.933 133.799L176.961 134.523L177.477 134.707H177.6C177.6 134.707 177.6 134.707 177.662 134.769C178.397 134.845 179.14 134.757 179.837 134.511C182.281 133.697 184.617 132.588 186.793 131.21C191.76 128.094 196.533 124.68 201.086 120.987L206.063 125.577C202.271 130.816 197.86 135.579 192.925 139.764C190.218 142.098 187.188 144.033 183.929 145.507C181.794 146.472 179.477 146.974 177.133 146.98C176.39 146.966 175.65 146.888 174.921 146.746L174.331 146.611L173.926 146.501L173.336 146.341L170.976 145.691C164.893 143.872 158.919 141.709 153.082 139.211C147.281 136.757 141.702 134.131 136.061 131.148L142.39 119.06Z" fill="#E58A7B"/>
<path d="M93.9687 115.955C85.5011 117.894 75.7922 140.929 75.7922 140.929L92.7889 152.563C97.0199 146.509 100.775 140.137 104.022 133.505C109.036 122.963 102.621 113.98 93.9687 115.955Z" fill="#263238"/>
<path d="M100.028 130.645L91.9901 152.011L92.7889 152.563C92.7889 152.563 96.2669 147.654 100.028 141.113V130.645Z" fill="#1040E2"/>
<path opacity="0.8" d="M100.028 130.645L91.9901 152.011L92.7889 152.563C92.7889 152.563 96.2669 147.654 100.028 141.113V130.645Z" fill="black"/>
<path d="M144.541 116.422C144.541 116.422 154.151 127.258 145.082 194.35H96.783C96.4512 186.987 101.109 150.833 93.9687 115.955C99.3061 114.929 104.704 114.248 110.13 113.918C116.965 113.525 123.818 113.525 130.653 113.918C135.341 114.39 139.984 115.227 144.541 116.422Z" fill="#263238"/>
<path d="M148.768 137.064L137.155 134.609C137.327 134.818 144.528 143.838 148.94 149.446C149.027 144.66 148.965 140.623 148.768 137.064Z" fill="#1040E2"/>
<path opacity="0.8" d="M148.768 137.064L137.155 134.609C137.327 134.818 144.528 143.838 148.94 149.446C149.027 144.66 148.965 140.623 148.768 137.064Z" fill="black"/>
<path d="M129.4 128.424C132.054 136.622 158.895 145.605 158.895 145.605L166.884 126.693C160.148 122.615 152.996 119.266 145.549 116.704C134.66 113.243 126.475 119.428 129.4 128.424Z" fill="#263238"/>
<path d="M200.324 122.214L202.966 113.071L213.474 117.82C213.474 117.82 211.151 124.914 204.797 126.607L200.324 122.214Z" fill="#E58A7B"/>
<path d="M209.258 105.45L216.399 112.482L213.474 117.771L202.966 113.022L209.258 105.45Z" fill="#E58A7B"/>
<path d="M131.415 402.805L130.948 413.556H121.916L122.383 402.805H131.415Z" fill="#CF6F64"/>
<path d="M71.8103 402.805H80.8433L78.5082 413.556H69.4753L71.8103 402.805Z" fill="#CF6F64"/>
<path d="M111.383 80.906C111.924 89.8402 111.789 95.0927 116.299 99.6825C123.095 106.579 134.132 102.481 136.27 93.5464C138.187 85.5204 136.97 72.2664 128.208 68.7075C126.281 67.9166 124.183 67.6312 122.114 67.8784C120.045 68.1255 118.074 68.897 116.387 70.1195C114.701 71.342 113.356 72.9749 112.48 74.8629C111.605 76.7509 111.227 78.8312 111.383 80.906Z" fill="#E58A7B"/>
<path d="M128.761 74.9662C135.508 76.9543 141.161 67.3943 140.117 74.1563C139.072 80.9182 146.433 80.1819 146.433 80.1819C146.433 80.1819 140.657 77.9975 147.527 72.3032C155.921 65.3448 144 61.0741 138.777 64.8539C131.747 69.9592 130.371 60.9514 121.313 58.5338C115.168 56.9138 107.61 60.7673 107.475 65.1976C107.303 70.6096 102.645 66.253 102.301 74.3035C102.068 79.556 108.335 96.8721 115.095 97.4612C125.271 98.357 128.687 85.4712 128.761 74.9662Z" fill="#263238"/>
<path d="M123.452 83.5077C123.934 85.6886 125.127 87.6482 126.844 89.0793C129.117 90.9201 130.936 89.2756 130.887 86.6248C130.826 84.2317 129.584 80.3905 127.028 79.5806C124.472 78.7706 122.874 80.8937 123.452 83.5077Z" fill="#E58A7B"/>
<path d="M109.441 70.2289C108.339 68.5589 107.671 66.6408 107.497 64.6482C107.323 62.6555 107.649 60.651 108.446 58.8158C108.446 58.8158 98.8354 66.0441 109.441 70.2289Z" fill="#263238"/>
<path d="M101.748 69.3456C102.701 68.943 103.74 68.787 104.769 68.8921C105.798 68.9972 106.784 69.36 107.635 69.947C107.635 69.947 104.907 64.3876 101.748 69.3456Z" fill="#263238"/>
<path d="M127.95 194.35C127.95 194.35 117.7 263.246 112.096 289.116C105.951 317.342 82.7359 411.544 82.7359 411.544H66.1694C66.1694 411.544 81.4824 319.6 85.0587 291.571C88.8685 261.197 96.8445 194.301 96.8445 194.301L127.95 194.35Z" fill="#1040E2"/>
<path d="M85.3536 405.395C85.4274 405.395 83.6454 411.74 83.6454 411.74H65.0388L65.3829 406.082L85.3536 405.395Z" fill="#1040E2"/>
<path opacity="0.2" d="M85.3536 405.395C85.4274 405.395 83.6454 411.74 83.6454 411.74H65.0388L65.3829 406.082L85.3536 405.395Z" fill="black"/>
<path d="M121.473 218.894C109.626 221.214 110.879 265.332 112.305 288.023C115.783 271.935 120.699 241.119 124.14 219.164C123.308 218.774 122.367 218.679 121.473 218.894Z" fill="#1040E2"/>
<path opacity="0.2" d="M121.473 218.894C109.626 221.214 110.879 265.332 112.305 288.023C115.783 271.935 120.699 241.119 124.14 219.164C123.308 218.774 122.367 218.679 121.473 218.894Z" fill="black"/>
<path d="M145.082 194.35C145.082 194.35 146.311 261.749 145.34 289.251C144.32 317.845 134.279 411.482 134.279 411.482H119.027C119.027 411.482 118.462 319.514 117.798 291.435C117.061 260.816 113.362 194.35 113.362 194.35H145.082Z" fill="#1040E2"/>
<path d="M131.133 400.511C131.091 400.505 131.054 400.484 131.027 400.452C131 400.421 130.985 400.38 130.985 400.339C133.689 374.42 140.043 311.721 140.817 289.239C141.64 266.204 140.891 214.759 140.645 199.529C140.645 199.51 140.649 199.49 140.656 199.472C140.664 199.455 140.674 199.438 140.688 199.425C140.702 199.411 140.718 199.4 140.736 199.393C140.754 199.385 140.773 199.382 140.792 199.382C140.833 199.381 140.872 199.397 140.901 199.424C140.931 199.451 140.949 199.489 140.952 199.529C141.198 214.746 141.948 266.204 141.124 289.251C140.325 311.746 133.972 374.457 131.292 400.376C131.291 400.395 131.286 400.414 131.277 400.431C131.268 400.448 131.256 400.464 131.241 400.476C131.226 400.489 131.209 400.498 131.19 400.504C131.172 400.51 131.152 400.512 131.133 400.511Z" fill="#1040E2"/>
<path opacity="0.2" d="M131.133 400.511C131.091 400.505 131.054 400.484 131.027 400.452C131 400.421 130.985 400.38 130.985 400.339C133.689 374.42 140.043 311.721 140.817 289.239C141.64 266.204 140.891 214.759 140.645 199.529C140.645 199.51 140.649 199.49 140.656 199.472C140.664 199.455 140.674 199.438 140.688 199.425C140.702 199.411 140.718 199.4 140.736 199.393C140.754 199.385 140.773 199.382 140.792 199.382C140.833 199.381 140.872 199.397 140.901 199.424C140.931 199.451 140.949 199.489 140.952 199.529C141.198 214.746 141.948 266.204 141.124 289.251C140.325 311.746 133.972 374.457 131.292 400.376C131.291 400.395 131.286 400.414 131.277 400.431C131.268 400.448 131.256 400.464 131.241 400.476C131.226 400.489 131.209 400.498 131.19 400.504C131.172 400.51 131.152 400.512 131.133 400.511Z" fill="black"/>
<path d="M137.253 405.395C137.327 405.395 136.393 411.74 136.393 411.74H117.786L117.282 406.082L137.253 405.395Z" fill="#1040E2"/>
<path opacity="0.2" d="M137.253 405.395C137.327 405.395 136.393 411.74 136.393 411.74H117.786L117.282 406.082L137.253 405.395Z" fill="black"/>
</g>
<defs>
<clipPath id="clip0">
<rect width="477" height="446" fill="white"/>
</clipPath>
</defs>
</svg>
