<svg width="16" height="16" viewBox="0 0 16 16" fill="none" xmlns="http://www.w3.org/2000/svg">
<g clip-path="url(#clip0)">
<path d="M8.00004 9.01221C3.19264 9.01221 0.545044 11.2865 0.545044 15.4161C0.545044 15.7387 0.80645 16.0001 1.12898 16.0001H14.8711C15.1936 16.0001 15.455 15.7387 15.455 15.4161C15.455 11.2867 12.8074 9.01221 8.00004 9.01221ZM1.73417 14.8322C1.96386 11.7445 4.06895 10.1801 8.00004 10.1801C11.9311 10.1801 14.0363 11.7445 14.2661 14.8322H1.73417Z" fill="#1040E2"/>
<path d="M7.99994 0C5.79165 0 4.12646 1.69869 4.12646 3.95116C4.12646 6.26959 5.86409 8.15553 7.99994 8.15553C10.1358 8.15553 11.8734 6.26959 11.8734 3.95134C11.8734 1.69869 10.2082 0 7.99994 0ZM7.99994 6.98784C6.50797 6.98784 5.29434 5.62569 5.29434 3.95134C5.29434 2.3385 6.43225 1.16788 7.99994 1.16788C9.54253 1.16788 10.7055 2.36438 10.7055 3.95134C10.7055 5.62569 9.49191 6.98784 7.99994 6.98784Z" fill="#1040E2"/>
</g>
<defs>
<clipPath id="clip0">
<rect width="16" height="16" fill="white"/>
</clipPath>
</defs>
</svg>
